<svg width="22" height="22" viewBox="0 0 22 22" fill="none" xmlns="http://www.w3.org/2000/svg">
<path fill-rule="evenodd" clip-rule="evenodd" d="M3.0734 18.9651C4.3891 20.3893 6.03683 21.4349 7.8562 22.0001C8.06985 21.3073 8.48941 20.703 9.05441 20.2743C9.61942 19.8455 10.3007 19.6145 11 19.6145C11.6993 19.6145 12.3806 19.8455 12.9456 20.2743C13.5106 20.703 13.9302 21.3073 14.1438 22.0001C15.9631 21.4351 17.6108 20.3897 18.9266 18.9657C18.5033 18.4433 18.2394 17.8015 18.1687 17.1222C18.098 16.4429 18.2237 15.7572 18.5298 15.1527C18.8359 14.5482 19.3083 14.0524 19.8867 13.7288C20.4651 13.4053 21.1232 13.2686 21.7767 13.3364C21.923 12.5914 22 11.82 22 11.0304C22.001 9.86598 21.8311 8.70823 21.4962 7.59718C20.9314 7.60562 20.374 7.46312 19.8774 7.1833C19.3807 6.90348 18.9613 6.49571 18.6595 5.99903C18.3577 5.50236 18.1834 4.93339 18.1534 4.34659C18.1234 3.75979 18.2387 3.17481 18.4882 2.64764C17.1987 1.39842 15.6392 0.490338 13.9414 6.10352e-05C13.6651 0.564482 13.2441 1.03838 12.725 1.36931C12.2058 1.70025 11.6088 1.87532 11 1.87516C10.3912 1.87532 9.79416 1.70025 9.27504 1.36931C8.75591 1.03838 8.33491 0.564482 8.0586 6.10352e-05C6.36078 0.490338 4.80128 1.39842 3.51175 2.64764C3.75947 3.17115 3.87484 3.7517 3.84699 4.33449C3.81913 4.91727 3.64896 5.48306 3.35254 5.97842C3.05613 6.47377 2.64324 6.88236 2.15288 7.1656C1.66252 7.44883 1.11087 7.59737 0.550001 7.59718H0.503801C0.176001 8.68093 1.50881e-06 9.83449 1.50881e-06 11.0304C-0.000387446 11.8047 0.0744259 12.5771 0.223302 13.3358C0.876791 13.268 1.53485 13.4047 2.11326 13.7283C2.69167 14.0518 3.16414 14.5476 3.47019 15.1521C3.77625 15.7566 3.90198 16.4423 3.83129 17.1216C3.76061 17.8009 3.49672 18.4428 3.0734 18.9651ZM12.4733 14.7309C12.0062 14.9322 11.5056 15.0358 11 15.0358C9.97891 15.0358 8.99965 14.6138 8.27764 13.8626C7.55562 13.1115 7.15 12.0927 7.15 11.0304C7.15 9.96809 7.55562 8.9493 8.27764 8.19814C8.99965 7.44698 9.97891 7.02498 11 7.02498C11.5056 7.02498 12.0062 7.12858 12.4733 7.32987C12.9404 7.53116 13.3649 7.8262 13.7224 8.19814C14.0799 8.57007 14.3635 9.01162 14.5569 9.49758C14.7504 9.98354 14.85 10.5044 14.85 11.0304C14.85 11.5564 14.7504 12.0772 14.5569 12.5632C14.3635 13.0491 14.0799 13.4907 13.7224 13.8626C13.3649 14.2346 12.9404 14.5296 12.4733 14.7309Z" fill="#009688"/>
</svg>
