<svg width="22" height="22" viewBox="0 0 22 22" fill="none" xmlns="http://www.w3.org/2000/svg">
<path fill-rule="evenodd" clip-rule="evenodd" d="M9.482 0.513115C9.91993 0.180085 10.4526 6.10352e-05 11 6.10352e-05C11.5474 6.10352e-05 12.0801 0.180085 12.518 0.513115L20.988 6.95418C21.3022 7.19313 21.5573 7.50298 21.7329 7.85917C21.9085 8.21537 22 8.60814 22 9.0064V19.4348C22 20.1151 21.7335 20.7676 21.259 21.2487C20.7845 21.7298 20.141 22.0001 19.47 22.0001H14.63C13.959 22.0001 13.3155 21.7298 12.841 21.2487C12.3666 20.7676 12.1 20.1151 12.1 19.4348V15.8657H9.9V19.4348C9.9 20.1151 9.63345 20.7676 9.15898 21.2487C8.68451 21.7298 8.041 22.0001 7.37 22.0001H2.53C1.859 22.0001 1.21549 21.7298 0.74102 21.2487C0.266553 20.7676 0 20.1151 0 19.4348V9.0064C0 8.60815 0.0914469 8.21538 0.267099 7.85917C0.442751 7.50297 0.697783 7.19313 1.012 6.95418L9.482 0.513115ZM11 2.70475L2.64 9.06217V19.3233H7.26V15.7542C7.26 15.0738 7.52655 14.4213 8.00102 13.9403C8.47549 13.4592 9.119 13.1889 9.79 13.1889H12.21C12.881 13.1889 13.5245 13.4592 13.999 13.9403C14.4734 14.4213 14.74 15.0738 14.74 15.7542V19.3233H19.36V9.06216L11 2.70475Z" fill="#6F6F6F"/>
</svg>
