<svg width="258" height="232" viewBox="0 0 258 232" fill="none" xmlns="http://www.w3.org/2000/svg">
<g clip-path="url(#clip0_799_1747)">
<path d="M257 196.553H0V196.681H257V196.553Z" fill="#EBEBEB"/>
<path d="M231.249 204.826H214.224V204.955H231.249V204.826Z" fill="#EBEBEB"/>
<path d="M170.247 206.221H165.779V206.349H170.247V206.221Z" fill="#EBEBEB"/>
<path d="M213.71 200.053H203.845V200.181H213.71V200.053Z" fill="#EBEBEB"/>
<path d="M49.1651 200.917H26.9639V201.045H49.1651V200.917Z" fill="#EBEBEB"/>
<path d="M56.9969 200.917H53.7417V201.045H56.9969V200.917Z" fill="#EBEBEB"/>
<path d="M115.726 203.087H67.5762V203.216H115.726V203.087Z" fill="#EBEBEB"/>
<path d="M121.825 173.629H22.5723C20.9548 173.629 19.6384 172.313 19.6384 170.696V31.1795C19.6384 29.562 20.9548 28.2456 22.5723 28.2456H121.825C123.442 28.2456 124.759 29.562 124.759 31.1795V170.696C124.759 172.313 123.442 173.629 121.825 173.629ZM22.5723 28.3746C21.0252 28.3746 19.7669 29.6329 19.7669 31.18V170.696C19.7669 172.243 21.0252 173.501 22.5723 173.501H121.825C123.372 173.501 124.63 172.243 124.63 170.696V31.1795C124.63 29.6329 123.372 28.3741 121.825 28.3741L22.5723 28.3746Z" fill="#EBEBEB"/>
<path d="M233.001 173.629H133.749C132.131 173.629 130.815 172.313 130.815 170.696V31.1795C130.815 29.562 132.132 28.2456 133.749 28.2456H233.001C234.619 28.2456 235.935 29.562 235.935 31.1795V170.696C235.936 172.313 234.619 173.629 233.001 173.629ZM133.749 28.3746C132.202 28.3746 130.944 29.6329 130.944 31.18V170.696C130.944 172.243 132.202 173.501 133.749 173.501H233.001C234.548 173.501 235.807 172.243 235.807 170.696V31.1795C235.807 29.6329 234.548 28.3741 233.001 28.3741L133.749 28.3746Z" fill="#EBEBEB"/>
<path d="M127.37 86.7427H52.2141V196.931H127.37V86.7427Z" fill="#F0F0F0"/>
<path d="M124.713 90.2114H54.8706V110.562H124.713V90.2114Z" fill="#E0E0E0"/>
<path d="M58.8382 93.5059H54.8706V110.562H58.8382V93.5059Z" fill="#EBEBEB"/>
<path d="M78.0225 93.5059H74.0549V110.562H78.0225V93.5059Z" fill="#EBEBEB"/>
<path d="M99.8002 93.0866L95.8901 93.7603L98.7863 110.569L102.696 109.895L99.8002 93.0866Z" fill="#EBEBEB"/>
<path d="M63.7539 95.7539H59.7864V110.562H63.7539V95.7539Z" fill="#EBEBEB"/>
<path d="M72.8733 95.7539H68.9058V110.562H72.8733V95.7539Z" fill="#EBEBEB"/>
<path d="M95.8919 95.7539H91.9243V110.562H95.8919V95.7539Z" fill="#EBEBEB"/>
<path d="M83.2337 95.2469L79.3606 96.1074L82.5725 110.563L86.4457 109.703L83.2337 95.2469Z" fill="#EBEBEB"/>
<path d="M67.1845 92.6592H65.2009V110.562H67.1845V92.6592Z" fill="#EBEBEB"/>
<path d="M90.7831 92.6592H88.7996V110.562H90.7831V92.6592Z" fill="#EBEBEB"/>
<path d="M54.8703 134.134H124.713V113.784H54.8703V134.134Z" fill="#E0E0E0"/>
<path d="M120.745 134.135H124.713V117.079H120.745V134.135Z" fill="#EBEBEB"/>
<path d="M101.561 134.135H105.529V117.079H101.561V134.135Z" fill="#EBEBEB"/>
<path d="M76.8793 133.46L80.7893 134.134L83.6854 117.325L79.7754 116.651L76.8793 133.46Z" fill="#EBEBEB"/>
<path d="M115.829 134.135H119.797V119.326H115.829V134.135Z" fill="#EBEBEB"/>
<path d="M106.71 134.135H110.677V119.326H106.71V134.135Z" fill="#EBEBEB"/>
<path d="M83.6916 134.135H87.6592V119.326H83.6916V134.135Z" fill="#EBEBEB"/>
<path d="M93.1374 133.273L97.0105 134.134L100.222 119.678L96.3493 118.817L93.1374 133.273Z" fill="#EBEBEB"/>
<path d="M112.399 134.134H114.382V116.232H112.399V134.134Z" fill="#EBEBEB"/>
<path d="M88.8002 134.134H90.7837V116.232H88.8002V134.134Z" fill="#EBEBEB"/>
<path d="M58.8379 117.078H54.8704V134.134H58.8379V117.078Z" fill="#EBEBEB"/>
<path d="M63.7539 119.326H59.7864V134.135H63.7539V119.326Z" fill="#EBEBEB"/>
<path d="M72.8733 119.326H68.9058V134.135H72.8733V119.326Z" fill="#EBEBEB"/>
<path d="M67.1842 116.232H65.2007V134.135H67.1842V116.232Z" fill="#EBEBEB"/>
<path d="M124.713 137.357H54.8706V157.708H124.713V137.357Z" fill="#E0E0E0"/>
<path d="M98.9253 140.652H94.9578V157.708H98.9253V140.652Z" fill="#EBEBEB"/>
<path d="M120.702 140.235L116.792 140.909L119.688 157.717L123.598 157.044L120.702 140.235Z" fill="#EBEBEB"/>
<path d="M84.6568 142.899H80.6892V157.708H84.6568V142.899Z" fill="#EBEBEB"/>
<path d="M93.7762 142.899H89.8086V157.708H93.7762V142.899Z" fill="#EBEBEB"/>
<path d="M116.794 142.899H112.827V157.708H116.794V142.899Z" fill="#EBEBEB"/>
<path d="M104.136 142.394L100.263 143.254L103.475 157.71L107.348 156.85L104.136 142.394Z" fill="#EBEBEB"/>
<path d="M88.0873 139.805H86.1038V157.708H88.0873V139.805Z" fill="#EBEBEB"/>
<path d="M111.686 139.805H109.702V157.708H111.686V139.805Z" fill="#EBEBEB"/>
<path d="M75.0558 140.233L71.1458 140.907L74.0419 157.715L77.9519 157.042L75.0558 140.233Z" fill="#EBEBEB"/>
<path d="M71.1495 142.899H67.1819V157.708H71.1495V142.899Z" fill="#EBEBEB"/>
<path d="M58.4906 142.393L54.6174 143.254L57.8294 157.71L61.7025 156.849L58.4906 142.393Z" fill="#EBEBEB"/>
<path d="M66.0414 139.805H64.0579V157.708H66.0414V139.805Z" fill="#EBEBEB"/>
<path d="M39.2487 197.22H52.2144L52.2144 86.7431H39.2487L39.2487 197.22Z" fill="#E0E0E0"/>
<path d="M206.162 58.5757H158.901V165.044H206.162V58.5757Z" fill="#EBEBEB"/>
<path d="M204.985 162.732L204.985 60.2583L161.289 60.2583L161.289 162.732H204.985Z" fill="#FAFAFA"/>
<path d="M183.033 60.0601H182.029V164.045H183.033V60.0601Z" fill="#F5F5F5"/>
<path d="M207.252 57.1904H157.81V62.2009H207.252V57.1904Z" fill="#E0E0E0"/>
<path d="M207.252 62.7559H157.81V63.3495H207.252V62.7559Z" fill="#F5F5F5"/>
<path d="M207.252 64.104H157.81V64.6977H207.252V64.104Z" fill="#F5F5F5"/>
<path d="M207.252 65.4521H157.81V66.0458H207.252V65.4521Z" fill="#F5F5F5"/>
<path d="M207.252 66.8003H157.81V67.394H207.252V66.8003Z" fill="#F5F5F5"/>
<path d="M207.252 68.1475H157.81V68.7411H207.252V68.1475Z" fill="#F5F5F5"/>
<path d="M207.252 69.4961H157.81V70.0898H207.252V69.4961Z" fill="#F5F5F5"/>
<path d="M207.252 70.8438H157.81V71.4374H207.252V70.8438Z" fill="#F5F5F5"/>
<path d="M207.252 72.1914H157.81V72.7851H207.252V72.1914Z" fill="#F5F5F5"/>
<path d="M207.252 73.5396H157.81V74.1332H207.252V73.5396Z" fill="#F5F5F5"/>
<path d="M207.252 74.8872H157.81V75.4809H207.252V74.8872Z" fill="#F5F5F5"/>
<path d="M207.252 76.2358H157.81V76.8295H207.252V76.2358Z" fill="#F5F5F5"/>
<path d="M207.252 77.5835H157.81V78.1772H207.252V77.5835Z" fill="#F5F5F5"/>
<path d="M207.252 78.9312H157.81V79.5248H207.252V78.9312Z" fill="#F5F5F5"/>
<path d="M207.252 80.2793H157.81V80.873H207.252V80.2793Z" fill="#F5F5F5"/>
<path d="M207.252 81.627H157.81V82.2206H207.252V81.627Z" fill="#F5F5F5"/>
<path d="M207.252 82.9746H157.81V83.5683H207.252V82.9746Z" fill="#F5F5F5"/>
<path d="M207.252 84.3228H157.81V84.9164H207.252V84.3228Z" fill="#F5F5F5"/>
<path d="M207.252 85.6704H157.81V86.2641H207.252V85.6704Z" fill="#F5F5F5"/>
<path d="M106.638 66.9988C111.266 66.9988 115.018 63.2468 115.018 58.6185C115.018 53.9902 111.266 50.2383 106.638 50.2383C102.01 50.2383 98.2578 53.9902 98.2578 58.6185C98.2578 63.2468 102.01 66.9988 106.638 66.9988Z" fill="#E0E0E0"/>
<path d="M106.638 65.7443C110.573 65.7443 113.764 62.5541 113.764 58.6187C113.764 54.6834 110.573 51.4932 106.638 51.4932C102.703 51.4932 99.5125 54.6834 99.5125 58.6187C99.5125 62.5541 102.703 65.7443 106.638 65.7443Z" fill="#F0F0F0"/>
<path d="M106.974 53.7305V58.7116L110.275 56.8438" fill="#F0F0F0"/>
<path d="M106.974 59.226C106.885 59.226 106.795 59.2028 106.715 59.1561C106.557 59.0641 106.46 58.895 106.46 58.712V53.7308C106.46 53.4471 106.69 53.2168 106.974 53.2168C107.258 53.2168 107.488 53.4471 107.488 53.7308V57.8305L110.022 56.3969C110.269 56.2566 110.582 56.344 110.722 56.5907C110.862 56.8379 110.775 57.1515 110.528 57.2913L107.227 59.1592C107.149 59.2039 107.062 59.226 106.974 59.226Z" fill="#E0E0E0"/>
<path d="M128.5 219.767C183.54 219.767 228.159 217.161 228.159 213.946C228.159 210.732 183.54 208.126 128.5 208.126C73.4599 208.126 28.8411 210.732 28.8411 213.946C28.8411 217.161 73.4599 219.767 128.5 219.767Z" fill="#F5F5F5"/>
<path d="M144.456 106.716C144.456 106.716 143.85 110.927 138.39 113.017C138.39 113.017 141.422 109.866 141.311 106.831L144.456 106.716Z" fill="#009688"/>
<path opacity="0.7" d="M144.456 106.716C144.456 106.716 143.85 110.927 138.39 113.017C138.39 113.017 141.422 109.866 141.311 106.831L144.456 106.716Z" fill="white"/>
<path d="M157.161 109.866C173.025 109.866 185.886 101.114 185.886 90.3184C185.886 79.5224 173.025 70.7705 157.161 70.7705C141.296 70.7705 128.436 79.5224 128.436 90.3184C128.436 101.114 141.296 109.866 157.161 109.866Z" fill="#009688"/>
<path opacity="0.7" d="M157.161 109.866C173.025 109.866 185.886 101.114 185.886 90.3184C185.886 79.5224 173.025 70.7705 157.161 70.7705C141.296 70.7705 128.436 79.5224 128.436 90.3184C128.436 101.114 141.296 109.866 157.161 109.866Z" fill="white"/>
<path d="M150.101 64.0547V100.495C150.101 102.489 151.717 104.104 153.71 104.104H170.469C171.169 104.104 171.845 103.908 172.428 103.552C171.411 102.914 170.732 101.785 170.732 100.495V64.0547H150.101Z" fill="#009688"/>
<path opacity="0.4" d="M150.101 64.0547V100.495C150.101 102.489 151.717 104.104 153.71 104.104H170.469C171.169 104.104 171.845 103.908 172.428 103.552C171.411 102.914 170.732 101.785 170.732 100.495V64.0547H150.101Z" fill="white"/>
<path d="M167.904 67.1479H155.896V67.7576H167.904V67.1479Z" fill="#009688"/>
<path d="M167.904 68.7866H152.971V69.3962H167.904V68.7866Z" fill="#009688"/>
<path d="M167.904 70.4243H152.971V71.0339H167.904V70.4243Z" fill="#009688"/>
<path d="M167.904 72.0625H152.971V72.6721H167.904V72.0625Z" fill="#009688"/>
<path d="M167.904 73.7012H152.971V74.3108H167.904V73.7012Z" fill="#009688"/>
<path d="M161.106 75.3394H152.971V75.949H161.106V75.3394Z" fill="#009688"/>
<path d="M167.904 87.9961H155.896V88.6057H167.904V87.9961Z" fill="#009688"/>
<path d="M167.904 89.6343H152.971V90.2439H167.904V89.6343Z" fill="#009688"/>
<path d="M167.904 91.2725H152.971V91.8821H167.904V91.2725Z" fill="#009688"/>
<path d="M167.904 92.9111H152.971V93.5207H167.904V92.9111Z" fill="#009688"/>
<path d="M167.904 94.5493H152.971V95.1589H167.904V94.5493Z" fill="#009688"/>
<path d="M165.68 96.188H152.971V96.7976H165.68V96.188Z" fill="#009688"/>
<path d="M167.904 78.6162H155.896V79.2258H167.904V78.6162Z" fill="#009688"/>
<path d="M167.904 80.2549H152.971V80.8645H167.904V80.2549Z" fill="#009688"/>
<path d="M167.904 81.8931H152.971V82.5027H167.904V81.8931Z" fill="#009688"/>
<path d="M167.904 83.5317H152.971V84.1413H167.904V83.5317Z" fill="#009688"/>
<path d="M161.106 84.9443H152.971V85.5539H161.106V84.9443Z" fill="#009688"/>
<path d="M145.132 66.9202L143.188 62.4931L143.208 62.4849L142.912 61.8105L142.888 61.8198L142.095 62.1539L139.83 63.1069L140.126 63.7817L142.391 62.8283L144.335 67.2554L145.132 66.9202Z" fill="#263238"/>
<path opacity="0.5" d="M145.132 66.9202L143.188 62.4931L143.208 62.4849L142.912 61.8105L142.888 61.8198L142.095 62.1539L139.83 63.1069L140.126 63.7817L142.391 62.8283L144.335 67.2554L145.132 66.9202Z" fill="white"/>
<path d="M144.185 79.2143C140.427 74.54 138.207 69.4961 137.54 64.0795L140.622 62.7827C144.096 67.4442 146.326 72.4855 147.267 77.9169L144.185 79.2143Z" fill="#263238"/>
<path d="M150.481 93.5507L153.926 97.2397L153.563 92.2539L150.481 93.5507Z" fill="#263238"/>
<path opacity="0.3" d="M150.481 93.5507L152.867 96.1058L153.926 97.2397L153.563 92.2539L150.481 93.5507Z" fill="white"/>
<path d="M152.931 96.174L153.62 96.9121L153.926 97.2395L153.821 95.7993L152.931 96.174Z" fill="#263238"/>
<path d="M150.481 93.5503L144.185 79.2138L147.267 77.917L153.563 92.2535L150.481 93.5503Z" fill="#263238"/>
<path opacity="0.1" d="M150.481 93.5503L144.185 79.2138L147.267 77.917L153.563 92.2535L150.481 93.5503Z" fill="white"/>
<path d="M137.54 64.0794L140.622 62.7826C140.622 62.7826 140.325 61.6971 138.723 62.3113C137.12 62.9255 137.54 64.0794 137.54 64.0794Z" fill="#263238"/>
<path opacity="0.1" d="M137.54 64.0794L140.622 62.7826C140.622 62.7826 140.325 61.6971 138.723 62.3113C137.12 62.9255 137.54 64.0794 137.54 64.0794Z" fill="white"/>
<path d="M171.255 198.421H210.507V206.607H171.241C171.595 203.89 171.599 201.138 171.255 198.421Z" fill="#009688"/>
<path opacity="0.7" d="M171.255 198.421H210.507V206.607H171.241C171.595 203.89 171.599 201.138 171.255 198.421Z" fill="white"/>
<path d="M204.089 206.302C205.114 205.277 205.679 203.913 205.679 202.463C205.679 201.012 205.114 199.649 204.089 198.623L203.353 197.888H215.69L215.816 198.014C217.005 199.203 217.659 200.783 217.659 202.463C217.659 204.144 217.005 205.724 215.816 206.911L215.69 207.038H203.353L204.089 206.302Z" fill="#009688"/>
<g opacity="0.3">
<path d="M204.089 206.302C205.114 205.277 205.679 203.913 205.679 202.463C205.679 201.012 205.114 199.649 204.089 198.623L203.353 197.888H215.69L215.816 198.014C217.005 199.203 217.659 200.783 217.659 202.463C217.659 204.144 217.005 205.724 215.816 206.911L215.69 207.038H203.353L204.089 206.302Z" fill="black"/>
</g>
<path d="M170.852 207.038H204.172L204.208 207.002C205.359 205.85 206.081 204.316 206.137 202.688C206.198 200.924 205.54 199.255 204.298 198.015L204.172 197.888H170.852C170.614 197.888 170.421 198.081 170.421 198.319C170.421 198.557 170.614 198.75 170.852 198.75H203.811C204.76 199.76 205.28 201.071 205.28 202.463C205.28 203.855 204.76 205.166 203.811 206.176H170.852C170.614 206.176 170.421 206.369 170.421 206.607C170.42 206.845 170.614 207.038 170.852 207.038Z" fill="#009688"/>
<path d="M174.335 201.473H176.22C176.398 201.473 176.543 201.328 176.543 201.15C176.543 200.972 176.399 200.827 176.22 200.827H174.335C174.157 200.827 174.012 200.972 174.012 201.15C174.012 201.328 174.157 201.473 174.335 201.473Z" fill="white"/>
<path d="M178.697 201.473H196.199C196.377 201.473 196.522 201.328 196.522 201.15C196.522 200.972 196.377 200.827 196.199 200.827H178.697C178.518 200.827 178.374 200.972 178.374 201.15C178.374 201.328 178.518 201.473 178.697 201.473Z" fill="white"/>
<path d="M198.568 201.473H202.446C202.624 201.473 202.769 201.328 202.769 201.15C202.769 200.972 202.625 200.827 202.446 200.827H198.568C198.39 200.827 198.245 200.972 198.245 201.15C198.245 201.328 198.39 201.473 198.568 201.473Z" fill="white"/>
<path d="M174.335 204.201H190.921C191.1 204.201 191.245 204.057 191.245 203.878C191.245 203.7 191.1 203.555 190.921 203.555H174.335C174.157 203.555 174.012 203.699 174.012 203.878C174.012 204.057 174.157 204.201 174.335 204.201Z" fill="white"/>
<path d="M193.345 204.201H202.446C202.624 204.201 202.769 204.057 202.769 203.878C202.769 203.7 202.625 203.555 202.446 203.555H193.345C193.166 203.555 193.021 203.699 193.021 203.878C193.021 204.057 193.166 204.201 193.345 204.201Z" fill="white"/>
<path d="M172.295 181.898H207.622V189.265H172.283C172.601 186.821 172.606 184.344 172.295 181.898Z" fill="#009688"/>
<path opacity="0.8" d="M172.295 181.898H207.622V189.265H172.283C172.601 186.821 172.606 184.344 172.295 181.898Z" fill="white"/>
<path d="M201.846 188.991C202.769 188.068 203.278 186.841 203.278 185.536C203.278 184.231 202.769 183.003 201.846 182.08L201.184 181.418H212.288L212.401 181.532C213.471 182.601 214.06 184.023 214.06 185.535C214.06 187.048 213.471 188.47 212.401 189.539L212.288 189.653H201.184L201.846 188.991Z" fill="#009688"/>
<g opacity="0.2">
<path d="M201.846 188.991C202.769 188.068 203.278 186.841 203.278 185.536C203.278 184.231 202.769 183.003 201.846 182.08L201.184 181.418H212.288L212.401 181.532C213.471 182.601 214.06 184.023 214.06 185.535C214.06 187.048 213.471 188.47 212.401 189.539L212.288 189.653H201.184L201.846 188.991Z" fill="white"/>
</g>
<path d="M171.932 189.653H201.921L201.953 189.621C202.989 188.584 203.639 187.204 203.689 185.739C203.744 184.151 203.152 182.649 202.034 181.532L201.921 181.418H171.932C171.718 181.418 171.545 181.592 171.545 181.806C171.545 182.02 171.719 182.194 171.932 182.194H201.596C202.449 183.102 202.917 184.283 202.917 185.536C202.917 186.788 202.449 187.969 201.596 188.878H171.932C171.718 188.878 171.545 189.051 171.545 189.265C171.544 189.48 171.718 189.653 171.932 189.653Z" fill="#009688"/>
<g opacity="0.4">
<path d="M171.932 189.653H201.921L201.953 189.621C202.989 188.584 203.639 187.204 203.689 185.739C203.744 184.151 203.152 182.649 202.034 181.532L201.921 181.418H171.932C171.718 181.418 171.545 181.592 171.545 181.806C171.545 182.02 171.719 182.194 171.932 182.194H201.596C202.449 183.102 202.917 184.283 202.917 185.536C202.917 186.788 202.449 187.969 201.596 188.878H171.932C171.718 188.878 171.545 189.051 171.545 189.265C171.544 189.48 171.718 189.653 171.932 189.653Z" fill="white"/>
</g>
<path d="M175.067 184.645H176.763C176.924 184.645 177.054 184.515 177.054 184.354C177.054 184.194 176.924 184.063 176.763 184.063H175.067C174.907 184.063 174.776 184.193 174.776 184.354C174.777 184.515 174.907 184.645 175.067 184.645Z" fill="white"/>
<path d="M178.993 184.645H194.745C194.905 184.645 195.036 184.515 195.036 184.354C195.036 184.194 194.906 184.063 194.745 184.063H178.993C178.832 184.063 178.702 184.193 178.702 184.354C178.702 184.515 178.832 184.645 178.993 184.645Z" fill="white"/>
<path d="M196.877 184.645H200.367C200.528 184.645 200.658 184.515 200.658 184.354C200.658 184.194 200.528 184.063 200.367 184.063H196.877C196.716 184.063 196.586 184.193 196.586 184.354C196.586 184.515 196.716 184.645 196.877 184.645Z" fill="white"/>
<path d="M175.067 187.1H189.995C190.156 187.1 190.286 186.97 190.286 186.809C190.286 186.649 190.156 186.519 189.995 186.519H175.067C174.907 186.519 174.776 186.649 174.776 186.809C174.777 186.97 174.907 187.1 175.067 187.1Z" fill="white"/>
<path d="M192.176 187.1H200.367C200.528 187.1 200.658 186.97 200.658 186.809C200.658 186.649 200.528 186.519 200.367 186.519H192.176C192.016 186.519 191.885 186.649 191.885 186.809C191.885 186.97 192.016 187.1 192.176 187.1Z" fill="white"/>
<path d="M171.051 190.133H206.378V197.5H171.039C171.357 195.056 171.361 192.578 171.051 190.133Z" fill="#009688"/>
<path opacity="0.7" d="M171.051 190.133H206.378V197.5H171.039C171.357 195.056 171.361 192.578 171.051 190.133Z" fill="white"/>
<path d="M200.602 197.226C201.526 196.303 202.034 195.076 202.034 193.77C202.034 192.465 201.526 191.238 200.602 190.315L199.94 189.653H211.044L211.157 189.766C212.227 190.836 212.816 192.258 212.816 193.77C212.816 195.283 212.227 196.704 211.157 197.774L211.044 197.888H199.94L200.602 197.226Z" fill="#009688"/>
<path d="M170.688 197.888H200.676L200.708 197.856C201.744 196.819 202.394 195.438 202.445 193.973C202.5 192.386 201.907 190.884 200.79 189.767L200.676 189.653H170.688C170.474 189.653 170.301 189.827 170.301 190.041C170.301 190.255 170.474 190.428 170.688 190.428H200.352C201.205 191.337 201.673 192.518 201.673 193.77C201.673 195.023 201.205 196.204 200.352 197.112H170.688C170.474 197.112 170.301 197.286 170.301 197.5C170.301 197.714 170.474 197.888 170.688 197.888Z" fill="#009688"/>
<g opacity="0.3">
<path d="M170.688 197.888H200.676L200.708 197.856C201.744 196.819 202.394 195.438 202.445 193.973C202.5 192.386 201.907 190.884 200.79 189.767L200.676 189.653H170.688C170.474 189.653 170.301 189.827 170.301 190.041C170.301 190.255 170.474 190.428 170.688 190.428H200.352C201.205 191.337 201.673 192.518 201.673 193.77C201.673 195.023 201.205 196.204 200.352 197.112H170.688C170.474 197.112 170.301 197.286 170.301 197.5C170.301 197.714 170.474 197.888 170.688 197.888Z" fill="white"/>
</g>
<path d="M199.123 194.753H197.427C197.267 194.753 197.136 194.883 197.136 195.044C197.136 195.205 197.266 195.335 197.427 195.335H199.123C199.283 195.335 199.414 195.205 199.414 195.044C199.414 194.883 199.283 194.753 199.123 194.753Z" fill="white"/>
<path d="M195.197 194.753H179.446C179.285 194.753 179.155 194.883 179.155 195.044C179.155 195.205 179.285 195.335 179.446 195.335H195.197C195.358 195.335 195.488 195.205 195.488 195.044C195.488 194.883 195.358 194.753 195.197 194.753Z" fill="white"/>
<path d="M177.313 194.753H173.824C173.663 194.753 173.533 194.883 173.533 195.044C173.533 195.205 173.663 195.335 173.824 195.335H177.313C177.474 195.335 177.604 195.205 177.604 195.044C177.604 194.883 177.474 194.753 177.313 194.753Z" fill="white"/>
<path d="M199.123 192.298H184.195C184.035 192.298 183.905 192.428 183.905 192.589C183.905 192.75 184.035 192.88 184.195 192.88H199.123C199.283 192.88 199.414 192.75 199.414 192.589C199.414 192.428 199.283 192.298 199.123 192.298Z" fill="white"/>
<path d="M182.015 192.298H173.824C173.664 192.298 173.533 192.428 173.533 192.589C173.533 192.75 173.663 192.88 173.824 192.88H182.015C182.176 192.88 182.306 192.75 182.306 192.589C182.305 192.428 182.175 192.298 182.015 192.298Z" fill="white"/>
<path d="M131.161 148.619L138.394 152.269C140.828 153.476 143.261 154.671 145.697 155.811C148.126 156.965 150.572 158.04 152.978 159.044C154.184 159.546 155.38 159.998 156.556 160.412C157.731 160.822 158.883 161.203 159.925 161.458C160.444 161.589 160.929 161.687 161.336 161.753C161.542 161.784 161.312 161.764 161.229 161.784C161.16 161.788 161.09 161.811 161.082 161.816C161.044 161.837 161.081 161.828 161.086 161.842C161.128 161.833 161.147 161.848 161.215 161.83C161.444 161.792 161.845 161.672 162.288 161.499C162.733 161.322 163.226 161.091 163.731 160.827C164.748 160.3 165.803 159.637 166.879 158.953C167.954 158.263 169.034 157.518 170.109 156.74C174.429 153.655 178.739 150.148 183.031 146.768L187.797 151.173C186.119 153.572 184.363 155.789 182.502 157.993C180.647 160.191 178.693 162.318 176.608 164.391C174.493 166.448 172.309 168.466 169.606 170.335C168.926 170.804 168.206 171.267 167.405 171.716C166.6 172.165 165.716 172.6 164.612 172.973C164.35 173.067 164.027 173.154 163.733 173.237C163.396 173.315 163.094 173.394 162.708 173.451C162.356 173.514 161.937 173.554 161.52 173.577C161.088 173.594 160.509 173.573 160.369 173.558C159.386 173.502 158.491 173.392 157.641 173.257C155.945 172.981 154.4 172.628 152.912 172.209C151.426 171.791 149.981 171.342 148.578 170.861C145.756 169.915 143.056 168.828 140.391 167.708C137.732 166.576 135.122 165.385 132.552 164.126C131.267 163.497 129.985 162.863 128.719 162.196C127.437 161.534 126.213 160.866 124.9 160.129L131.161 148.619Z" fill="#E4897B"/>
<path opacity="0.2" d="M194.676 132.868L195.997 132.329L196.184 131.946L194.676 132.868Z" fill="black"/>
<path d="M197.759 131.419L193.508 133.753L189.761 135.859L197.126 141.959C197.126 141.959 199.197 138.361 199.493 136.904C199.642 136.172 197.759 131.419 197.759 131.419Z" fill="#E4897B"/>
<path d="M188.801 135.176C188.801 135.176 190.153 132.479 190.506 132.13C190.864 131.776 196.514 131.946 196.514 131.946L195.599 132.605L193.318 134.669L191.014 136.751L188.801 135.176Z" fill="#E4897B"/>
<path d="M182.932 147.08L188.801 135.175L197.314 141.232C197.314 141.232 195.323 150.8 187.606 151.208L182.932 147.08Z" fill="#E4897B"/>
<path d="M199.909 129.676L175.773 144.451L176.497 145.633L200.633 130.859L199.909 129.676Z" fill="#263238"/>
<path d="M200.63 130.849L203.012 128.578L199.906 129.667L200.63 130.849Z" fill="#263238"/>
<path opacity="0.3" d="M200.63 130.849L202.28 129.276L203.012 128.578L199.906 129.667L200.63 130.849Z" fill="white"/>
<path d="M202.324 129.234L202.801 128.78L203.012 128.578L202.115 128.893L202.324 129.234Z" fill="#263238"/>
<path opacity="0.2" d="M187.89 137.022L186.742 139.351L186.014 139.795L187.031 137.549L187.89 137.022Z" fill="black"/>
<path opacity="0.2" d="M192.07 134.464L191.585 136.399L191.014 136.751L188.237 137.668L188.579 136.601L192.07 134.464Z" fill="black"/>
<path opacity="0.2" d="M191.014 136.751L188.513 137.636L186.661 140.187L188.692 146.179C191.162 144.053 191.064 142.197 189.592 140.485L188.713 139.475C190.067 138.921 191.333 138.324 191.93 137.403L194.764 134.735C196.824 133.821 198.001 132.994 198.172 132.543L198.141 132.373L194.597 134.543L191.014 136.751Z" fill="black"/>
<path d="M182.932 147.079C182.932 147.079 182.533 143.215 183.112 141.404C183.691 139.593 186.772 137.011 187.288 136.442C187.804 135.874 191.242 135.324 191.242 135.324C191.067 136.134 190.738 136.802 189.945 137.05L188.513 137.635L186.661 140.187C186.661 140.187 189.722 142.031 189.784 143.484C189.846 144.937 186.152 149.924 186.152 149.924L182.932 147.079Z" fill="#E4897B"/>
<path d="M105.178 146.671C107.051 164.042 135.24 169.503 135.24 169.503L141.038 151.291C141.038 151.291 131.812 144.098 122.38 138.268C112.497 132.16 104.191 137.522 105.178 146.671Z" fill="#009688"/>
<path opacity="0.2" d="M132.512 168.854C129.05 165.702 126.649 161.054 124.998 155.35L123.068 165.591C126.217 166.94 129.364 168.028 132.512 168.854Z" fill="black"/>
<path d="M121.01 137.155C121.01 137.155 131.535 164.276 121.353 214.713C106.893 214.678 80.3964 214.614 73.3597 214.597C73.0467 207.229 76.3831 172.74 69.3613 138.01C69.3613 138.01 71.3305 135.605 86.8127 134.581C92.939 134.175 101.825 134.126 107.214 134.631C114.32 135.297 121.01 137.155 121.01 137.155Z" fill="#009688"/>
<path opacity="0.6" d="M125.684 179.18C125.621 181.013 125.529 182.904 125.402 184.852C125.298 186.425 125.177 188.045 125.033 189.699C124.855 191.676 124.647 193.705 124.393 195.786C124.197 197.486 123.972 199.222 123.724 200.991C123.419 203.123 123.079 205.302 122.693 207.539C122.295 209.873 121.851 212.265 121.355 214.715C106.893 214.68 80.3963 214.616 73.3586 214.599C73.2892 212.997 73.393 210.109 73.5256 206.219C73.5832 204.662 73.6408 202.939 73.6927 201.077C73.7333 199.723 73.7677 198.287 73.7965 196.789C73.831 195.123 73.8597 193.371 73.8716 191.538C73.8829 190.114 73.8829 188.644 73.8772 187.128C73.8716 185.376 73.8484 183.566 73.8083 181.71C73.7852 180.333 73.7446 178.932 73.6989 177.508C73.5318 172.447 73.226 167.087 72.7248 161.542C72.033 153.927 70.9669 145.973 69.3586 138.007C69.3586 138.007 71.3298 135.604 86.812 134.578C92.9389 134.174 101.821 134.122 107.216 134.63C114.317 135.298 121.009 137.154 121.009 137.154C121.009 137.154 126.641 151.657 125.684 179.18Z" fill="#FAFAFA"/>
<path opacity="0.2" d="M78.7024 159.33C78.7024 159.33 78.2758 170.782 73.6991 177.509C73.5321 172.448 73.2262 167.088 72.7251 161.543C74.5986 160.119 76.6387 159.266 78.7024 159.33Z" fill="black"/>
<path d="M86.1953 113.411C88.0889 119.827 90.4898 131.682 86.3253 136.472C92.8367 138.546 97.5239 139.918 103.283 144.193C104.795 140.001 106.638 134.569 106.638 134.569C99.1867 133.512 98.8685 128.086 99.6621 122.889L86.1953 113.411Z" fill="#E4897B"/>
<path opacity="0.2" d="M91.6859 117.279L99.6559 122.885C99.4637 124.115 99.3414 125.356 99.3676 126.549C96.5457 126.408 92.4342 123.709 91.8658 120.822C91.582 119.382 91.5121 117.978 91.6859 117.279Z" fill="black"/>
<path d="M80.7454 135.071L85.3426 130.745L97.6662 134.978L103.053 143.257L105.066 134.866L107.849 132.351L112.727 135.335L111.974 140.658L108.444 138.93L104.187 145.905L94.6604 140.313L92.0035 142.86L80.7454 135.071Z" fill="#009688"/>
<path opacity="0.2" d="M104.187 145.905L106.673 137.188L111.974 140.659L108.444 138.93L104.187 145.905Z" fill="black"/>
<path opacity="0.2" d="M104.187 145.905L95.7898 137.68L92.0037 142.86L94.6605 140.313L104.187 145.905Z" fill="black"/>
<path d="M89.2584 156.448L94.4184 162.695C96.1629 164.777 97.9116 166.85 99.6849 168.871C101.447 170.903 103.256 172.87 105.056 174.755C105.959 175.699 106.873 176.594 107.784 177.445C108.695 178.292 109.597 179.102 110.449 179.755C110.872 180.083 111.277 180.368 111.623 180.591C111.8 180.702 111.597 180.591 111.513 180.576C111.448 180.553 111.374 180.546 111.365 180.547C111.321 180.551 111.359 180.557 111.358 180.572C111.4 180.581 111.412 180.602 111.482 180.613C111.706 180.671 112.122 180.721 112.597 180.74C113.076 180.757 113.619 180.744 114.188 180.705C115.331 180.631 116.564 180.447 117.823 180.252C119.085 180.052 120.373 179.803 121.669 179.522C126.865 178.43 132.372 177.444 137.66 176.071L140.105 181.524C137.605 183.048 135.107 184.373 132.518 185.645C129.936 186.913 127.293 188.076 124.55 189.138C121.788 190.173 118.978 191.144 115.752 191.771C114.94 191.928 114.095 192.063 113.181 192.152C112.264 192.241 111.28 192.284 110.119 192.183C109.84 192.164 109.51 192.113 109.207 192.072C108.867 192.008 108.559 191.959 108.183 191.856C107.835 191.772 107.436 191.641 107.044 191.495C106.642 191.338 106.12 191.086 105.998 191.015C105.12 190.57 104.344 190.109 103.62 189.644C102.176 188.711 100.903 187.768 99.7095 186.786C98.516 185.807 97.3729 184.816 96.2807 183.811C94.0766 181.812 92.0396 179.732 90.0484 177.637C88.068 175.533 86.1554 173.394 84.306 171.21C83.3818 170.117 82.4628 169.022 81.5705 167.903C80.6623 166.782 79.81 165.679 78.9028 164.476L89.2584 156.448Z" fill="#E4897B"/>
<path d="M65.863 143.608C60.6042 160.27 84.2297 176.588 84.2297 176.588L96.8515 162.236C96.8515 162.236 91.2895 151.943 84.991 142.818C78.3922 133.256 68.6324 134.833 65.863 143.608Z" fill="#009688"/>
<path d="M136.932 176.28C136.932 176.28 139.312 172.598 140.304 172.013C141.328 171.409 145.559 168.737 145.559 168.737L150.037 171.693L149.193 172.592L145.595 172.427L142.976 173.368L142.087 177.651L138.294 182.138L136.932 176.28Z" fill="#E4897B"/>
<path opacity="0.2" d="M147.279 170.708L146.941 170.599L145.708 171.1L146.454 171.152L147.279 170.708Z" fill="black"/>
<path d="M153.759 153.329L155.176 151.328C161.72 153.559 171.453 155.382 172.106 157.627C171.656 155.698 177.038 155.005 180.281 153.738L181.361 154.152L172.408 166.328L153.759 153.329Z" fill="#009688"/>
<path opacity="0.6" d="M153.759 153.329L155.176 151.328C161.72 153.559 171.453 155.382 172.106 157.627C171.656 155.698 177.038 155.005 180.281 153.738L181.361 154.152L172.408 166.328L153.759 153.329Z" fill="white"/>
<path d="M152.181 151.26L138.994 185.714L157.161 194.092L160.727 193.829L168.687 188.344L182.025 153.493L174.224 158.562L170.823 158.395L152.181 151.26Z" fill="#263238"/>
<path opacity="0.3" d="M152.181 151.26L138.994 185.714L157.161 194.092L170.823 158.395L152.181 151.26Z" fill="white"/>
<path opacity="0.3" d="M174.224 158.562L160.727 193.829L168.687 188.344L182.025 153.493L174.224 158.562Z" fill="white"/>
<path opacity="0.1" d="M157.161 194.092L160.727 193.829L174.225 158.562L170.823 158.395L157.161 194.092Z" fill="white"/>
<path d="M156.596 173.794C156.595 173.79 156.591 173.786 156.589 173.782C156.607 173.76 156.578 173.702 156.467 173.584C155.981 173.067 151.594 168.772 151.246 168.771C150.937 168.771 136.932 176.279 136.932 176.279L138.293 182.138C144.585 186.134 151.459 179.608 151.459 179.608L153.26 178.144C153.26 178.144 154.736 178.986 155.178 178.946C155.418 178.925 156.921 174.545 156.596 173.794ZM149.216 173.136L149.769 174.73L150.97 178.196L149.216 173.136Z" fill="#E4897B"/>
<path d="M109.973 84.2886C109.973 84.2886 115.19 97.7713 108.975 104.781C102.76 111.791 96.9963 85.8167 96.9963 85.8167L109.973 84.2886Z" fill="#263238"/>
<path d="M89.9351 120.642C94.6742 125.009 100.835 125.061 105.565 122.322C108.608 120.566 111.055 117.645 112.16 113.98C112.311 113.501 112.43 113.001 112.533 112.492C114.286 103.157 112.136 87.9845 101.879 84.3953C94.5837 81.7841 86.5345 85.5842 83.9265 92.8927C83.1704 94.9657 82.935 97.1939 83.2058 99.3907C84.3104 109.606 84.479 115.663 89.9351 120.642Z" fill="#E4897B"/>
<path d="M98.9208 101.493C98.9039 102.323 99.4312 102.981 99.9858 102.953C100.541 102.924 100.938 102.22 100.902 101.388C100.867 100.556 100.379 99.8994 99.8373 99.9276C99.2955 99.9564 98.8854 100.647 98.9208 101.493Z" fill="#263238"/>
<path d="M108.366 101.027C108.348 101.859 108.889 102.516 109.431 102.488C109.972 102.459 110.382 101.755 110.347 100.923C110.312 100.091 109.823 99.4345 109.282 99.4628C108.74 99.4911 108.329 100.235 108.366 101.027Z" fill="#263238"/>
<path d="M105.385 101.586C106.506 104.092 107.967 106.431 109.729 108.537C108.608 109.425 107.152 109.772 105.75 109.485L105.385 101.586Z" fill="#DE5753"/>
<path d="M95.8399 98.5792C96.0224 98.5957 96.2002 98.5139 96.3061 98.3644C96.9851 97.3163 98.119 96.6497 99.3649 96.5669C99.6343 96.5731 99.8579 96.3598 99.864 96.0899C99.8702 95.8206 99.6569 95.597 99.387 95.5908C99.387 95.5908 99.386 95.5908 99.385 95.5908C97.807 95.6556 96.3585 96.4816 95.4991 97.8067C95.3408 98.0246 95.3891 98.3299 95.6076 98.4882C95.6107 98.4908 95.6143 98.4929 95.6174 98.4949C95.6867 98.5345 95.7618 98.5628 95.8399 98.5792Z" fill="#263238"/>
<path d="M112.263 97.5705C112.357 97.6029 112.459 97.605 112.553 97.5767C112.792 97.4508 112.883 97.1552 112.757 96.9172C112.755 96.9141 112.754 96.9111 112.752 96.9075C112.022 95.5012 110.654 94.5379 109.084 94.3246C108.815 94.3046 108.581 94.5055 108.56 94.7744L108.559 94.7754C108.546 95.0427 108.745 95.273 109.011 95.2997C110.245 95.5037 111.31 96.2794 111.884 97.3911C111.979 97.5037 112.117 97.569 112.263 97.5705Z" fill="#263238"/>
<path d="M90.1037 86.2202L91.0921 90.674C89.6905 91.6054 88.9611 93.3597 89.8154 95.0687C91.639 98.7186 90.0595 104.807 87.379 107.435C87.379 107.435 87.1292 105.801 85.7815 106.325C84.4338 106.849 85.6473 115.364 88.7468 119.181C88.7468 119.181 84.2996 115.888 81.1185 107.134C78.1763 99.0384 77.2383 92.1441 78.6323 88.7655L90.1037 86.2202Z" fill="#263238"/>
<path d="M79.1385 108.025C80.3911 110.29 82.4908 111.967 84.9776 112.686C88.2769 113.615 89.933 110.662 89.031 107.54C88.2024 104.773 85.4993 100.861 82.1793 101.339C78.8584 101.817 77.6356 105.225 79.1385 108.025Z" fill="#E4897B"/>
<path d="M91.0921 90.6735C91.0921 90.6735 108.832 93.5016 111.744 85.4698C114.655 77.438 102.622 72.773 100.718 73.7403C98.8149 74.7077 101.282 76.5699 101.282 76.5699C101.282 76.5699 89.9191 73.5368 88.0292 75.2854C86.1387 77.0346 90.5519 77.529 90.5519 77.529C90.5519 77.529 71.9194 80.6002 78.018 91.9621C78.017 91.9621 83.7244 88.7224 91.0921 90.6735Z" fill="#263238"/>
<path d="M105.424 112.381C104.596 113.861 103.671 116.683 103.671 116.683C103.4 116.645 103.129 116.607 102.861 116.555C99.2014 115.951 97.7036 114.461 97.1526 112.993C96.8545 112.19 96.8494 111.383 96.9295 110.74C97.0149 109.995 97.2451 109.484 97.2451 109.484C98.9938 110.963 102.362 111.79 104.18 112.156C104.939 112.317 105.424 112.381 105.424 112.381Z" fill="#263238"/>
<path d="M104.18 112.156L103.63 113.411C100.185 112.833 97.8361 111.964 96.9299 110.741C97.0153 109.996 97.2455 109.484 97.2455 109.484C98.9942 110.964 102.362 111.79 104.18 112.156Z" fill="white"/>
<path d="M102.861 116.556C99.2016 115.951 97.7038 114.462 97.1528 112.994C98.3921 113.248 99.858 113.692 101.083 114.47C102.023 115.062 102.549 115.822 102.861 116.556Z" fill="#DD5753"/>
<path d="M100.086 106.603C99.7098 106.678 99.3212 106.701 98.9285 106.67C97.808 106.583 96.7893 106.064 96.0589 105.21C95.3285 104.355 94.9749 103.268 95.0627 102.148C95.1506 101.027 95.6693 100.008 96.5235 99.2781C97.3778 98.5477 98.4654 98.1951 99.5859 98.282C100.706 98.3699 101.725 98.8885 102.456 99.7428C103.186 100.597 103.54 101.685 103.452 102.805C103.364 103.925 102.845 104.944 101.991 105.674C101.436 106.149 100.783 106.464 100.086 106.603ZM98.4798 98.6017C97.8255 98.7317 97.2118 99.0283 96.6906 99.4739C95.8882 100.16 95.4015 101.116 95.3187 102.168C95.2365 103.22 95.5685 104.241 96.2542 105.044C96.9399 105.845 97.8964 106.333 98.9486 106.415C100 106.498 101.022 106.165 101.824 105.48C102.626 104.794 103.113 103.837 103.195 102.785C103.277 101.733 102.945 100.712 102.26 99.9098C101.574 99.108 100.618 98.6207 99.5654 98.5385C99.1974 98.5092 98.8324 98.5313 98.4798 98.6017Z" fill="#263238"/>
<path d="M110.87 105.808C110.501 105.882 110.116 105.907 109.722 105.876C107.409 105.694 105.675 103.665 105.856 101.352C105.944 100.232 106.463 99.2127 107.317 98.4828C108.171 97.7524 109.259 97.3993 110.379 97.4867C111.5 97.5746 112.519 98.0932 113.249 98.9475C113.98 99.8018 114.333 100.889 114.245 102.01C114.094 103.929 112.671 105.45 110.87 105.808ZM109.273 97.8064C108.619 97.9364 108.005 98.233 107.484 98.6787C106.681 99.3643 106.195 100.321 106.112 101.373C105.942 103.545 107.57 105.45 109.742 105.62C111.914 105.791 113.818 104.162 113.988 101.99C114.071 100.938 113.738 99.9174 113.053 99.115C112.367 98.3127 111.411 97.8259 110.358 97.7432C109.99 97.7139 109.625 97.736 109.273 97.8064Z" fill="#263238"/>
<path d="M105.998 101.908C105.948 101.918 105.895 101.898 105.865 101.853C105.654 101.532 105.386 101.35 105.068 101.311C104.272 101.214 103.396 102.016 103.387 102.025C103.335 102.073 103.254 102.07 103.206 102.018C103.157 101.966 103.16 101.885 103.212 101.837C103.251 101.8 104.184 100.946 105.098 101.056C105.495 101.104 105.826 101.324 106.08 101.712C106.119 101.771 106.103 101.851 106.044 101.889C106.029 101.899 106.013 101.905 105.998 101.908Z" fill="#263238"/>
<path d="M95.2161 102.284C95.2074 102.286 95.1986 102.287 95.1899 102.287L86.2036 102.204C86.1327 102.204 86.0757 102.146 86.0762 102.075C86.0767 102.004 86.1343 101.944 86.2057 101.948L95.192 102.03C95.2629 102.031 95.32 102.089 95.3194 102.16C95.3189 102.221 95.2747 102.272 95.2161 102.284Z" fill="#263238"/>
<path d="M215.369 206.593H41.1355V214.716H215.369V206.593Z" fill="#009688"/>
<path opacity="0.2" d="M215.369 206.593H41.1355V214.716H215.369V206.593Z" fill="#FAFAFA"/>
<path d="M217.974 206.593H39.0259C37.9044 206.593 36.9951 207.502 36.9951 208.624C36.9951 209.745 37.9044 210.654 39.0259 210.654H217.974C219.096 210.654 220.005 209.745 220.005 208.624C220.005 207.502 219.096 206.593 217.974 206.593Z" fill="#009688"/>
<path opacity="0.4" d="M217.974 206.593H39.0259C37.9044 206.593 36.9951 207.502 36.9951 208.624C36.9951 209.745 37.9044 210.654 39.0259 210.654H217.974C219.096 210.654 220.005 209.745 220.005 208.624C220.005 207.502 219.096 206.593 217.974 206.593Z" fill="#FAFAFA"/>
<path d="M43.3411 206.366V192.241H95.1075V206.664L43.3411 206.366Z" fill="#009688"/>
<path opacity="0.7" d="M43.3411 206.366V192.241H95.1075V206.664L43.3411 206.366Z" fill="white"/>
<path opacity="0.2" d="M95.1069 192.241H69.5642V206.664H95.1069V192.241Z" fill="black"/>
<path d="M43.3409 194.264L41.05 194.971H66.0644L43.3409 194.264Z" fill="#009688"/>
<path d="M43.3411 199.452L69.5643 200.12H91.7501L70.0495 201.321L43.3411 199.452Z" fill="#009688"/>
<path d="M66.0644 203.816H43.3409L41.05 204.496L66.0644 203.816Z" fill="#009688"/>
<path d="M71.9399 194.618L95.1075 194.372L96.3663 194.971L71.9399 194.618Z" fill="#009688"/>
<path d="M75.9692 203.15H95.1075L96.3663 204.497L75.9692 203.15Z" fill="#009688"/>
<path opacity="0.5" d="M43.3409 194.264L41.05 194.971H66.0644L43.3409 194.264Z" fill="white"/>
<path opacity="0.7" d="M43.3411 199.452L69.5643 200.12H91.7501L70.0495 201.321L43.3411 199.452Z" fill="white"/>
<path opacity="0.5" d="M66.0644 203.816H43.3409L41.05 204.496L66.0644 203.816Z" fill="white"/>
<path opacity="0.7" d="M71.9399 194.618L95.1075 194.372L96.3663 194.971L71.9399 194.618Z" fill="white"/>
<path opacity="0.7" d="M96.3663 204.497L75.9692 203.15H95.1075" fill="white"/>
</g>
<defs>
<clipPath id="clip0_799_1747">
<rect width="257" height="232" fill="white" transform="translate(0.5)"/>
</clipPath>
</defs>
</svg>
