<svg width="23" height="22" viewBox="0 0 23 22" fill="none" xmlns="http://www.w3.org/2000/svg">
<path fill-rule="evenodd" clip-rule="evenodd" d="M8.55855 0.536162C9.0168 0.41031 9.50125 0.621204 9.71709 1.04051C9.88455 1.36584 10.1397 1.63898 10.4543 1.82973C10.7689 2.02048 11.1308 2.12139 11.4998 2.1213C11.8687 2.12139 12.2311 2.02048 12.5457 1.82973C12.8603 1.63898 13.1155 1.36584 13.2829 1.04051C13.4987 0.621204 13.9832 0.41031 14.4415 0.536162C16.1395 1.0025 17.6993 1.86625 18.989 3.05448C19.312 3.35205 19.3996 3.82394 19.2046 4.21569C19.0534 4.51955 18.9835 4.85672 19.0017 5.19495C19.0199 5.53317 19.1255 5.86112 19.3084 6.14739C19.4914 6.43367 19.7455 6.6687 20.0465 6.82999C20.3475 6.99127 20.6853 7.07341 21.0276 7.06854C21.4699 7.06225 21.8638 7.3442 21.9962 7.76179C22.3311 8.81849 22.501 9.9196 22.5 11.0271L21.5 11.0262H22.5V11.0271C22.4999 11.7765 22.423 12.5094 22.2768 13.2179C22.1741 13.715 21.7081 14.0547 21.1979 14.0044C20.8018 13.9654 20.403 14.0441 20.0524 14.2306C19.7019 14.4171 19.4155 14.7029 19.23 15.0513C19.0446 15.3997 18.9684 15.795 19.0112 16.1865C19.054 16.578 19.214 16.948 19.4705 17.2491C19.8005 17.6363 19.7816 18.2074 19.4269 18.5725C18.1111 19.9269 16.4634 20.9211 14.644 21.4584C14.1224 21.6125 13.5721 21.3254 13.4058 20.8126C13.2763 20.4132 13.0219 20.0648 12.6794 19.8176C12.3369 19.5705 11.9239 19.4373 11.5 19.4373C11.0761 19.4373 10.6631 19.5705 10.3206 19.8176C9.97805 20.0648 9.72371 20.4132 9.59419 20.8126C9.42788 21.3255 8.87752 21.6125 8.35591 21.4584C6.5365 20.9209 4.88873 19.9265 3.573 18.572C3.21835 18.2069 3.19957 17.6357 3.52947 17.2486C3.78603 16.9475 3.94596 16.5775 3.9888 16.186C4.03164 15.7945 3.95544 15.3992 3.76996 15.0508C3.58447 14.7024 3.29812 14.4166 2.94757 14.2301C2.59702 14.0436 2.1982 13.9649 1.80214 14.0039C1.29184 14.0542 0.825789 13.7144 0.72321 13.2173C0.57443 12.4962 0.499648 11.7621 0.500001 11.0262H1.5L0.500001 11.0256C0.500055 9.89039 0.675826 8.7931 1.00411 7.76088C1.13518 7.34876 1.52135 7.06844 1.958 7.06844H2C2.33992 7.06855 2.67458 6.98294 2.97177 6.81968C3.26895 6.65643 3.51918 6.42093 3.69883 6.13541C3.87848 5.84989 3.98161 5.52378 3.99849 5.18787C4.01538 4.85196 3.94545 4.51733 3.79532 4.21559C3.60042 3.82385 3.68807 3.35202 4.01103 3.05448C5.30075 1.86625 6.86048 1.0025 8.55855 0.536162ZM5.86844 4.07931C5.97301 4.47121 6.01653 4.87821 5.99603 5.28615C5.96226 5.95797 5.75599 6.61019 5.3967 7.18123C5.03741 7.75227 4.53694 8.22327 3.94257 8.54978C3.56574 8.75678 3.15905 8.90137 2.73858 8.97943C2.58253 9.63562 2.5 10.3208 2.5 11.0262L2.5 11.0267C2.49982 11.3702 2.51963 11.7133 2.55926 12.0541C3.02431 12.119 3.47667 12.2648 3.89472 12.4873C4.59583 12.8602 5.16851 13.4317 5.53949 14.1286C5.91047 14.8254 6.06287 15.616 5.97719 16.399C5.92602 16.8666 5.79133 17.3189 5.58183 17.7356C6.3376 18.389 7.1985 18.9127 8.12866 19.2849C8.39496 18.8728 8.73777 18.5106 9.14201 18.2188C9.82677 17.7247 10.6524 17.4584 11.5 17.4584C12.3476 17.4584 13.1732 17.7247 13.858 18.2188C14.2622 18.5106 14.6051 18.8728 14.8714 19.285C15.8015 18.9129 16.6624 18.3893 17.4181 17.736C17.2087 17.3193 17.074 16.8671 17.0228 16.3995C16.9371 15.6165 17.0895 14.8259 17.4605 14.1291C17.8315 13.4322 18.4042 12.8607 19.1053 12.4877C19.5233 12.2654 19.9757 12.1196 20.4407 12.0546C20.4798 11.7173 20.5 11.3742 20.5 11.0262V11.0253C20.5006 10.3358 20.4203 9.64941 20.2611 8.9797C19.8546 8.90422 19.4607 8.76649 19.0941 8.57009C18.4921 8.24752 17.9838 7.77746 17.618 7.2049C17.2521 6.63234 17.0409 5.97645 17.0045 5.3C16.9824 4.88743 17.0257 4.47563 17.1315 4.07926C16.3674 3.47174 15.5081 2.99208 14.5877 2.65925C14.307 2.99637 13.9705 3.28672 13.5906 3.51702C12.9615 3.89843 12.2381 4.10024 11.5002 4.10015M5.86844 4.07931C6.6325 3.47176 7.49186 2.99209 8.41226 2.65925C8.69302 2.99637 9.02953 3.28672 9.40938 3.51702C10.0385 3.89843 10.7624 4.10024 11.5002 4.10015" fill="#6F6F6F"/>
<path fill-rule="evenodd" clip-rule="evenodd" d="M8.31802 7.87781C9.16193 7.04281 10.3065 6.57372 11.5 6.57372C12.0909 6.57372 12.6761 6.68888 13.2221 6.91264C13.768 7.1364 14.2641 7.46436 14.682 7.87781C15.0998 8.29125 15.4313 8.78208 15.6575 9.32228C15.8836 9.86247 16 10.4414 16 11.0261C16 11.6109 15.8836 12.1898 15.6575 12.73C15.4313 13.2702 15.0998 13.761 14.682 14.1745C14.2641 14.5879 13.768 14.9159 13.2221 15.1397C12.6761 15.3634 12.0909 15.4786 11.5 15.4786C10.3065 15.4786 9.16193 15.0095 8.31802 14.1745C7.4741 13.3395 7 12.207 7 11.0261C7 9.84529 7.4741 8.7128 8.31802 7.87781ZM11.5 8.55258C10.837 8.55258 10.2011 8.81318 9.73223 9.27707C9.26339 9.74096 9 10.3701 9 11.0261C9 11.6822 9.26339 12.3113 9.73223 12.7752C10.2011 13.2391 10.837 13.4997 11.5 13.4997C11.8283 13.4997 12.1534 13.4357 12.4567 13.3114C12.76 13.1871 13.0356 13.0049 13.2678 12.7752C13.4999 12.5455 13.6841 12.2729 13.8097 11.9727C13.9353 11.6726 14 11.351 14 11.0261C14 10.7013 13.9353 10.3797 13.8097 10.0796C13.6841 9.77945 13.4999 9.50676 13.2678 9.27707C13.0356 9.04738 12.76 8.86518 12.4567 8.74087C12.1534 8.61656 11.8283 8.55258 11.5 8.55258Z" fill="#6F6F6F"/>
</svg>
