<svg width="22" height="22" viewBox="0 0 22 22" fill="none" xmlns="http://www.w3.org/2000/svg">
<path fill-rule="evenodd" clip-rule="evenodd" d="M4 4.6301C4 3.93256 4.25404 3.26358 4.70624 2.77034C5.15844 2.2771 5.77175 2 6.41125 2H14.4487C15.0883 2 15.7016 2.2771 16.1538 2.77034C16.606 3.26358 16.86 3.93256 16.86 4.6301V18.6819C16.86 19.7514 15.7508 20.3739 14.9535 19.7523L10.43 16.228L5.9065 19.7523C5.10837 20.3748 4 19.7523 4 18.6827V4.6301ZM6.41125 3.7534C6.19808 3.7534 5.99365 3.84577 5.84291 4.01018C5.69218 4.1746 5.6075 4.39759 5.6075 4.6301V17.8306L9.72913 14.6192C9.93363 14.4599 10.1787 14.3742 10.43 14.3742C10.6813 14.3742 10.9264 14.4599 11.1309 14.6192L15.2525 17.8306V4.6301C15.2525 4.39759 15.1678 4.1746 15.0171 4.01018C14.8664 3.84577 14.6619 3.7534 14.4487 3.7534H6.41125Z" fill="#939393"/>
</svg>
