<svg width="22" height="22" viewBox="0 0 22 22" fill="none" xmlns="http://www.w3.org/2000/svg">
<path d="M16.217 19.9983C16.0597 19.9988 15.9078 19.9416 15.7898 19.8376L10.43 15.0733L5.07019 19.8376C4.97744 19.92 4.86281 19.9739 4.74014 19.9926C4.61746 20.0114 4.49198 19.9942 4.37883 19.9432C4.26569 19.8923 4.16972 19.8097 4.1025 19.7054C4.03528 19.6011 3.99968 19.4796 4 19.3555V4.57119C4.00075 3.8895 4.27196 3.23594 4.75415 2.75391C5.23633 2.27188 5.89009 2.00074 6.572 2H14.288C14.9699 2.00074 15.6237 2.27188 16.1059 2.75391C16.588 3.23594 16.8593 3.8895 16.86 4.57119V19.3555C16.86 19.526 16.7923 19.6895 16.6717 19.8101C16.5511 19.9306 16.3875 19.9983 16.217 19.9983Z" fill="#009688"/>
</svg>
