<svg width="16" height="18" viewBox="0 0 16 18" fill="none" xmlns="http://www.w3.org/2000/svg">
<path fill-rule="evenodd" clip-rule="evenodd" d="M6.33333 0C5.67029 0 5.03441 0.258603 4.56557 0.71892C4.09673 1.17924 3.83333 1.80356 3.83333 2.45455V4.09091H3C2.33696 4.09091 1.70107 4.34951 1.23223 4.80983C0.763392 5.27015 0.5 5.89447 0.5 6.54545V15.5455C0.5 16.1964 0.763392 16.8208 1.23223 17.2811C1.70107 17.7414 2.33696 18 3 18H9.66667C10.3297 18 10.9656 17.7414 11.4344 17.2811C11.9033 16.8208 12.1667 16.1964 12.1667 15.5455V14.7273H13C13.663 14.7273 14.2989 14.4687 14.7678 14.0084C15.2366 13.548 15.5 12.9237 15.5 12.2727V5.10709V5.10699C15.5 4.78 15.4334 4.45631 15.3041 4.15493C15.1749 3.85355 14.9857 3.58056 14.7475 3.35199L11.9852 0.699599L11.9851 0.699545C11.5181 0.251171 10.8908 7.98323e-05 10.2376 0H10.2375H6.33333ZM10.5 14.7273V15.5455C10.5 15.7625 10.4122 15.9706 10.2559 16.124C10.0996 16.2774 9.88768 16.3636 9.66667 16.3636H3C2.77899 16.3636 2.56702 16.2774 2.41074 16.124C2.25446 15.9706 2.16667 15.7625 2.16667 15.5455V6.54545C2.16667 6.32846 2.25446 6.12035 2.41074 5.96691C2.56702 5.81347 2.77899 5.72727 3 5.72727H3.83333V12.2727C3.83333 12.9237 4.09673 13.548 4.56557 14.0084C5.03441 14.4687 5.67029 14.7273 6.33333 14.7273H10.5ZM5.5 4.90909V12.2727C5.5 12.4897 5.5878 12.6978 5.74408 12.8513C5.90036 13.0047 6.11232 13.0909 6.33333 13.0909H11.3333H13C13.221 13.0909 13.433 13.0047 13.5893 12.8513C13.7455 12.6978 13.8333 12.4897 13.8333 12.2727V5.10719V5.10709C13.8333 4.99813 13.8111 4.89027 13.768 4.78984C13.725 4.68937 13.6619 4.59838 13.5825 4.52219L13.5823 4.52204L10.8199 1.86955L10.8198 1.86949C10.6642 1.72009 10.4552 1.63642 10.2375 1.63636H10.2374H6.33333C6.11232 1.63636 5.90036 1.72256 5.74408 1.876C5.5878 2.02944 5.5 2.23755 5.5 2.45455V4.90909Z" fill="#939393"/>
</svg>
