<svg width="18" height="16" viewBox="0 0 18 16" fill="none" xmlns="http://www.w3.org/2000/svg">
<path d="M17.7365 7.37154L10.5364 0.260261C10.4105 0.135983 10.2502 0.0513533 10.0756 0.0170702C9.90108 -0.0172129 9.72015 0.000390188 9.55571 0.067654C9.39128 0.134918 9.25073 0.248822 9.15184 0.394968C9.05294 0.541113 9.00013 0.712938 9.0001 0.888721V4.03991C6.54153 4.26462 4.25635 5.38737 2.59175 7.18845C0.927148 8.98953 0.00294459 11.3393 0 13.7779V15.1113C0.000142072 15.2958 0.0584193 15.4757 0.166748 15.626C0.275078 15.7764 0.428089 15.8897 0.604559 15.9503C0.78103 16.0108 0.972212 16.0157 1.15159 15.9641C1.33097 15.9125 1.48964 15.8071 1.60562 15.6624C2.48735 14.6268 3.56922 13.7751 4.788 13.1571C6.00678 12.5391 7.33804 12.1673 8.70399 12.0632C8.74899 12.0579 8.8615 12.049 9.0001 12.0401V15.1113C9.00013 15.2871 9.05294 15.4589 9.15184 15.605C9.25073 15.7512 9.39128 15.8651 9.55571 15.9323C9.72015 15.9996 9.90108 16.0172 10.0756 15.9829C10.2502 15.9486 10.4105 15.864 10.5364 15.7397L17.7365 8.62846C17.9052 8.46177 18 8.23571 18 8C18 7.76429 17.9052 7.53824 17.7365 7.37154ZM10.8001 12.9655V11.1112C10.8001 10.8754 10.7053 10.6493 10.5365 10.4826C10.3677 10.3159 10.1388 10.2223 9.90011 10.2223C9.6706 10.2223 8.73369 10.2667 8.49429 10.2978C6.06864 10.5186 3.75972 11.4288 1.84682 12.9183C2.06394 10.9578 3.00562 9.14522 4.49155 7.82769C5.97748 6.51016 7.90324 5.78026 9.90011 5.77773C10.1388 5.77773 10.3677 5.68407 10.5365 5.51737C10.7053 5.35067 10.8001 5.12457 10.8001 4.88882V3.03455L15.8276 8L10.8001 12.9655Z" fill="#939393"/>
</svg>
