<svg width="234" height="191" viewBox="0 0 234 191" fill="none" xmlns="http://www.w3.org/2000/svg">
<path d="M234 135.949H0V136.066H234V135.949Z" fill="#EBEBEB"/>
<path d="M210.554 143.483H195.053V143.6H210.554V143.483Z" fill="#EBEBEB"/>
<path d="M155.011 144.754H150.943V144.871H155.011V144.754Z" fill="#EBEBEB"/>
<path d="M194.584 139.137H185.602V139.254H194.584V139.137Z" fill="#EBEBEB"/>
<path d="M44.7651 139.923H24.5508V140.04H44.7651V139.923Z" fill="#EBEBEB"/>
<path d="M51.8961 139.923H48.9323V140.04H51.8961V139.923Z" fill="#EBEBEB"/>
<path d="M105.369 141.9H61.5284V142.017H105.369V141.9Z" fill="#EBEBEB"/>
<path d="M206.374 17.2471H27.6251V135.744H206.374V17.2471Z" fill="#E0E0E0"/>
<path d="M117 135.212V14.4564C117 14.4564 139.778 7.06396 200.68 7.06396V135.212H117Z" fill="#F5F5F5"/>
<path d="M117 135.212V14.4564C117 14.4564 94.222 7.06396 33.3202 7.06396V135.212H117Z" fill="#F0F0F0"/>
<path d="M123.515 26.9212C122.947 26.9212 122.448 26.5069 122.359 25.9278C122.262 25.2889 122.7 24.6916 123.339 24.5937C123.651 24.5455 155.019 19.7983 192.233 19.7983C192.879 19.7983 193.403 20.3222 193.403 20.9686C193.403 21.6151 192.879 22.1389 192.233 22.1389C155.206 22.1389 124.004 26.8594 123.693 26.9071C123.633 26.9165 123.573 26.9212 123.515 26.9212Z" fill="#E6E6E6"/>
<path d="M123.515 35.5957C122.933 35.5957 122.429 35.1627 122.355 34.571C122.275 33.9297 122.729 33.3445 123.371 33.264C123.717 33.2205 158.411 28.9082 192.233 28.9082C192.88 28.9082 193.403 29.432 193.403 30.0785C193.403 30.725 192.88 31.2488 192.233 31.2488C158.561 31.2488 124.007 35.5428 123.662 35.5863C123.612 35.5929 123.563 35.5957 123.515 35.5957Z" fill="#E6E6E6"/>
<path d="M123.515 44.2711C122.922 44.2711 122.414 43.8227 122.352 43.2207C122.286 42.578 122.753 42.0031 123.396 41.9367C123.777 41.8973 161.798 38.0181 192.233 38.0181C192.879 38.0181 193.403 38.5419 193.403 39.1884C193.403 39.8348 192.879 40.3586 192.233 40.3586C161.917 40.3586 124.015 44.2257 123.636 44.2646C123.595 44.2693 123.554 44.2711 123.515 44.2711Z" fill="#E6E6E6"/>
<path d="M123.515 52.9461C122.913 52.9461 122.401 52.4846 122.35 51.8737C122.296 51.2296 122.774 50.6636 123.418 50.6098C123.833 50.5751 165.184 47.1279 192.233 47.1279C192.879 47.1279 193.403 47.6518 193.403 48.2982C193.403 48.9447 192.879 49.4685 192.233 49.4685C165.283 49.4685 124.028 52.9073 123.614 52.9419C123.581 52.9452 123.547 52.9461 123.515 52.9461Z" fill="#E6E6E6"/>
<path d="M123.515 61.6216C122.904 61.6216 122.39 61.1483 122.348 60.5304C122.304 59.8858 122.792 59.3274 123.436 59.2834C123.885 59.2529 168.568 56.2378 192.233 56.2378C192.879 56.2378 193.403 56.7616 193.403 57.4081C193.403 58.0545 192.879 58.5784 192.233 58.5784C168.648 58.5784 124.043 61.5879 123.595 61.6183C123.568 61.6206 123.541 61.6216 123.515 61.6216Z" fill="#E6E6E6"/>
<path d="M123.515 70.2966C122.897 70.2966 122.381 69.8135 122.347 69.1895C122.313 68.544 122.807 67.9925 123.453 67.9579C123.935 67.9317 171.951 65.3481 192.233 65.3481C192.879 65.3481 193.403 65.872 193.403 66.5184C193.403 67.1649 192.879 67.6887 192.233 67.6887C172.014 67.6887 124.061 70.269 123.579 70.2947C123.558 70.2961 123.536 70.2966 123.515 70.2966Z" fill="#E6E6E6"/>
<path d="M123.515 78.972C122.892 78.972 122.374 78.48 122.347 77.8509C122.32 77.2049 122.821 76.6595 123.467 76.6319C123.984 76.6104 175.333 74.4575 192.233 74.4575C192.879 74.4575 193.403 74.9813 193.403 75.6278C193.403 76.2743 192.879 76.7981 192.233 76.7981C175.382 76.7981 124.081 78.9486 123.565 78.9706C123.548 78.9716 123.532 78.972 123.515 78.972Z" fill="#E6E6E6"/>
<path d="M123.515 87.647C122.886 87.647 122.366 87.1471 122.347 86.5137C122.326 85.8677 122.833 85.3275 123.479 85.3069C124.029 85.2896 178.714 83.5674 192.233 83.5674C192.879 83.5674 193.403 84.0912 193.403 84.7377C193.403 85.3841 192.879 85.908 192.233 85.908C178.751 85.908 124.103 87.6292 123.553 87.6466C123.54 87.647 123.528 87.647 123.515 87.647Z" fill="#E6E6E6"/>
<path d="M123.516 96.322C122.881 96.322 122.361 95.815 122.346 95.1779C122.331 94.5319 122.843 93.9964 123.49 93.9819C124.075 93.9688 182.095 92.6772 192.233 92.6772C192.879 92.6772 193.403 93.2011 193.403 93.8475C193.403 94.494 192.879 95.0178 192.233 95.0178C182.121 95.0178 124.127 96.3089 123.542 96.3215C123.533 96.322 123.524 96.322 123.516 96.322Z" fill="#E6E6E6"/>
<path d="M123.516 104.998C122.877 104.998 122.355 104.485 122.346 103.844C122.337 103.198 122.853 102.666 123.499 102.657C124.118 102.648 185.475 101.788 192.232 101.788C192.879 101.788 193.402 102.312 193.402 102.958C193.402 103.605 192.879 104.129 192.232 104.129C185.49 104.129 124.151 104.99 123.532 104.998C123.527 104.998 123.521 104.998 123.516 104.998Z" fill="#E6E6E6"/>
<path d="M123.516 113.673C122.873 113.673 122.35 113.154 122.346 112.511C122.341 111.864 122.862 111.337 123.508 111.332C124.161 111.328 188.854 110.897 192.233 110.897C192.879 110.897 193.403 111.421 193.403 112.068C193.403 112.714 192.879 113.238 192.233 113.238C188.862 113.238 124.176 113.668 123.523 113.673C123.521 113.673 123.518 113.673 123.516 113.673Z" fill="#E6E6E6"/>
<path d="M192.233 122.348H123.516C122.87 122.348 122.346 121.824 122.346 121.178C122.346 120.531 122.87 120.007 123.516 120.007H192.233C192.879 120.007 193.403 120.531 193.403 121.178C193.403 121.824 192.879 122.348 192.233 122.348Z" fill="#E6E6E6"/>
<path d="M110.485 26.9212C111.053 26.9212 111.552 26.5069 111.641 25.9278C111.738 25.2889 111.3 24.6916 110.661 24.5937C110.349 24.5455 78.9811 19.7983 41.7672 19.7983C41.1209 19.7983 40.5972 20.3222 40.5972 20.9686C40.5972 21.6151 41.1209 22.1389 41.7672 22.1389C78.7939 22.1389 109.996 26.8594 110.307 26.9071C110.367 26.9165 110.427 26.9212 110.485 26.9212Z" fill="#E0E0E0"/>
<path d="M110.485 35.5957C111.067 35.5957 111.571 35.1627 111.645 34.571C111.726 33.9297 111.271 33.3445 110.63 33.264C110.284 33.2205 75.5905 28.9082 41.7677 28.9082C41.1213 28.9082 40.5977 29.432 40.5977 30.0785C40.5977 30.725 41.1213 31.2488 41.7677 31.2488C75.4398 31.2488 109.994 35.5428 110.339 35.5863C110.388 35.5929 110.437 35.5957 110.485 35.5957Z" fill="#E0E0E0"/>
<path d="M110.485 44.2711C111.078 44.2711 111.586 43.8227 111.648 43.2207C111.714 42.578 111.247 42.0031 110.604 41.9367C110.223 41.8973 72.2021 38.0181 41.7672 38.0181C41.1209 38.0181 40.5972 38.5419 40.5972 39.1884C40.5972 39.8348 41.1209 40.3586 41.7672 40.3586C72.0833 40.3586 109.985 44.2257 110.364 44.2646C110.405 44.2693 110.446 44.2711 110.485 44.2711Z" fill="#E0E0E0"/>
<path d="M110.485 52.9461C111.087 52.9461 111.599 52.4846 111.65 51.8737C111.704 51.2296 111.226 50.6636 110.582 50.6098C110.167 50.5751 68.8157 47.1279 41.7672 47.1279C41.1209 47.1279 40.5972 47.6518 40.5972 48.2982C40.5972 48.9447 41.1209 49.4685 41.7672 49.4685C68.7169 49.4685 109.973 52.9073 110.386 52.9419C110.419 52.9452 110.453 52.9461 110.485 52.9461Z" fill="#E0E0E0"/>
<path d="M110.485 61.6216C111.096 61.6216 111.61 61.1483 111.652 60.5304C111.696 59.8858 111.209 59.3274 110.564 59.2834C110.115 59.2529 65.4321 56.2378 41.7677 56.2378C41.1213 56.2378 40.5977 56.7616 40.5977 57.4081C40.5977 58.0545 41.1213 58.5784 41.7677 58.5784C65.353 58.5784 109.958 61.5879 110.405 61.6183C110.432 61.6206 110.459 61.6216 110.485 61.6216Z" fill="#E0E0E0"/>
<path d="M110.485 70.2966C111.103 70.2966 111.619 69.8135 111.653 69.1895C111.687 68.544 111.193 67.9925 110.547 67.9579C110.065 67.9317 62.0489 65.3481 41.7672 65.3481C41.1209 65.3481 40.5972 65.872 40.5972 66.5184C40.5972 67.1649 41.1209 67.6887 41.7672 67.6887C61.9857 67.6887 109.939 70.269 110.421 70.2947C110.442 70.2961 110.464 70.2966 110.485 70.2966Z" fill="#E0E0E0"/>
<path d="M110.485 78.972C111.108 78.972 111.626 78.48 111.653 77.8509C111.68 77.2049 111.179 76.6595 110.533 76.6319C110.017 76.6104 58.6666 74.4575 41.7672 74.4575C41.1209 74.4575 40.5972 74.9813 40.5972 75.6278C40.5972 76.2743 41.1209 76.7981 41.7672 76.7981C58.618 76.7981 109.919 78.9486 110.435 78.9706C110.452 78.9716 110.468 78.972 110.485 78.972Z" fill="#E0E0E0"/>
<path d="M110.485 87.647C111.114 87.647 111.634 87.1471 111.654 86.5137C111.674 85.8677 111.167 85.3275 110.522 85.3069C109.971 85.2896 55.2863 83.5674 41.7677 83.5674C41.1213 83.5674 40.5977 84.0912 40.5977 84.7377C40.5977 85.3841 41.1213 85.908 41.7677 85.908C55.2493 85.908 109.897 87.6292 110.448 87.6466C110.46 87.647 110.472 87.647 110.485 87.647Z" fill="#E0E0E0"/>
<path d="M110.485 96.322C111.119 96.322 111.64 95.815 111.654 95.1779C111.669 94.5319 111.157 93.9964 110.51 93.9819C109.926 93.9688 51.9055 92.6772 41.7672 92.6772C41.1209 92.6772 40.5972 93.2011 40.5972 93.8475C40.5972 94.494 41.1209 95.0178 41.7672 95.0178C51.8792 95.0178 109.873 96.3089 110.458 96.3215C110.467 96.322 110.476 96.322 110.485 96.322Z" fill="#E0E0E0"/>
<path d="M110.485 104.998C111.123 104.998 111.645 104.485 111.654 103.844C111.663 103.198 111.146 102.666 110.5 102.657C109.881 102.648 48.5251 101.788 41.7672 101.788C41.1209 101.788 40.5972 102.312 40.5972 102.958C40.5972 103.605 41.1209 104.129 41.7672 104.129C48.5092 104.129 109.849 104.99 110.468 104.998C110.473 104.998 110.479 104.998 110.485 104.998Z" fill="#E0E0E0"/>
<path d="M110.485 113.673C111.127 113.673 111.65 113.154 111.654 112.511C111.658 111.864 111.138 111.337 110.492 111.332C109.839 111.328 45.1461 110.897 41.7672 110.897C41.1209 110.897 40.5972 111.421 40.5972 112.068C40.5972 112.714 41.1209 113.238 41.7672 113.238C45.1382 113.238 109.823 113.668 110.476 113.673C110.479 113.673 110.482 113.673 110.485 113.673Z" fill="#E0E0E0"/>
<path d="M41.7672 122.348H110.484C111.13 122.348 111.654 121.824 111.654 121.178C111.654 120.531 111.13 120.007 110.484 120.007H41.7672C41.1209 120.007 40.5972 120.531 40.5972 121.178C40.5972 121.824 41.1209 122.348 41.7672 122.348Z" fill="#E0E0E0"/>
<path d="M124.537 55.9447L120.69 52.1998L116.843 55.9447V13.2764L124.537 11.8721V55.9447Z" fill="#E0E0E0"/>
<path d="M117 157.09C167.114 157.09 207.74 154.717 207.74 151.79C207.74 148.862 167.114 146.489 117 146.489C66.8856 146.489 26.2599 148.862 26.2599 151.79C26.2599 154.717 66.8856 157.09 117 157.09Z" fill="#F5F5F5"/>
<path opacity="0.2" d="M137.031 68.5854C137.031 68.5854 126.327 64.0021 114.831 68.5854" stroke="white" stroke-miterlimit="10"/>
<path d="M35.2942 150.093V63.0776C35.2942 49.0239 46.6844 37.6309 60.7347 37.6309C68.408 37.6309 75.2876 41.0289 79.9522 46.4024" stroke="#263238" stroke-width="3" stroke-miterlimit="10" stroke-linecap="round" stroke-linejoin="round"/>
<path d="M50.5023 151.627H30.1241L31.3559 148.294H49.2705L50.5023 151.627Z" fill="black"/>
<path opacity="0.2" d="M50.5023 151.627H30.1241L31.3559 148.294H49.2705L50.5023 151.627Z" fill="white"/>
<path opacity="0.2" d="M50.5022 151.627H37.5213L37.5204 148.294H49.2705L50.5022 151.627Z" fill="white"/>
<path d="M86.7353 49.41L74.8392 52.7767L74.6141 51.9804C73.7034 48.7603 75.5749 45.4114 78.7943 44.5004L79.032 44.433C82.2514 43.522 85.5995 45.394 86.5102 48.6142L86.7353 49.41Z" fill="#263238"/>
<path opacity="0.2" d="M86.5448 48.7323L86.7367 49.4106L74.8382 52.7777L74.6464 52.0994C73.7164 48.8118 75.6282 45.3969 78.9154 44.4668C79.3661 44.3395 79.8182 44.2669 80.2652 44.2426C81.4511 44.1756 82.6112 44.4593 83.6132 45.0196C84.9934 45.7873 86.0796 47.0887 86.5448 48.7323Z" fill="white"/>
<path opacity="0.2" d="M86.5448 48.7322L86.7367 49.4105L79.1336 51.562L78.9417 50.8837C78.1391 48.0469 78.7348 45.3192 80.2652 44.2421C81.4511 44.1751 82.6113 44.4588 83.6133 45.0191C84.9934 45.7873 86.0796 47.0887 86.5448 48.7322Z" fill="white"/>
<path d="M132.432 84.0112C132.074 83.7903 131.69 83.4855 131.386 83.0675C130.609 82.0058 130.349 76.9099 129.052 75.5683C128.821 75.3324 127.937 75.0229 126.635 74.6737C122.464 73.5582 114.008 72.035 109.135 71.1895C108.933 71.1554 108.737 71.1207 108.55 71.0866V67.4058C108.702 67.4498 108.865 67.4942 109.036 67.5434C113.385 68.7619 122.316 71.3126 127.229 72.9932C129.076 73.627 130.353 74.1382 130.609 74.4083C131.528 75.3913 132.766 81.0771 133.252 83.4453C133.346 83.9181 132.835 84.2668 132.432 84.0112Z" fill="#263238"/>
<path opacity="0.4" d="M127.229 72.9937L126.635 74.6743C122.464 73.5588 114.008 72.0355 109.135 71.1901L108.894 68.1679C108.884 68.0158 108.904 67.8632 108.953 67.7209C108.977 67.6568 109.007 67.5978 109.036 67.5439C113.385 68.7625 122.317 71.3132 127.229 72.9937Z" fill="white"/>
<path d="M108.552 67.4041C108.239 67.3165 107.95 67.2356 107.703 67.1663C107.543 67.1213 108.116 66.0615 108.116 66.0615L105.849 66.8723C105.567 66.9734 105.38 67.244 105.386 67.544L105.436 69.9843C105.443 70.32 105.686 70.6032 106.018 70.6589C106.551 70.7478 107.436 70.8967 108.552 71.0886V67.4041Z" fill="#263238"/>
<path opacity="0.1" d="M108.116 66.0615C108.116 66.0615 107.971 66.2764 107.378 66.4707C106.786 66.6649 105.767 67.0652 105.587 67.2159C105.408 67.3666 105.594 69.9043 105.587 70.1482C105.58 70.3921 107.757 70.6828 107.757 70.6828L107.702 67.1658L108.116 66.0615Z" fill="white"/>
<path opacity="0.1" d="M107.64 66.6167C107.64 66.6167 105.766 67.2159 105.717 67.3133C105.668 67.4106 105.717 68.2369 105.717 68.2369C105.717 68.2369 105.96 67.6213 106.203 67.7669C106.446 67.9124 106.316 68.3338 106.737 68.2369C107.158 68.1395 107.378 68.6418 107.378 68.6418C107.378 68.6418 107.279 66.957 107.64 66.6167Z" fill="white"/>
<path d="M186.651 74.4111C185.485 73.1655 161.903 66.653 161.903 66.653C161.903 66.653 159.469 65.9162 158.341 65.6602L157.976 70.4401H161.255C161.255 70.4401 183.801 74.2309 185.097 75.5697C186.392 76.908 186.651 82.0072 187.429 83.0675C187.71 83.4509 188.059 83.7425 188.39 83.9588C188.821 84.2406 189.378 83.8535 189.275 83.3488C188.776 80.9217 187.558 75.3787 186.651 74.4111Z" fill="#263238"/>
<path d="M130.696 69.0956C130.696 69.0956 130.847 71.0828 130.516 72.408C130.185 73.7328 129.241 73.9664 128.22 75.7958C127.2 77.6252 129.922 68.0194 130.696 69.0956Z" fill="#263238"/>
<path d="M138.336 68.9676C138.336 68.9676 139.289 70.973 139.494 72.3099C139.698 73.6468 138.848 73.8828 138.566 75.7286C138.285 77.5739 137.127 67.8811 138.336 68.9676Z" fill="#263238"/>
<path d="M159.936 66.6566C159.911 66.4558 159.838 66.2671 159.717 66.1417C159.6 66.0162 156.754 63.1401 148.662 63.1401C141.275 63.1401 137.17 65.9722 136.998 66.0916C136.967 66.1169 136.94 66.1543 136.914 66.1796C136.031 65.6272 133.883 64.6849 131.09 66.1983C131.062 66.1604 131.038 66.123 131.009 66.0916C130.863 65.9722 127.382 63.1401 120 63.1401C111.904 63.1401 108.424 66.0162 108.28 66.1417C108.13 66.2671 108.016 66.4558 107.947 66.6566C107.897 66.8134 107.879 66.9768 107.889 67.1402L108.698 77.9532C108.975 81.633 111.135 84.2011 113.957 84.2011H119.059C122.791 84.2011 126.415 80.9922 128.077 76.2076C128.077 76.2076 130.834 69.2874 130.94 69.2247C134.046 67.2783 136.25 69.1119 136.339 69.1933C136.48 69.3127 137.701 76.2076 137.701 76.2076C138.309 80.9927 141.226 84.2011 144.959 84.2011H150.061C152.883 84.2011 155.614 81.633 156.696 77.9532L159.887 67.1402C159.933 66.9768 159.951 66.8134 159.936 66.6566ZM138.208 67.6233C138.284 67.3972 138.426 67.209 138.614 67.1144C140.239 66.3107 143.614 65.0234 148.454 65.0234C153.738 65.0234 156.648 66.3041 157.93 67.0892C158.083 67.1832 158.185 67.3653 158.212 67.5854C158.233 67.73 158.221 67.8868 158.175 68.0436L155.387 77.4944C154.552 80.3265 152.441 82.317 150.268 82.317H145.166C142.06 82.317 139.61 79.6169 139.099 75.6421L138.147 68.1256C138.124 67.9561 138.148 67.7806 138.208 67.6233ZM109.461 67.5858C109.541 67.3663 109.678 67.1842 109.857 67.0896C111.312 66.3046 114.504 65.0238 119.793 65.0238C124.628 65.0238 127.719 66.3112 129.168 67.1149C129.335 67.209 129.441 67.3976 129.467 67.6237C129.492 67.7806 129.477 67.9566 129.416 68.126L126.804 75.6365C125.422 79.6178 122.373 82.3179 119.266 82.3179H114.165C111.992 82.3179 110.319 80.3275 110.108 77.4954L109.402 68.0446C109.391 67.8873 109.413 67.73 109.461 67.5858Z" fill="#263238"/>
<path d="M159.426 66.8177C159.401 66.6221 159.328 66.4386 159.206 66.3159C159.089 66.1937 156.234 63.3916 148.143 63.3916C140.756 63.3916 136.659 66.1507 136.487 66.2672C136.456 66.2916 136.429 66.3286 136.403 66.3529C135.518 65.8146 133.367 64.8971 130.579 66.3712C130.551 66.3346 130.527 66.2977 130.498 66.2672C130.352 66.1511 126.862 63.3916 119.48 63.3916C111.384 63.3916 107.913 66.1937 107.768 66.3159C107.619 66.4381 107.506 66.6216 107.437 66.8177C107.388 66.9708 107.37 67.1295 107.381 67.2887L108.22 77.8236C108.507 81.4084 110.675 83.911 113.496 83.911H118.598C122.331 83.911 125.946 80.7849 127.595 76.1229C127.595 76.1229 130.332 69.3811 130.437 69.3198C133.538 67.4235 135.747 69.2098 135.836 69.2894C135.977 69.4055 137.218 76.1229 137.218 76.1229C137.84 80.7849 140.766 83.911 144.499 83.911H149.601C152.423 83.911 155.146 81.4089 156.219 77.8236L159.379 67.2887C159.425 67.1295 159.442 66.9703 159.426 66.8177ZM137.701 67.7596C137.777 67.5391 137.919 67.3556 138.106 67.2639C139.729 66.4807 143.101 65.2266 147.941 65.2266C153.225 65.2266 156.138 66.4746 157.422 67.2395C157.576 67.3313 157.678 67.5087 157.706 67.7231C157.728 67.8635 157.715 68.0166 157.671 68.1697L154.909 77.377C154.082 80.1361 151.976 82.0755 149.803 82.0755H144.702C141.595 82.0755 139.138 79.4447 138.616 75.572L137.642 68.2488C137.619 68.084 137.642 67.9127 137.701 67.7596ZM108.955 67.7231C109.034 67.5087 109.17 67.3313 109.349 67.2395C110.802 66.4746 113.99 65.2266 119.278 65.2266C124.114 65.2266 127.208 66.4807 128.659 67.2639C128.827 67.3556 128.933 67.5391 128.96 67.7596C128.985 67.9127 128.971 68.084 128.911 68.2492L126.32 75.5664C124.949 79.4452 121.908 82.076 118.801 82.076H113.699C111.527 82.076 109.848 80.1366 109.629 77.3775L108.896 68.1701C108.885 68.0166 108.906 67.8635 108.955 67.7231Z" fill="#263238"/>
<path opacity="0.1" d="M130.852 68.6543C130.852 68.6543 131.192 67.2453 131.051 66.8511C130.909 66.457 132.214 65.9627 132.993 65.9378C133.772 65.9135 134.234 65.951 134.356 66.0516C134.478 66.1522 133.751 66.0226 133.266 66.4397C132.781 66.8568 133.299 67.1929 132.724 67.5725C132.15 67.9517 132.456 67.9985 132.31 68.1151C132.164 68.2316 130.852 68.6543 130.852 68.6543Z" fill="white"/>
<path opacity="0.1" d="M128.764 65.5003C128.764 65.5003 125.738 63.5684 119 63.5684C112.262 63.5684 108.513 66.0241 107.947 66.656C107.382 67.288 107.696 68.5585 108.103 73.388C108.511 78.2176 108.654 80.7623 110.78 82.3169C110.78 82.3169 109.241 79.8199 109.345 78.8739C109.449 77.9278 108.931 75.2839 108.755 72.1789C108.578 69.0739 108.197 67.2389 108.755 66.8845C109.312 66.5301 112.145 64.631 117.349 64.4376C122.553 64.2443 125.334 65.4684 125.879 65.2264C126.424 64.9849 127.785 65.5644 128.109 65.5644C128.433 65.5644 128.764 65.5003 128.764 65.5003Z" fill="white"/>
<g opacity="0.4">
<path d="M128.676 67.115C127.228 66.3112 124.137 65.0239 119.301 65.0239C114.013 65.0239 110.821 66.3047 109.365 67.0897C109.187 67.1838 109.05 67.3659 108.97 67.5859C108.921 67.7306 108.899 67.8874 108.91 68.0442L109.616 77.495C109.827 80.3271 111.5 82.3175 113.672 82.3175H118.774C121.881 82.3175 124.93 79.6174 126.312 75.6361L128.924 68.1257C128.985 67.9562 129 67.7802 128.975 67.6234C128.949 67.3977 128.843 67.2091 128.676 67.115Z" stroke="white" stroke-width="0.5" stroke-miterlimit="10"/>
<path d="M157.721 67.5859C157.693 67.3664 157.592 67.1843 157.439 67.0897C156.157 66.3047 153.247 65.0239 147.963 65.0239C143.123 65.0239 139.748 66.3112 138.123 67.115C137.935 67.2091 137.793 67.3977 137.716 67.6238C137.657 67.7807 137.633 67.9567 137.656 68.1261L138.608 75.6427C139.119 79.6174 141.568 82.3175 144.675 82.3175H149.777C151.949 82.3175 154.061 80.3271 154.896 77.495L157.684 68.0442C157.73 67.8874 157.742 67.7301 157.721 67.5859Z" stroke="white" stroke-width="0.5" stroke-miterlimit="10"/>
</g>
<path opacity="0.1" d="M136.652 66.5305C136.364 66.788 136.491 67.1101 136.513 67.786C136.536 68.462 136.339 69.1932 136.339 69.1932C136.339 69.1932 137.713 76.8974 137.937 77.5093C138.161 78.1211 138.286 77.8636 138.362 77.7667C138.437 77.6703 138.908 78.4108 138.908 78.4108C138.908 78.4108 138.113 76.0281 137.691 72.0038C137.269 67.9794 137.106 67.4069 137.375 67.0169C137.645 66.627 141.019 65.114 143.872 64.792C146.725 64.4699 150.318 64.5022 152.326 64.792C154.335 65.0817 154.407 64.4296 154.717 64.5626C155.026 64.6955 155.897 64.7278 155.897 64.7278C155.897 64.7278 150.416 63.0215 144.662 63.7939C138.909 64.5663 136.652 66.5305 136.652 66.5305Z" fill="white"/>
<path d="M145.38 67.8528C146.277 66.1779 145.231 66.8861 144.526 67.9797C143.821 69.0736 141.219 78.024 141.67 80.0847C141.67 80.0847 140.363 77.5798 139.782 76.93C139.567 76.6908 139.34 75.4503 139.146 73.9561C138.966 72.6037 138.813 71.0458 138.712 69.825C138.626 68.775 138.576 67.9792 138.588 67.784C138.612 67.115 142.384 65.6597 147.695 65.6597C147.695 65.6597 144.507 72.2568 143.618 75.0594C143.618 75.0604 144.484 69.5226 145.38 67.8528Z" fill="white"/>
<path opacity="0.2" d="M139.146 73.9563C138.966 72.6039 138.813 71.046 138.712 69.8252C139.003 70.5283 139.374 71.5343 139.494 72.3109C139.606 73.0383 139.404 73.4437 139.146 73.9563Z" fill="black"/>
<path opacity="0.1" d="M161.654 66.7222C161.654 66.7222 159.772 66.1525 158.729 65.8988L158.75 65.9372C157.666 65.1442 154.545 63.3911 148.143 63.3911C140.757 63.3911 136.659 66.1502 136.487 66.2667C136.457 66.2911 136.429 66.3281 136.403 66.3524C135.519 65.8141 133.368 64.8966 130.58 66.3707C130.551 66.3342 130.527 66.2972 130.498 66.2667C130.352 66.1507 126.863 63.3911 119.481 63.3911C111.384 63.3911 107.913 66.1933 107.769 66.3154C107.62 66.4376 107.506 66.6211 107.438 66.8173C107.388 66.9703 107.371 67.1295 107.381 67.2882L108.22 77.8231C108.507 81.4079 110.675 83.9105 113.497 83.9105H118.599C122.331 83.9105 125.946 80.7844 127.595 76.1224C127.595 76.1224 130.332 69.3807 130.437 69.3193C133.538 67.423 135.747 69.2093 135.836 69.2889C135.978 69.405 137.219 76.1224 137.219 76.1224C137.84 80.7844 140.766 83.9105 144.499 83.9105H149.601C152.423 83.9105 155.146 81.4084 156.219 77.8231L158.9 68.8821L158.728 70.0304H161.087C161.087 70.0304 161.398 69.9738 161.455 69.8038C161.511 69.6339 161.908 67.4539 161.908 67.1992C161.909 66.9455 161.654 66.7222 161.654 66.7222ZM128.911 68.2492L126.321 75.5663C124.95 79.4451 121.908 82.0759 118.801 82.0759H113.7C111.527 82.0759 109.848 80.1365 109.629 77.3775L108.897 68.1701C108.885 68.017 108.907 67.864 108.955 67.7235C109.035 67.5096 109.171 67.3322 109.349 67.2404C110.802 66.4755 113.99 65.2275 119.279 65.2275C124.114 65.2275 127.209 66.4816 128.66 67.2648C128.828 67.3565 128.933 67.54 128.961 67.7605C128.985 67.9126 128.971 68.084 128.911 68.2492ZM157.671 68.1696L154.909 77.377C154.082 80.1361 151.976 82.0755 149.804 82.0755H144.702C141.596 82.0755 139.138 79.4447 138.616 75.5724L137.643 68.2492C137.619 68.084 137.643 67.9126 137.701 67.7596C137.777 67.5391 137.919 67.3556 138.107 67.2638C139.73 66.4807 143.101 65.2266 147.941 65.2266C153.225 65.2266 156.138 66.4746 157.423 67.2395C157.576 67.3312 157.678 67.5087 157.706 67.7226C157.728 67.8635 157.715 68.0166 157.671 68.1696Z" fill="white"/>
<path opacity="0.1" d="M159.134 66.3091C159.457 66.4874 159.52 66.6007 159.432 67.1517C159.344 67.7027 159.134 68.6258 159.134 68.6258C159.134 68.6258 159.279 67.9938 159.83 68.0261C160.381 68.0584 161.352 67.9128 161.45 67.7832C161.547 67.6535 161.693 67.0936 161.612 67.0417C161.531 66.9897 160.202 66.5034 159.83 66.4065C159.457 66.3091 159.134 66.3091 159.134 66.3091Z" fill="white"/>
<path d="M119.192 65.6616C119.192 65.6616 118.082 67.5879 116.859 69.7848C116.387 70.6204 115.906 71.4948 115.459 72.3206C114.648 73.8096 113.965 75.1316 113.729 75.7359C113.764 75.5543 114.098 73.9571 114.535 72.1535C114.765 71.2097 115.026 70.2075 115.292 69.3279C115.498 68.6299 115.704 68.0111 115.901 67.5491C115.862 67.6029 115.527 68.0406 114.982 68.6548C114.918 68.7236 114.83 68.9005 114.712 69.1608C114.447 69.7553 114.054 70.7922 113.632 71.9863C112.511 75.1218 111.141 79.3283 111.141 79.3283C111.141 79.3283 110.62 78.9252 110.551 78.0751C110.551 78.0751 110.251 74.3058 110.035 71.3474C109.913 69.5587 109.815 68.0645 109.834 67.8828C109.839 67.8533 109.854 67.8192 109.883 67.7845C110.359 67.2045 114.127 65.7206 119.192 65.6616Z" fill="white"/>
<path opacity="0.2" d="M114.711 69.1609C114.446 69.7554 114.053 70.7923 113.631 71.9865C112.343 71.7557 111.125 71.5394 110.035 71.3475C109.912 69.5588 109.814 68.0646 109.833 67.883C109.838 67.8535 109.853 67.8193 109.883 67.7847C111.238 68.1629 112.913 68.6399 114.711 69.1609Z" fill="black"/>
<path opacity="0.2" d="M116.858 69.785C116.386 70.6206 115.905 71.495 115.458 72.3208C115.149 72.267 114.839 72.2075 114.534 72.1537C114.765 71.21 115.025 70.2077 115.291 69.3281C115.807 69.4751 116.327 69.6277 116.858 69.785Z" fill="black"/>
<path d="M109.781 124.025H137.974V111.794H109.781V124.025Z" fill="#009688"/>
<path opacity="0.8" d="M109.781 124.025H137.974V111.794H109.781V124.025Z" fill="white"/>
<path opacity="0.2" d="M135.712 112.989H109.781V111.793H135.685L135.712 112.989Z" fill="black"/>
<path opacity="0.2" d="M135.713 114.033L112.318 114.532L135.713 115.031V114.033Z" fill="black"/>
<path opacity="0.2" d="M135.713 118.556L110.939 118.974L135.713 119.326V118.556Z" fill="black"/>
<path opacity="0.2" d="M135.713 121.202L111.16 121.698L135.713 122.195V121.202Z" fill="black"/>
<path opacity="0.2" d="M109.781 115.775L133.533 116.493L109.781 116.99V115.775Z" fill="black"/>
<path d="M172.703 117.846C172.701 119.374 172.083 120.757 171.08 121.759C170.076 122.763 168.691 123.383 167.16 123.383H108.48C108.254 123.383 108.071 123.566 108.071 123.791V124.23C108.071 124.455 108.254 124.638 108.48 124.638H167.466C169.34 124.638 171.043 123.877 172.273 122.646C173.514 121.405 174.278 119.687 174.263 117.788C174.236 114.024 171.054 111.039 167.291 111.039H108.48C108.254 111.039 108.071 111.222 108.071 111.447V111.885C108.071 112.111 108.254 112.294 108.48 112.294H166.997C170.051 112.295 172.707 114.791 172.703 117.846Z" fill="#263238"/>
<path opacity="0.4" d="M172.703 117.846C172.701 119.374 172.083 120.757 171.08 121.759C170.076 122.763 168.691 123.383 167.16 123.383H108.48C108.254 123.383 108.071 123.566 108.071 123.791V124.23C108.071 124.455 108.254 124.638 108.48 124.638H167.466C169.34 124.638 171.043 123.877 172.273 122.646C173.514 121.405 174.278 119.687 174.263 117.788C174.236 114.024 171.054 111.039 167.291 111.039H108.48C108.254 111.039 108.071 111.222 108.071 111.447V111.885C108.071 112.111 108.254 112.294 108.48 112.294H166.997C170.051 112.295 172.707 114.791 172.703 117.846Z" fill="white"/>
<path d="M194.104 117.918C194.104 121.301 191.363 124.043 187.981 124.043H135.714V111.793H187.981C191.363 111.793 194.104 114.536 194.104 117.918Z" fill="#009688"/>
<path opacity="0.7" d="M135.712 111.793V124.045H187.983C189.275 124.045 190.472 123.643 191.459 122.961C193.057 121.857 194.103 120.007 194.103 117.919C194.103 114.534 191.363 111.793 187.983 111.793H135.712V111.793Z" fill="white"/>
<path opacity="0.2" d="M135.713 115.03V114.033L187.813 114.451L135.713 115.03Z" fill="black"/>
<path opacity="0.2" d="M135.713 119.325V118.555L159.102 119.392L135.713 119.325Z" fill="black"/>
<path opacity="0.2" d="M135.713 122.195V121.202L173.423 121.776L135.713 122.195Z" fill="black"/>
<path opacity="0.2" d="M188.067 112.989C189.092 112.989 190.054 113.378 190.79 114.036C190.493 114.621 190.212 115.295 190.02 116.023L137.754 116.433L189.899 116.563C189.823 116.977 189.773 117.404 189.773 117.839C189.773 118.354 189.84 118.86 189.949 119.35L154.746 120.12L190.28 120.53C190.619 121.492 191.075 122.341 191.46 122.961C193.058 121.856 194.103 120.007 194.103 117.919C194.103 114.534 191.363 111.793 187.983 111.793H135.712V112.989H188.067Z" fill="black"/>
<path d="M193.62 117.846C193.618 119.374 192.999 120.757 191.997 121.759C190.993 122.763 189.608 123.383 188.077 123.383H134.834C134.609 123.383 134.426 123.566 134.426 123.791V124.23C134.426 124.455 134.609 124.638 134.834 124.638H188.383C190.256 124.638 191.959 123.877 193.189 122.646C194.431 121.405 195.194 119.687 195.18 117.788C195.153 114.024 191.971 111.039 188.208 111.039H134.834C134.609 111.039 134.426 111.222 134.426 111.447V111.885C134.426 112.111 134.609 112.294 134.834 112.294H187.914C190.967 112.295 193.624 114.791 193.62 117.846Z" fill="#263238"/>
<path d="M187.813 116.291V121.202L186.035 119.424L184.313 121.147V116.291H187.813Z" fill="#263238"/>
<path d="M190.128 138.783H114.035V151.032H190.128V138.783Z" fill="#009688"/>
<path opacity="0.7" d="M190.128 138.783H114.035V151.032H190.128V138.783Z" fill="white"/>
<path opacity="0.2" d="M190.128 142.02V141.022L138.029 141.44L190.128 142.02Z" fill="black"/>
<path opacity="0.2" d="M190.128 146.314V145.544L166.74 146.381L190.128 146.314Z" fill="black"/>
<path opacity="0.2" d="M190.128 149.184V148.19L152.418 148.765L190.128 149.184Z" fill="black"/>
<path opacity="0.2" d="M131.047 138.783L129.943 147.915L131.245 146.525C131.847 149.099 133.64 151.032 133.64 151.032C133.64 151.032 134.85 149.528 135.56 147.519L171.097 147.11L135.895 146.341C136 145.849 136.067 145.342 136.067 144.828C136.067 144.393 136.02 143.967 135.942 143.554L188.088 143.423L135.821 143.013C135.631 142.284 135.35 141.611 135.053 141.027C135.786 140.367 136.75 139.981 137.777 139.981H190.128V138.783H131.047V138.783Z" fill="black"/>
<path d="M132.222 144.835C132.224 146.364 132.842 147.746 133.845 148.749C134.849 149.753 136.233 150.372 137.765 150.372H191.007C191.233 150.372 191.415 150.555 191.415 150.781V151.219C191.415 151.445 191.232 151.627 191.007 151.627H108.176C106.301 151.627 104.599 150.865 103.369 149.635C102.128 148.394 101.364 146.675 101.378 144.777C101.406 141.013 104.587 138.028 108.35 138.028H191.007C191.233 138.028 191.415 138.211 191.415 138.436V138.875C191.415 139.1 191.232 139.283 191.007 139.283H137.928C134.874 139.284 132.217 141.781 132.222 144.835Z" fill="#009688"/>
<path opacity="0.4" d="M132.222 144.835C132.224 146.364 132.842 147.746 133.845 148.749C134.849 149.753 136.233 150.372 137.765 150.372H191.007C191.233 150.372 191.415 150.555 191.415 150.781V151.219C191.415 151.445 191.232 151.627 191.007 151.627H108.176C106.301 151.627 104.599 150.865 103.369 149.635C102.128 148.394 101.364 146.675 101.378 144.777C101.406 141.013 104.587 138.028 108.35 138.028H191.007C191.233 138.028 191.415 138.211 191.415 138.436V138.875C191.415 139.1 191.232 139.283 191.007 139.283H137.928C134.874 139.284 132.217 141.781 132.222 144.835Z" fill="black"/>
<path d="M132.222 144.835C132.223 146.364 132.842 147.746 133.845 148.749C134.849 149.753 136.233 150.372 137.765 150.372H191.007C191.233 150.372 191.415 150.555 191.415 150.781V151.219C191.415 151.445 191.232 151.627 191.007 151.627H137.459C135.585 151.627 133.882 150.865 132.652 149.635C131.411 148.394 130.647 146.675 130.661 144.777C130.689 141.013 133.87 138.028 137.634 138.028H191.007C191.233 138.028 191.415 138.211 191.415 138.436V138.875C191.415 139.1 191.232 139.283 191.007 139.283H137.927C134.874 139.284 132.217 141.781 132.222 144.835Z" fill="#009688"/>
<path d="M138.029 143.28V148.191L139.806 146.413L141.528 148.136V143.28H138.029Z" fill="#263238"/>
<path opacity="0.1" d="M132.222 144.835C132.223 146.364 132.842 147.746 133.845 148.749C134.849 149.753 136.233 150.372 137.765 150.372H191.007C191.233 150.372 191.415 150.555 191.415 150.781V151.219C191.415 151.445 191.232 151.627 191.007 151.627H137.459C135.585 151.627 133.882 150.865 132.652 149.635C131.411 148.394 130.647 146.675 130.661 144.777C130.689 141.013 133.87 138.028 137.634 138.028H191.007C191.233 138.028 191.415 138.211 191.415 138.436V138.875C191.415 139.1 191.232 139.283 191.007 139.283H137.927C134.874 139.284 132.217 141.781 132.222 144.835Z" fill="white"/>
<path opacity="0.1" d="M128.2 149.637C129.432 150.864 131.133 151.627 133.01 151.627H130.75C128.877 151.627 127.176 150.865 125.944 149.637C124.704 148.396 123.941 146.676 123.954 144.776C123.982 141.012 127.163 138.028 130.926 138.028H133.182C129.419 138.028 126.238 141.012 126.211 144.776C126.197 146.676 126.959 148.396 128.2 149.637Z" fill="white"/>
<path opacity="0.1" d="M123.685 149.637C124.917 150.864 126.618 151.627 128.495 151.627H126.234C124.362 151.627 122.661 150.865 121.429 149.637C120.188 148.396 119.426 146.676 119.439 144.776C119.466 141.012 122.647 138.028 126.41 138.028H128.667C124.904 138.028 121.723 141.012 121.695 144.776C121.682 146.676 122.444 148.396 123.685 149.637Z" fill="white"/>
<path d="M196.092 125.288H119.999V137.538H196.092V125.288Z" fill="#009688"/>
<path opacity="0.8" d="M196.092 125.288H119.999V137.538H196.092V125.288Z" fill="white"/>
<path opacity="0.2" d="M196.092 128.525V127.527L143.992 127.945L196.092 128.525Z" fill="black"/>
<path opacity="0.2" d="M196.092 132.819V132.049L172.704 132.886L196.092 132.819Z" fill="black"/>
<path opacity="0.2" d="M196.092 135.689V134.696L158.382 135.271L196.092 135.689Z" fill="black"/>
<path opacity="0.2" d="M137.01 125.288L135.907 134.42L137.209 133.03C137.81 135.604 139.603 137.538 139.603 137.538C139.603 137.538 140.813 136.033 141.524 134.024L177.06 133.616L141.858 132.847C141.963 132.354 142.031 131.847 142.031 131.333C142.031 130.898 141.983 130.472 141.905 130.06L194.051 129.928L141.785 129.518C141.595 128.79 141.314 128.116 141.017 127.533C141.75 126.873 142.714 126.486 143.74 126.486H196.092V125.289H137.01V125.288Z" fill="black"/>
<path d="M138.185 131.34C138.187 132.868 138.806 134.251 139.808 135.254C140.812 136.258 142.197 136.877 143.728 136.877H196.971C197.196 136.877 197.379 137.06 197.379 137.286V137.724C197.379 137.949 197.196 138.132 196.971 138.132H118.323C116.449 138.132 114.746 137.371 113.517 136.141C112.275 134.899 111.512 133.181 111.526 131.282C111.553 127.518 114.735 124.533 118.498 124.533H196.971C197.197 124.533 197.38 124.716 197.38 124.941V125.38C197.38 125.605 197.197 125.788 196.971 125.788H143.891C140.838 125.789 138.181 128.286 138.185 131.34Z" fill="#263238"/>
<path opacity="0.4" d="M138.185 131.34C138.187 132.868 138.806 134.251 139.808 135.254C140.812 136.258 142.197 136.877 143.728 136.877H196.971C197.196 136.877 197.379 137.06 197.379 137.286V137.724C197.379 137.949 197.196 138.132 196.971 138.132H118.323C116.449 138.132 114.746 137.371 113.517 136.141C112.275 134.899 111.512 133.181 111.526 131.282C111.553 127.518 114.735 124.533 118.498 124.533H196.971C197.197 124.533 197.38 124.716 197.38 124.941V125.38C197.38 125.605 197.197 125.788 196.971 125.788H143.891C140.838 125.789 138.181 128.286 138.185 131.34Z" fill="white"/>
<path d="M138.185 131.34C138.187 132.868 138.806 134.251 139.808 135.254C140.812 136.258 142.197 136.877 143.728 136.877H196.971C197.196 136.877 197.379 137.06 197.379 137.286V137.724C197.379 137.949 197.196 138.132 196.971 138.132H143.423C141.548 138.132 139.846 137.371 138.616 136.141C137.375 134.899 136.611 133.181 136.625 131.282C136.653 127.518 139.834 124.533 143.597 124.533H196.971C197.196 124.533 197.379 124.716 197.379 124.941V125.38C197.379 125.605 197.196 125.788 196.971 125.788H143.891C140.838 125.789 138.181 128.286 138.185 131.34Z" fill="#263238"/>
<path d="M148.212 128.041V132.952L149.99 131.174L151.712 132.897V128.041H148.212Z" fill="#009688"/>
<path opacity="0.6" d="M138.185 131.34C138.187 132.868 138.806 134.251 139.808 135.254C140.812 136.258 142.197 136.877 143.728 136.877H196.971C197.196 136.877 197.379 137.06 197.379 137.286V137.724C197.379 137.949 197.196 138.132 196.971 138.132H143.423C141.548 138.132 139.846 137.371 138.616 136.141C137.375 134.899 136.611 133.181 136.625 131.282C136.653 127.518 139.834 124.533 143.597 124.533H196.971C197.196 124.533 197.379 124.716 197.379 124.941V125.38C197.379 125.605 197.196 125.788 196.971 125.788H143.891C140.838 125.789 138.181 128.286 138.185 131.34Z" fill="white"/>
<path opacity="0.2" d="M134.159 128.139C130.668 128.139 127.177 128.139 123.686 128.139C121.384 128.139 119.083 128.139 116.78 128.139C114.911 129.655 114.911 132.687 116.78 134.204C119.083 134.204 121.384 134.204 123.686 134.204C127.177 134.204 130.668 134.204 134.159 134.204C133.033 132.687 133.033 129.655 134.159 128.139Z" fill="black"/>
<path d="M189.287 84.8037H161.094V97.0351H189.287V84.8037Z" fill="#009688"/>
<path opacity="0.7" d="M189.287 84.8037H161.094V97.0351H189.287V84.8037Z" fill="white"/>
<path opacity="0.2" d="M163.355 86.0007H189.288V84.8037H163.383L163.355 86.0007Z" fill="black"/>
<path opacity="0.2" d="M163.355 87.0439L186.75 87.543L163.355 88.042V87.0439Z" fill="black"/>
<path opacity="0.2" d="M163.355 91.5664L188.129 91.9849L163.355 92.3365V91.5664Z" fill="black"/>
<path opacity="0.2" d="M163.355 94.2129L187.908 94.7096L163.355 95.2062V94.2129Z" fill="black"/>
<path opacity="0.2" d="M189.288 88.7866L165.534 89.5038L189.288 90.0005V88.7866Z" fill="black"/>
<path d="M126.365 90.8567C126.366 92.3855 126.985 93.7674 127.988 94.7701C128.991 95.7742 130.376 96.3935 131.908 96.3935H190.589C190.814 96.3935 190.997 96.5766 190.997 96.8017V97.2404C190.997 97.466 190.814 97.649 190.589 97.649H131.602C129.728 97.649 128.026 96.8874 126.796 95.6572C125.554 94.4158 124.791 92.6973 124.805 90.7986C124.832 87.0345 128.014 84.0498 131.777 84.0498H190.589C190.815 84.0498 190.998 84.2328 190.998 84.4585V84.8966C190.998 85.1223 190.815 85.3048 190.589 85.3048H132.071C129.017 85.3053 126.361 87.8027 126.365 90.8567Z" fill="#009688"/>
<path opacity="0.4" d="M126.365 90.8567C126.366 92.3855 126.985 93.7674 127.988 94.7701C128.991 95.7742 130.376 96.3935 131.908 96.3935H190.589C190.814 96.3935 190.997 96.5766 190.997 96.8017V97.2404C190.997 97.466 190.814 97.649 190.589 97.649H131.602C129.728 97.649 128.026 96.8874 126.796 95.6572C125.554 94.4158 124.791 92.6973 124.805 90.7986C124.832 87.0345 128.014 84.0498 131.777 84.0498H190.589C190.815 84.0498 190.998 84.2328 190.998 84.4585V84.8966C190.998 85.1223 190.815 85.3048 190.589 85.3048H132.071C129.017 85.3053 126.361 87.8027 126.365 90.8567Z" fill="white"/>
<path d="M104.964 90.929C104.964 94.3116 107.706 97.0538 111.087 97.0538H163.355V84.8042H111.087C107.705 84.8042 104.964 87.5464 104.964 90.929Z" fill="#009688"/>
<path opacity="0.5" d="M163.356 84.8037V97.0552H111.085C109.793 97.0552 108.596 96.6536 107.609 95.9715C106.011 94.8668 104.965 93.0173 104.965 90.9295C104.965 87.5445 107.705 84.8037 111.085 84.8037H163.356Z" fill="white"/>
<path opacity="0.2" d="M163.355 88.0415V87.0435L111.255 87.462L163.355 88.0415Z" fill="black"/>
<path opacity="0.2" d="M163.355 92.336V91.5659L139.966 92.4029L163.355 92.336Z" fill="black"/>
<path opacity="0.2" d="M163.355 95.2057V94.2124L125.645 94.7872L163.355 95.2057Z" fill="black"/>
<path opacity="0.2" d="M111.001 86.0007C109.976 86.0007 109.014 86.3897 108.278 87.0469C108.575 87.6326 108.855 88.3066 109.048 89.0346L161.314 89.4446L109.169 89.5743C109.245 89.9886 109.295 90.4155 109.295 90.8504C109.295 91.3653 109.228 91.8713 109.119 92.361L144.322 93.131L108.789 93.5411C108.45 94.5036 107.994 95.3527 107.609 95.972C106.011 94.8673 104.965 93.0178 104.965 90.93C104.965 87.545 107.705 84.8042 111.085 84.8042H163.355V86.0007H111.001Z" fill="black"/>
<path d="M105.448 90.8567C105.45 92.3855 106.069 93.7674 107.071 94.7701C108.075 95.7742 109.46 96.3935 110.991 96.3935H164.234C164.46 96.3935 164.643 96.5766 164.643 96.8017V97.2404C164.643 97.466 164.46 97.649 164.234 97.649H110.686C108.811 97.649 107.109 96.8874 105.879 95.6572C104.638 94.4158 103.874 92.6973 103.888 90.7986C103.916 87.0345 107.097 84.0498 110.86 84.0498H164.234C164.459 84.0498 164.642 84.2328 164.642 84.4585V84.8966C164.642 85.1223 164.459 85.3048 164.234 85.3048H111.154C108.1 85.3053 105.444 87.8027 105.448 90.8567Z" fill="#009688"/>
<path d="M111.255 89.3018V94.2128L113.033 92.4349L114.754 94.1575V89.3018H111.255Z" fill="#263238"/>
<path d="M202.678 98.2988H126.585V110.548H202.678V98.2988Z" fill="#009688"/>
<path opacity="0.7" d="M202.678 98.2988H126.585V110.548H202.678V98.2988Z" fill="white"/>
<path opacity="0.2" d="M202.678 101.536V100.538L150.578 100.956L202.678 101.536Z" fill="black"/>
<path opacity="0.2" d="M202.678 105.831V105.061L179.289 105.897L202.678 105.831Z" fill="black"/>
<path opacity="0.2" d="M202.678 108.7V107.707L164.968 108.281L202.678 108.7Z" fill="black"/>
<path opacity="0.2" d="M143.596 98.2988L142.493 107.431L143.795 106.041C144.397 108.615 146.19 110.548 146.19 110.548C146.19 110.548 147.399 109.044 148.11 107.035L183.646 106.627L148.444 105.857C148.55 105.365 148.617 104.858 148.617 104.344C148.617 103.909 148.569 103.483 148.492 103.07L200.638 102.939L148.371 102.529C148.181 101.8 147.9 101.127 147.603 100.543C148.336 99.8834 149.3 99.4972 150.327 99.4972H202.678V98.2993H143.596V98.2988Z" fill="black"/>
<path d="M144.772 104.351C144.773 105.88 145.392 107.262 146.395 108.264C147.398 109.268 148.783 109.888 150.315 109.888H203.558C203.783 109.888 203.966 110.071 203.966 110.296V110.735C203.966 110.96 203.783 111.143 203.558 111.143H120.726C118.852 111.143 117.149 110.382 115.919 109.151C114.678 107.91 113.914 106.191 113.928 104.293C113.956 100.529 117.137 97.5439 120.9 97.5439H203.557C203.783 97.5439 203.966 97.727 203.966 97.9526V98.3908C203.966 98.6164 203.783 98.799 203.557 98.799H150.477C147.424 98.7994 144.767 101.297 144.772 104.351Z" fill="#263238"/>
<path opacity="0.2" d="M144.772 104.351C144.773 105.88 145.392 107.262 146.395 108.264C147.398 109.268 148.783 109.888 150.315 109.888H203.558C203.783 109.888 203.966 110.071 203.966 110.296V110.735C203.966 110.96 203.783 111.143 203.558 111.143H120.726C118.852 111.143 117.149 110.382 115.919 109.151C114.678 107.91 113.914 106.191 113.928 104.293C113.956 100.529 117.137 97.5439 120.9 97.5439H203.557C203.783 97.5439 203.966 97.727 203.966 97.9526V98.3908C203.966 98.6164 203.783 98.799 203.557 98.799H150.477C147.424 98.7994 144.767 101.297 144.772 104.351Z" fill="white"/>
<path d="M144.772 104.351C144.773 105.88 145.392 107.262 146.395 108.264C147.398 109.268 148.783 109.888 150.315 109.888H203.558C203.783 109.888 203.966 110.071 203.966 110.296V110.735C203.966 110.96 203.783 111.143 203.558 111.143H150.009C148.135 111.143 146.432 110.382 145.202 109.151C143.961 107.91 143.197 106.191 143.211 104.293C143.239 100.529 146.42 97.5439 150.184 97.5439H203.557C203.783 97.5439 203.966 97.727 203.966 97.9526V98.3908C203.966 98.6164 203.783 98.799 203.557 98.799H150.477C147.424 98.7994 144.767 101.297 144.772 104.351Z" fill="#263238"/>
<path d="M150.578 102.796V107.707L152.356 105.929L154.078 107.652V102.796H150.578Z" fill="#009688"/>
<path opacity="0.4" d="M144.772 104.351C144.773 105.88 145.392 107.262 146.395 108.264C147.398 109.268 148.783 109.888 150.315 109.888H203.558C203.783 109.888 203.966 110.071 203.966 110.296V110.735C203.966 110.96 203.783 111.143 203.558 111.143H150.009C148.135 111.143 146.432 110.382 145.202 109.151C143.961 107.91 143.197 106.191 143.211 104.293C143.239 100.529 146.42 97.5439 150.184 97.5439H203.557C203.783 97.5439 203.966 97.727 203.966 97.9526V98.3908C203.966 98.6164 203.783 98.799 203.557 98.799H150.477C147.424 98.7994 144.767 101.297 144.772 104.351Z" fill="white"/>
<path opacity="0.2" d="M124.947 109.152C126.178 110.38 127.88 111.143 129.757 111.143H125.24C123.368 111.143 121.662 110.38 120.435 109.152C119.194 107.911 118.431 106.191 118.445 104.291C118.472 100.527 121.653 97.5439 125.416 97.5439H129.928C126.165 97.5439 122.984 100.527 122.957 104.291C122.944 106.191 123.706 107.911 124.947 109.152Z" fill="white"/>
<path d="M58.546 58.248H67.7103C69.2688 58.248 70.5324 59.512 70.5324 61.0708V69.0484C70.5324 70.6072 69.2688 71.8711 67.7103 71.8711H67.2924L67.7295 74.0479L65.3947 71.8711H58.5464C56.988 71.8711 55.7249 70.6072 55.7249 69.0484V61.0708C55.7239 59.5115 56.9875 58.248 58.546 58.248Z" fill="#009688"/>
<path d="M67.6767 65.0247C67.6767 67.5376 65.6404 69.5743 63.1282 69.5743C60.616 69.5743 58.5797 67.5376 58.5797 65.0247C58.5797 62.5123 60.616 60.4751 63.1282 60.4751C65.6404 60.4751 67.6767 62.5123 67.6767 65.0247Z" fill="white"/>
<path d="M62.6508 67.057C62.5282 67.057 62.4117 67.0032 62.3321 66.9096L60.5476 64.8063C60.3983 64.6303 60.4199 64.3668 60.5958 64.217C60.7718 64.0681 61.0353 64.0887 61.1851 64.2652L62.6508 65.9925L65.0713 63.1399C65.2211 62.9634 65.485 62.9423 65.6605 63.0916C65.8365 63.241 65.858 63.505 65.7087 63.681L62.9695 66.9091C62.89 67.0032 62.7734 67.057 62.6508 67.057Z" fill="#009688"/>
<path d="M112.479 149.086H94.053C92.2343 149.086 90.7596 147.611 90.7596 145.792V115.052C90.7596 113.233 92.2338 111.758 94.053 111.758H112.479C114.297 111.758 115.772 113.233 115.772 115.052V145.792C115.772 147.611 114.298 149.086 112.479 149.086Z" fill="#009688"/>
<path opacity="0.5" d="M112.479 149.086H94.053C92.2343 149.086 90.7596 147.611 90.7596 145.792V115.052C90.7596 113.233 92.2338 111.758 94.053 111.758H112.479C114.297 111.758 115.772 113.233 115.772 115.052V145.792C115.772 147.611 114.298 149.086 112.479 149.086Z" fill="white"/>
<path opacity="0.1" d="M110.638 149.086H93.9341C92.1791 149.086 90.7578 147.664 90.7578 145.908V114.933C90.7578 113.178 92.1791 111.756 93.9341 111.756H110.638C108.888 111.756 107.466 113.178 107.466 114.933V145.908C107.466 147.664 108.888 149.086 110.638 149.086Z" fill="black"/>
<path d="M58.4871 151.627H111.929V148.117H58.4871V151.627Z" fill="#263238"/>
<path opacity="0.2" d="M58.4871 151.627H111.929V148.117H58.4871V151.627Z" fill="white"/>
<path opacity="0.2" d="M81.629 151.627H111.929V148.117H81.629V151.627Z" fill="white"/>
<path d="M95.6751 128.139H56.2363L50.2262 97.094C49.5691 93.7002 52.1684 90.5488 55.6246 90.5488H83.8623C86.4962 90.5488 88.7599 92.4166 89.2607 95.003L95.6751 128.139Z" fill="#009688"/>
<path opacity="0.6" d="M95.6751 128.139H56.2363L50.2262 97.094C49.5691 93.7002 52.1684 90.5488 55.6246 90.5488H83.8623C86.4962 90.5488 88.7599 92.4166 89.2607 95.003L95.6751 128.139Z" fill="white"/>
<path opacity="0.1" d="M67.4374 128.139H56.2363L50.2262 97.094C49.5691 93.7002 52.1684 90.5488 55.6246 90.5488C58.2585 90.5488 60.5222 92.4166 61.023 95.003L67.4374 128.139Z" fill="black"/>
<path d="M116.153 146.314C116.153 147.845 114.913 149.085 113.383 149.085H57.5125C55.9821 149.085 54.7419 147.844 54.7419 146.314V130.53C54.7419 128.999 55.9821 127.759 57.5125 127.759H113.382C114.913 127.759 116.153 129 116.153 130.53L116.153 146.314Z" fill="#009688"/>
<path opacity="0.6" d="M116.153 146.314C116.153 147.845 114.913 149.085 113.383 149.085H57.5125C55.9821 149.085 54.7419 147.844 54.7419 146.314V130.53C54.7419 128.999 55.9821 127.759 57.5125 127.759H113.382C114.913 127.759 116.153 129 116.153 130.53L116.153 146.314Z" fill="white"/>
<path opacity="0.1" d="M84.1932 146.314C84.1932 147.845 82.9525 149.085 81.4226 149.085H57.5125C55.9821 149.085 54.7419 147.844 54.7419 146.314V130.53C54.7419 128.999 55.9821 127.759 57.5125 127.759H81.4226C82.953 127.759 84.1932 129 84.1932 130.53V146.314Z" fill="black"/>
<path d="M87.3485 84.4496C88.1029 84.6293 88.6682 84.869 89.1395 85.0956C89.6122 85.3259 90.0025 85.5623 90.3549 85.7865C91.0583 86.234 91.6157 86.6759 92.1431 87.0874C93.1769 87.9211 94.061 88.6818 94.8753 89.3456C95.6845 89.9981 96.452 90.5322 96.9607 90.8005C97.2125 90.9376 97.3763 90.9812 97.4105 91.0266C97.4521 91.0636 97.3735 91.1179 97.3964 91.1591L95.8263 92.4366C95.5052 92.8972 95.421 93.4112 95.4266 93.6307C95.4285 93.8732 95.4809 93.9312 95.4982 93.8971C95.5399 93.8231 95.479 93.4814 95.3545 93.1209C95.1004 92.379 94.6778 91.4619 94.1873 90.5706C93.7072 89.662 93.1624 88.7394 92.6055 87.8069C92.0561 86.8772 91.4514 85.9227 90.9146 84.9968L90.8594 84.9013C90.2515 83.8532 90.6085 82.5106 91.6564 81.9025C92.4061 81.4677 93.308 81.5285 93.9824 81.9807C95.0157 82.6773 95.9236 83.4005 96.8423 84.1869C97.7507 84.972 98.623 85.8094 99.472 86.7265C99.8951 87.1866 100.302 87.6749 100.708 88.1935C101.114 88.7155 101.513 89.2688 101.884 89.9176C102.255 90.5702 102.629 91.2803 102.912 92.3111C103.048 92.8284 103.161 93.4538 103.119 94.2594C103.088 95.0421 102.823 96.1117 102.177 97.0349C101.819 97.5456 101.354 97.9374 100.833 98.2L100.607 98.3133C99.5183 98.8577 98.207 99.1292 97.0318 99.1049C95.8473 99.0932 94.8154 98.8235 93.9351 98.516C92.174 97.8807 90.895 97.0465 89.7488 96.2531C88.6055 95.4643 87.6236 94.6545 86.7405 93.9832C86.3086 93.6443 85.8934 93.3489 85.5766 93.1298C85.4189 93.0212 85.2846 92.9454 85.2134 92.9009C85.1414 92.8513 85.139 92.8602 85.3024 92.8911C82.9717 92.3261 81.5406 89.978 82.1059 87.6468C82.6708 85.316 85.0178 83.8845 87.3485 84.4496Z" fill="#263238"/>
<path opacity="0.2" d="M94.5813 95.5171C94.0576 95.4722 93.5662 95.3996 93.0786 95.3186C92.5418 95.2283 92.0228 95.1244 91.5084 95.0115C91.003 94.894 90.5069 94.7634 90.0151 94.6324C89.0313 94.3707 88.0836 94.05 87.1453 93.7163C87.1181 93.7074 87.091 93.698 87.0638 93.6844C87.6685 92.6101 88.4402 91.7619 89.2569 91.3916C89.2569 91.3916 92.1267 92.2632 94.5813 95.5171Z" fill="black"/>
<path d="M112.649 142.412L118.374 142.83L118.197 149.603L113.414 149.262L112.649 142.412Z" fill="#E4897B"/>
<path opacity="0.2" d="M112.651 142.415L118.378 142.833L118.277 146.626L113.078 146.25L112.651 142.415Z" fill="black"/>
<path d="M112.733 151.626L113.981 151.624L114.318 151.117L114.974 151.627L122.503 151.613C122.649 150.864 122.178 149.888 122.178 149.888C122.178 149.888 119.926 149.688 119.058 148.567C118.991 148.48 118.887 148.434 118.779 148.456C118.03 148.615 115.053 149.184 113.412 148.597C113.234 148.533 113.047 148.654 113.044 148.843C113.028 150.14 112.733 151.626 112.733 151.626Z" fill="#263238"/>
<path d="M81.2738 113.131C81.2738 113.131 72.7492 129.03 82.8608 129.03C95.5853 129.03 107.699 125.826 107.699 125.826C107.699 125.826 107.007 132.612 111.924 145.488L118.797 145.432C118.797 145.432 121.474 117.774 116.346 113.132C112.217 109.394 97.5574 110.593 97.5574 110.593L81.2738 113.131Z" fill="#009688"/>
<path opacity="0.2" d="M109.211 135.02C109.125 135.354 109.039 135.684 108.949 136.004C107.347 129.302 107.699 125.827 107.699 125.827C107.699 125.827 95.5838 129.031 82.8593 129.031C76.7093 129.031 77.4539 123.15 78.9833 118.542C83.3198 115.789 87.895 113.293 91.157 111.592L97.5555 110.594C97.5555 110.594 100.19 110.377 103.543 110.414C108.502 112.63 113.267 118.732 109.211 135.02Z" fill="black"/>
<path d="M97.1769 110.816C89.7816 114.905 70.9001 113.766 67.5338 113.193C67.114 107.624 66.6156 98.7202 64.8423 92.1399C64.0392 89.1566 65.8574 86.0787 68.8807 85.4421C73.7268 84.4267 80.0256 83.9436 84.7772 84.115C86.645 84.1829 88.6532 85.09 89.2532 86.8637C92.006 95.0328 96.3738 101.672 97.1769 110.816Z" fill="#263238"/>
<path d="M80.1516 88.3818C77.0473 88.5396 74.3535 85.8952 72.9004 84.9786C74.4705 83.8818 75.2198 81.9138 75.531 80.8217C75.6663 80.3386 75.7206 80.0273 75.7206 80.0273L80.9907 82.3745C80.6795 83.1866 80.6434 83.8729 80.8325 84.4866C81.5092 84.7305 82.1097 85.4884 82.2899 85.985C82.2945 85.9986 82.2988 86.0169 82.3081 86.03C82.6961 87.1001 83.2104 88.224 80.1516 88.3818Z" fill="#E4897B"/>
<path opacity="0.2" d="M82.3081 86.0305C79.1669 87.3281 76.0935 83.535 75.531 80.8222C75.6663 80.3391 75.7205 80.0278 75.7205 80.0278L80.9907 82.375C80.6795 83.1871 80.6434 83.8734 80.8325 84.4871C81.5092 84.731 82.1097 85.4889 82.2899 85.9855C82.2945 85.9991 82.2992 86.0169 82.3081 86.0305Z" fill="black"/>
<path d="M80.3373 88.3692L79.1673 87.3281L77.3608 88.2325C77.3608 88.2325 78.353 89.2418 80.3373 88.3692Z" fill="#009688"/>
<path opacity="0.5" d="M80.3373 88.3692L79.1673 87.3281L77.3608 88.2325C77.3608 88.2325 78.353 89.2418 80.3373 88.3692Z" fill="white"/>
<path d="M73.6496 84.2027C73.6496 84.2027 75.8735 87.2427 79.1669 87.3279C77.1474 88.2875 76.6032 90.4675 76.6032 90.4675C76.6032 90.4675 72.6036 89.2949 72.2709 84.8988C72.8343 84.1793 73.6496 84.2027 73.6496 84.2027Z" fill="#009688"/>
<path d="M80.3373 88.3692L81.9182 87.0332L83.7078 87.5425C83.7078 87.5425 82.1531 89.157 80.3373 88.3692Z" fill="#009688"/>
<path opacity="0.5" d="M80.3373 88.3692L81.9182 87.0332L83.7078 87.5425C83.7078 87.5425 82.1531 89.157 80.3373 88.3692Z" fill="white"/>
<path d="M80.8306 84.4854C80.8306 84.4854 81.9664 85.9548 81.9177 87.0333C83.4214 87.4392 83.9353 89.7011 83.9353 89.7011C83.9353 89.7011 84.5479 86.436 82.2973 84.733C81.7474 84.3557 80.8306 84.4854 80.8306 84.4854Z" fill="#009688"/>
<path opacity="0.8" d="M73.6496 84.2027C73.6496 84.2027 75.8735 87.2427 79.1669 87.3279C77.1474 88.2875 76.6032 90.4675 76.6032 90.4675C76.6032 90.4675 72.6036 89.2949 72.2709 84.8988C72.8343 84.1793 73.6496 84.2027 73.6496 84.2027Z" fill="white"/>
<path opacity="0.8" d="M80.8306 84.4854C80.8306 84.4854 81.9664 85.9548 81.9177 87.0333C83.4214 87.4392 83.9353 89.7011 83.9353 89.7011C83.9353 89.7011 84.5479 86.436 82.2973 84.733C81.7474 84.3557 80.8306 84.4854 80.8306 84.4854Z" fill="white"/>
<path d="M101.678 142.954L107.388 142.362L108.399 149.062L103.63 149.563L101.678 142.954Z" fill="#E4897B"/>
<path opacity="0.2" d="M101.68 142.956L107.392 142.364L107.957 146.116L102.772 146.658L101.68 142.956Z" fill="black"/>
<path d="M102.8 151.626L104.048 151.624L104.385 151.117L105.041 151.627L112.57 151.613C112.716 150.864 112.246 149.888 112.246 149.888C112.246 149.888 109.994 149.688 109.126 148.567C109.059 148.48 108.955 148.434 108.847 148.456C108.098 148.615 105.121 149.184 103.48 148.597C103.302 148.533 103.115 148.654 103.112 148.843C103.094 150.14 102.8 151.626 102.8 151.626Z" fill="#263238"/>
<path d="M67.729 113.131C67.729 113.131 64.168 124.885 73.7474 128.123C83.3269 131.361 92.7922 125.648 92.7922 125.648C92.7922 125.648 92.7922 128.123 101.325 146.31L108.4 144.977C108.4 144.977 105.905 117.756 102.801 113.131C99.6971 108.507 84.0126 110.593 84.0126 110.593L67.729 113.131Z" fill="#009688"/>
<path d="M92.8845 81.3727L91.3115 83.2082C89.0829 84.4262 88.013 81.2894 88.013 81.2894L86.3545 79.4324C85.9735 78.9914 86.0128 78.2906 86.4466 77.7766L87.5366 76.4851C88.0332 75.8962 88.8629 75.7633 89.3759 76.1902L91.0635 77.7059C91.399 77.9849 91.6597 78.3431 91.8235 78.7475L92.8845 81.3727Z" fill="#E4897B"/>
<path opacity="0.2" d="M80.9148 102.202C80.9148 102.202 76.583 111.038 67.5328 113.195C67.172 108.374 66.7635 100.599 65.491 94.8178C67.2914 93.7345 72.2704 92.5713 72.2704 92.5713C72.2704 92.5713 72.1703 95.592 73.6159 98.8515C73.6159 98.8515 76.9214 97.4448 81.1432 96.9608C82.4635 96.8087 80.9148 102.202 80.9148 102.202Z" fill="black"/>
<path d="M71.8048 93.0698C72.0692 92.8606 72.225 92.6724 72.305 92.5769C72.3963 92.4627 72.4347 92.4041 72.4637 92.362C72.518 92.2773 72.5119 92.2895 72.5025 92.3255C72.4777 92.3967 72.4089 92.5862 72.3523 92.7931C72.2362 93.2187 72.108 93.7486 72.0168 94.2921C71.8165 95.3856 71.7079 96.5582 71.6611 97.6803C71.6428 98.2411 71.6475 98.7939 71.6821 99.3145C71.7055 99.8369 71.7608 100.33 71.8398 100.752C71.9133 101.174 72.0322 101.519 72.0926 101.709C72.1604 101.908 72.1483 101.883 71.9634 101.824L73.1971 102.946C73.0253 102.712 72.7777 102.478 72.4773 102.284C72.1904 102.093 71.8525 101.976 71.6124 101.923C71.0915 101.823 70.8898 101.9 70.8182 101.934C70.704 102.018 71.0209 101.985 71.3297 101.877C71.991 101.656 72.861 101.247 73.6973 100.777C74.5538 100.316 75.4261 99.7919 76.3097 99.2583C77.191 98.7321 78.0965 98.1535 78.9797 97.6433L79.0761 97.5876C80.1277 96.98 81.4722 97.3404 82.0797 98.3923C82.5051 99.1291 82.4536 100.011 82.0249 100.682C81.3833 101.679 80.7141 102.557 79.9854 103.447C79.2576 104.327 78.4789 105.173 77.6225 106.001C77.1924 106.414 76.7342 106.812 76.2437 107.213C75.7495 107.612 75.2244 108.007 74.5893 108.379C73.9407 108.747 73.2598 109.14 72.0865 109.409C71.4884 109.527 70.7386 109.637 69.6969 109.4C69.1938 109.289 68.6121 109.051 68.101 108.716C67.5759 108.373 67.1458 107.939 66.8107 107.493L68.0439 108.615C66.6577 107.858 65.7114 106.749 65.0918 105.753C64.46 104.743 64.1062 103.774 63.8268 102.861C63.2848 101.031 63.1112 99.3547 63.0602 97.7084C63.0101 96.0639 63.1234 94.4685 63.3798 92.8339C63.5197 92.0137 63.6803 91.188 63.9583 90.2873C64.1005 89.8319 64.2536 89.3647 64.5077 88.8029C64.6369 88.5221 64.7829 88.2225 65.0173 87.8428C65.1357 87.6532 65.2696 87.4501 65.4685 87.2001C65.6529 86.9665 65.9304 86.6547 66.3249 86.3313C68.1852 84.8174 70.9198 85.0987 72.4333 86.959C73.9459 88.8202 73.6651 91.5559 71.8048 93.0698Z" fill="#263238"/>
<path d="M90.4161 84.7896L89.489 83.7429C91.4073 82.7453 93.1329 80.8916 93.1329 80.8916L94.8177 81.3288C94.8177 81.3288 93.2887 84.5583 90.4161 84.7896Z" fill="#009688"/>
<path opacity="0.5" d="M90.4161 84.7896L89.489 83.7429C91.4073 82.7453 93.1329 80.8916 93.1329 80.8916L94.8177 81.3288C94.8177 81.3288 93.2887 84.5583 90.4161 84.7896Z" fill="white"/>
<path opacity="0.9" d="M102.067 85.4741L100.709 89.6399L95.911 98.117C95.911 98.117 84.2414 99.7573 83.9779 96.319C83.7416 93.2388 84.5358 88.2271 84.7024 87.2174C84.7206 87.099 84.7328 87.0353 84.7328 87.0353C91.2586 87.6719 95.42 90.1033 95.42 90.1033C97.4446 86.8476 102.067 85.4741 102.067 85.4741Z" fill="white"/>
<path opacity="0.1" d="M102.067 85.4741L100.709 89.6399L95.911 98.117C95.911 98.117 84.2414 99.7573 83.9779 96.319C83.7416 93.2388 84.5358 88.2271 84.7024 87.2174C89.461 87.6541 95.4233 90.5433 95.4233 90.5433C96.0748 88.4663 102.067 85.4741 102.067 85.4741Z" fill="black"/>
<path d="M100.588 99.244C100.588 99.244 98.4269 100.25 94.7503 103.131C94.5383 103.301 94.2959 103.422 94.038 103.495C93.6987 103.598 93.3318 103.61 92.9771 103.528C91.1402 103.097 87.033 102.206 83.4112 101.927C83.4112 101.927 82.9989 93.9745 83.8506 88.0505C83.8506 88.0505 90.3825 88.6173 95.4201 90.5455L95.4233 90.5422C95.5689 90.4238 100.212 86.6676 103.168 86.1611C103.167 86.1621 99.4486 93.8172 100.588 99.244Z" fill="#009688"/>
<path opacity="0.1" d="M100.588 99.2441C100.588 99.2441 98.427 100.25 94.7504 103.131C94.5384 103.301 94.296 103.422 94.0381 103.495C94.2534 100.263 94.8594 91.8918 95.4201 90.546L95.4234 90.5427C95.5689 90.4243 100.212 86.6681 103.168 86.1616C103.168 86.1616 99.4486 93.8172 100.588 99.2441Z" fill="black"/>
<path d="M94.9816 90.3834C94.9816 90.3834 95.4987 90.4714 95.9279 90.1465C95.9279 90.1465 95.282 96.1384 94.676 103.19C94.676 103.19 94.3231 103.954 93.4241 103.634C93.4241 103.634 94.1013 94.6268 94.9816 90.3834Z" fill="#009688"/>
<path opacity="0.2" d="M94.9816 90.3834C94.9816 90.3834 95.4987 90.4714 95.9279 90.1465C95.9279 90.1465 95.282 96.1384 94.676 103.19C94.676 103.19 94.3231 103.954 93.4241 103.634C93.4241 103.634 94.1013 94.6268 94.9816 90.3834Z" fill="white"/>
<path opacity="0.7" d="M96.9411 91.9907C96.9411 91.9907 99.1426 90.1323 100.987 89.7007L100.698 90.8457C100.698 90.8457 98.9044 91.4505 96.7029 93.4545L96.9411 91.9907Z" fill="white"/>
<path opacity="0.1" d="M84.9934 98.5073C84.9934 98.5073 90.6165 99.4454 92.1534 99.9744V102.243C92.1534 102.243 87.4495 101.205 84.9293 100.934L84.9934 98.5073Z" fill="black"/>
<path opacity="0.7" d="M98.0713 90.0127L97.9524 90.5478C97.9524 90.5478 98.9937 89.8269 100.273 89.2801L100.481 88.5854C100.481 88.5854 99.1425 89.12 98.0713 90.0127Z" fill="white"/>
<path d="M80.152 97.5358L80.5853 99.7884C81.8499 101.841 84.2063 99.758 84.2063 99.758L85.7436 99.2145C86.265 99.03 86.5622 98.4341 86.4461 97.8064L86.155 96.2293C86.0226 95.5103 85.4011 95.0108 84.7777 95.1213L83.3765 95.3698C82.9689 95.4424 82.5856 95.6142 82.2603 95.8707L80.152 97.5358Z" fill="#E4897B"/>
<path d="M79.4846 97.0509L81.0688 96.8276C80.9209 98.9852 81.8049 101.06 81.8049 101.06L80.7786 103.121C80.7786 103.121 78.1859 99.6242 79.4846 97.0509Z" fill="#009688"/>
<path opacity="0.5" d="M79.4846 97.0509L81.0688 96.8276C80.9209 98.9852 81.8049 101.06 81.8049 101.06L80.7786 103.121C80.7786 103.121 78.1859 99.6242 79.4846 97.0509Z" fill="white"/>
<path d="M86.8875 77.6755L85.3763 77.4434" stroke="#263238" stroke-width="0.5" stroke-miterlimit="10" stroke-linecap="round" stroke-linejoin="round"/>
<path d="M87.019 75.6698C86.5407 77.2254 85.425 78.6817 84.3444 77.7375C83.8834 77.3354 83.8141 76.7217 83.9461 76.0532C84.2648 74.4424 85.7709 72.5194 85.7709 72.5194C85.7709 72.5194 86.8285 71.9937 87.2062 73.6719C87.3265 74.2065 87.2418 74.9475 87.019 75.6698Z" fill="#263238"/>
<path opacity="0.5" d="M87.019 75.6701C86.5407 77.2257 85.425 78.682 84.3444 77.7378C83.8834 77.3357 83.8141 76.722 83.9461 76.0535C84.8082 75.3752 85.6272 74.938 85.6272 74.938C85.6272 74.938 86.295 74.6843 87.019 75.6701Z" fill="white"/>
<path d="M83.7463 71.284C80.4184 69.126 76.1624 70.9671 75.6373 74.514C75.1127 78.0614 74.8375 80.4834 76.6912 82.4509C80.3739 86.3597 83.3785 85.0396 85.0291 81.7436C86.5155 78.7767 87.1244 73.4743 83.7463 71.284Z" fill="#E4897B"/>
<path opacity="0.2" d="M80.8564 76.8526C80.8564 76.8526 80.189 76.3813 79.5333 76.5666C80.2203 76.8653 80.8564 76.8526 80.8564 76.8526Z" fill="black"/>
<path opacity="0.2" d="M80.7674 77.1628C80.7674 77.1628 80.0823 76.8688 79.5413 77.2114C80.2082 77.3327 80.7674 77.1628 80.7674 77.1628Z" fill="black"/>
<path d="M85.7741 73.9745C84.8531 75.3124 82.4364 73.0486 80.3973 72.1826C79.6518 71.8643 78.8903 72.3539 78.77 73.0748C78.77 73.0748 78.7701 73.0748 78.7696 73.079C78.7401 73.2326 78.7438 73.3945 78.785 73.564C79.1337 75.0395 77.9253 75.7861 78.0877 76.6306C78.4649 78.5883 76.9163 78.6749 75.0597 77.4596C75.0597 77.4596 74.7036 77.3024 74.3975 76.8408C73.44 76.2491 73.2317 75.0395 73.5551 73.5434C73.718 72.785 74.0119 71.9518 74.4186 71.0928C75.6157 68.5383 79.9588 68.1699 79.9588 68.1699C79.9588 68.1699 84.0599 67.4953 85.5238 69.9483C86.9834 72.4007 85.7741 73.9745 85.7741 73.9745Z" fill="#263238"/>
<path d="M81.4348 77.1083C81.367 77.414 81.4751 77.6958 81.6754 77.7384C81.8757 77.781 82.0928 77.5675 82.1602 77.2619C82.2276 76.9562 82.12 76.6744 81.9197 76.6318C81.7194 76.5896 81.5022 76.8026 81.4348 77.1083Z" fill="#263238"/>
<path d="M85.0136 77.9247C84.9462 78.2304 85.0539 78.5122 85.2542 78.5548C85.4545 78.5974 85.6716 78.3839 85.739 78.0783C85.8064 77.7726 85.6988 77.4908 85.4985 77.4482C85.2986 77.4061 85.0815 77.619 85.0136 77.9247Z" fill="#263238"/>
<path d="M80.5606 76.0222C80.5302 76.0189 80.5003 76.0077 80.474 75.9885C80.3921 75.929 80.3744 75.8143 80.4343 75.732C81.0361 74.9067 81.8846 74.9362 81.9202 74.938C82.0217 74.9427 82.0994 75.0289 82.0938 75.13C82.0882 75.2311 82.0021 75.3092 81.901 75.305C81.8729 75.3041 81.2111 75.2882 80.731 75.9464C80.6903 76.0025 80.6243 76.0292 80.5606 76.0222Z" fill="#263238"/>
<path d="M86.618 77.0406C86.5613 77.0228 86.5145 76.9778 86.4972 76.9165C86.2768 76.139 85.6483 75.9321 85.6216 75.9237C85.5252 75.8932 85.4714 75.7907 85.5023 75.6943C85.5331 75.5978 85.6356 75.544 85.7325 75.5735C85.7676 75.5852 86.5763 75.8408 86.8524 76.8154C86.88 76.9128 86.8229 77.0144 86.7247 77.0424C86.6882 77.0523 86.6512 77.0509 86.618 77.0406Z" fill="#263238"/>
<path opacity="0.5" d="M78.0877 76.6313C78.4649 78.589 76.9163 78.6756 75.0597 77.4604C75.0597 77.4604 74.7036 77.3031 74.3975 76.8415C73.44 76.2498 73.2317 75.0402 73.5551 73.5441C75.5334 73.9879 77.3417 72.9922 77.4451 72.9355C77.3071 73.3105 76.8185 73.5165 76.8185 73.5165C78.0779 73.7463 78.7083 73.1364 78.7696 73.0793C78.7401 73.2328 78.7438 73.3948 78.785 73.5642C79.1337 75.0397 77.9253 75.7864 78.0877 76.6313Z" fill="white"/>
<path d="M83.772 77.4434L83.0176 79.9609C83.0176 79.9609 83.7706 80.399 84.3809 80.0985C84.4866 78.7279 83.772 77.4434 83.772 77.4434Z" fill="#DE5753"/>
<path d="M82.793 81.6603C82.793 81.6603 81.323 81.1524 80.8564 80.2251" stroke="#263238" stroke-width="0.75" stroke-miterlimit="10" stroke-linecap="round" stroke-linejoin="round"/>
<path d="M78.0891 77.6055C78.0891 77.6055 78.0212 79.7073 78.8487 80.7077C78.8487 80.7077 80.1394 79.1493 81.2467 79.1563C82.354 79.1638 82.7934 80.5017 82.7934 80.5017L82.3914 80.7072C82.3914 80.7072 81.8354 79.7106 81.2472 79.638C80.6584 79.565 79.2287 80.9422 79.5422 81.6598C79.8558 82.3774 81.2472 81.6725 81.2472 81.6725L81.798 81.9819C81.798 81.9819 80.9711 83.3507 82.5772 83.2252C84.1839 83.0997 84.3289 81.1369 82.7934 80.9417L83.0185 80.5012C83.0185 80.5012 84.5943 80.5625 84.877 82.0357C85.1596 83.5089 84.3926 85.7722 80.7347 85.3813C78.7948 85.174 75.2483 83.0019 76.9083 78.1307L78.0891 77.6055Z" fill="#263238"/>
<path d="M83.4379 76.8978C83.4379 76.8978 83.9293 76.7447 84.38 77.1234" stroke="#263238" stroke-width="0.5" stroke-miterlimit="10" stroke-linecap="round" stroke-linejoin="round"/>
<path d="M79.9494 76.0152L76.3135 75.2329C75.867 75.1262 75.4182 75.4015 75.3115 75.8485L75.2942 75.9201" stroke="#263238" stroke-width="0.5" stroke-miterlimit="10" stroke-linecap="round" stroke-linejoin="round"/>
<path d="M84.4754 77.0981C84.4754 77.0981 84.9602 76.8683 85.7596 77.0593C86.6338 77.2685 86.8874 77.6753 86.8874 77.6753L86.3694 78.8728C86.2135 79.2332 85.9117 79.4401 85.6383 79.3746L85.0781 79.2407C84.7037 79.1513 84.4543 78.7286 84.4613 78.1963L84.4754 77.0981Z" stroke="#263238" stroke-width="0.5" stroke-miterlimit="10" stroke-linecap="round" stroke-linejoin="round"/>
<path d="M83.3639 76.8324C83.3639 76.8324 82.8664 76.3671 81.7348 76.0965C80.4969 75.8002 79.9493 76.0155 79.9493 76.0155L79.961 77.3398C79.9643 77.7382 80.239 78.0832 80.6265 78.1759L81.4193 78.3654C81.9496 78.4923 82.5009 78.2615 82.7826 77.7948L83.3639 76.8324Z" stroke="#263238" stroke-width="0.5" stroke-miterlimit="10" stroke-linecap="round" stroke-linejoin="round"/>
<path d="M73.7152 77.1407C73.9534 78.0119 74.5749 78.6892 75.2296 79.0436C76.2138 79.5768 76.9631 78.758 76.9046 77.701C76.8522 76.7493 76.2765 75.3253 75.1852 75.2275C74.1097 75.1315 73.4423 76.145 73.7152 77.1407Z" fill="#E4897B"/>
<path d="M71.8436 149.086H53.418C51.5993 149.086 50.1246 147.611 50.1246 145.792V115.052C50.1246 113.233 51.5988 111.758 53.418 111.758H71.8436C73.6622 111.758 75.1369 113.233 75.1369 115.052V145.792C75.1369 147.611 73.6622 149.086 71.8436 149.086Z" fill="#009688"/>
<path opacity="0.6" d="M71.8436 149.086H53.418C51.5993 149.086 50.1246 147.611 50.1246 145.792V115.052C50.1246 113.233 51.5988 111.758 53.418 111.758H71.8436C73.6622 111.758 75.1369 113.233 75.1369 115.052V145.792C75.1369 147.611 73.6622 149.086 71.8436 149.086Z" fill="white"/>
<path opacity="0.2" d="M70.0034 149.086H53.2991C51.5441 149.086 50.1228 147.664 50.1228 145.908V114.933C50.1228 113.178 51.5441 111.756 53.2991 111.756H70.0034C68.2527 111.756 66.8313 113.178 66.8313 114.933V145.908C66.8313 147.664 68.2527 149.086 70.0034 149.086Z" fill="black"/>
</svg>
