<svg width="22" height="22" viewBox="0 0 22 22" fill="none" xmlns="http://www.w3.org/2000/svg">
<path fill-rule="evenodd" clip-rule="evenodd" d="M11 0C8.08262 4.34724e-08 5.28473 1.15893 3.22183 3.22183C1.15893 5.28473 0 8.08262 0 11C0 13.9174 1.15893 16.7153 3.22183 18.7782C5.28473 20.8411 8.08262 22 11 22H16.5C18.2087 22 19.063 22 19.7364 21.7213C20.1814 21.5371 20.5858 21.2669 20.9264 20.9264C21.2669 20.5858 21.5371 20.1814 21.7213 19.7364C22 19.063 22 18.2087 22 16.5V11C22 8.08262 20.8411 5.28473 18.7782 3.22183C16.7153 1.15893 13.9174 0 11 0ZM6.11111 9.77778C6.11111 9.45362 6.23988 9.14275 6.46909 8.91354C6.6983 8.68433 7.00918 8.55556 7.33333 8.55556H14.6667C14.9908 8.55556 15.3017 8.68433 15.5309 8.91354C15.7601 9.14275 15.8889 9.45362 15.8889 9.77778C15.8889 10.1019 15.7601 10.4128 15.5309 10.642C15.3017 10.8712 14.9908 11 14.6667 11H7.33333C7.00918 11 6.6983 10.8712 6.46909 10.642C6.23988 10.4128 6.11111 10.1019 6.11111 9.77778ZM9.77778 14.6667C9.77778 14.3425 9.90655 14.0316 10.1358 13.8024C10.365 13.5732 10.6758 13.4444 11 13.4444H14.6667C14.9908 13.4444 15.3017 13.5732 15.5309 13.8024C15.7601 14.0316 15.8889 14.3425 15.8889 14.6667C15.8889 14.9908 15.7601 15.3017 15.5309 15.5309C15.3017 15.7601 14.9908 15.8889 14.6667 15.8889H11C10.6758 15.8889 10.365 15.7601 10.1358 15.5309C9.90655 15.3017 9.77778 14.9908 9.77778 14.6667Z" fill="#009688"/>
</svg>
