<svg width="22" height="22" viewBox="0 0 22 22" fill="none" xmlns="http://www.w3.org/2000/svg">
<path fill-rule="evenodd" clip-rule="evenodd" d="M11 2.44451C8.73093 2.44451 6.55479 3.34589 4.95031 4.95037C3.34583 6.55485 2.44444 8.73099 2.44444 11.0001C2.44444 13.2691 3.34583 15.4453 4.95031 17.0498C6.55479 18.6542 8.73093 19.5556 11 19.5556H17.2211C17.7539 19.5556 18.0977 19.5551 18.3616 19.5387C18.6143 19.523 18.7132 19.4962 18.7611 19.4785C18.9251 19.4172 19.0739 19.3215 19.1977 19.1978C19.3216 19.0739 19.4174 18.9248 19.4786 18.7606L20.6238 19.1877L19.4781 18.7619C19.4959 18.7141 19.5229 18.6157 19.5387 18.3621C19.555 18.0984 19.5556 17.7546 19.5556 17.2212V11.0001C19.5556 8.73099 18.6542 6.55485 17.0497 4.95037C15.4452 3.34589 13.2691 2.44451 11 2.44451ZM3.22183 3.22189C5.28473 1.15899 8.08262 6.10352e-05 11 6.10352e-05C13.9174 6.10352e-05 16.7153 1.15899 18.7782 3.22189C20.8411 5.28479 22 8.08268 22 11.0001V17.2567C22 17.7446 22 18.1649 21.9784 18.5134C21.9556 18.8804 21.9056 19.247 21.7694 19.6135L21.7689 19.6148C21.5853 20.1073 21.2978 20.5546 20.9262 20.9262C20.5545 21.2979 20.1073 21.5853 19.6148 21.769L19.6135 21.7695C19.2468 21.9058 18.8797 21.9557 18.5129 21.9785C18.1642 22.0001 17.7439 22.0001 17.2565 22.0001H11C8.08262 22.0001 5.28473 20.8411 3.22183 18.7782C1.15893 16.7153 0 13.9174 0 11.0001C0 8.08268 1.15893 5.28479 3.22183 3.22189ZM6.11111 9.77784C6.11111 9.10282 6.65832 8.55562 7.33333 8.55562H14.6667C15.3417 8.55562 15.8889 9.10282 15.8889 9.77784C15.8889 10.4529 15.3417 11.0001 14.6667 11.0001H7.33333C6.65832 11.0001 6.11111 10.4529 6.11111 9.77784ZM9.77778 14.6667C9.77778 13.9917 10.325 13.4445 11 13.4445H14.6667C15.3417 13.4445 15.8889 13.9917 15.8889 14.6667C15.8889 15.3417 15.3417 15.8889 14.6667 15.8889H11C10.325 15.8889 9.77778 15.3417 9.77778 14.6667Z" fill="#6F6F6F"/>
</svg>
