<svg width="88" height="54" viewBox="0 0 88 54" fill="none" xmlns="http://www.w3.org/2000/svg">
<path fill-rule="evenodd" clip-rule="evenodd" d="M36 19.2146C36 18.362 36.3105 17.5444 36.8632 16.9415C37.4159 16.3387 38.1655 16 38.9471 16H48.7707C49.5523 16 50.3019 16.3387 50.8546 16.9415C51.4073 17.5444 51.7178 18.362 51.7178 19.2146V36.3889C51.7178 37.6962 50.3621 38.457 49.3876 37.6973L43.8589 33.3898L38.3302 37.6973C37.3547 38.4581 36 37.6973 36 36.39V19.2146ZM38.9471 18.143C38.6865 18.143 38.4367 18.2559 38.2524 18.4569C38.0682 18.6578 37.9647 18.9304 37.9647 19.2146V35.3485L43.0023 31.4235C43.2522 31.2287 43.5517 31.124 43.8589 31.124C44.1661 31.124 44.4656 31.2287 44.7155 31.4235L49.7531 35.3485V19.2146C49.7531 18.9304 49.6496 18.6578 49.4653 18.4569C49.2811 18.2559 49.0312 18.143 48.7707 18.143H38.9471Z" fill="#6F6F6F"/>
</svg>
