<svg width="16" height="22" viewBox="0 0 16 22" fill="none" xmlns="http://www.w3.org/2000/svg">
<path d="M14.9319 21.998C14.7397 21.9985 14.5539 21.9286 14.4098 21.8015L7.85889 15.9785L1.30802 21.8015C1.19465 21.9023 1.05455 21.9681 0.90461 21.991C0.754671 22.0139 0.601306 21.9929 0.463019 21.9306C0.324731 21.8683 0.207432 21.7674 0.125273 21.6399C0.0431144 21.5124 -0.000392249 21.3639 2.6648e-06 21.2123V3.14257C0.000912751 2.30938 0.3324 1.51059 0.921734 0.921441C1.51107 0.332293 2.31011 0.0009098 3.14356 0H12.5742C13.4077 0.0009098 14.2067 0.332293 14.796 0.921441C15.3854 1.51059 15.7169 2.30938 15.7178 3.14257V21.2123C15.7178 21.4207 15.635 21.6205 15.4876 21.7678C15.3402 21.9152 15.1403 21.998 14.9319 21.998Z" fill="#009688"/>
</svg>
