<svg width="135" height="65" viewBox="0 0 135 65" fill="none" xmlns="http://www.w3.org/2000/svg">
<path d="M101.709 64.7439L97.8409 60.3329L127.869 33.9999L101.537 3.97092L105.949 0.101929L134.215 32.3369C135.283 33.5549 135.161 35.4089 133.943 36.4769L101.709 64.7439Z" fill="black"/>
<path d="M63.617 36.4659V30.5979L73.393 30.5919L73.401 36.4599L63.617 36.4659ZM57.747 36.4649C54.37 36.4639 51.104 36.4599 47.961 36.4549L47.971 30.5869C51.112 30.5919 54.374 30.5949 57.749 30.5969L57.747 36.4649ZM79.269 36.4509L79.259 30.5829C82.456 30.5779 85.718 30.5709 89.036 30.5619L89.051 36.4299C85.732 36.4389 82.468 36.4459 79.269 36.4509ZM42.092 36.4449C38.652 36.4379 35.385 36.4299 32.306 36.4199L32.325 30.5519C35.4 30.5619 38.665 30.5699 42.103 30.5769L42.092 36.4449ZM94.921 36.4129L94.9019 30.5449C98.1149 30.5349 101.375 30.5219 104.679 30.5079L104.704 36.3759C101.397 36.3899 98.135 36.4019 94.921 36.4129ZM26.435 36.4009C22.833 36.3879 19.559 36.3729 16.649 36.3589L16.678 30.4909C19.586 30.5049 22.858 30.5189 26.456 30.5329L26.435 36.4009ZM110.568 36.3469L110.539 30.4789C113.761 30.4629 117.021 30.4449 120.312 30.4249L120.348 36.2929C117.056 36.3129 113.794 36.3309 110.568 36.3469ZM10.776 36.3279C4.47497 36.2919 0.980957 36.2639 0.980957 36.2639L1.02896 30.3959C1.03096 30.3959 4.51996 30.4239 10.809 30.4599L10.776 36.3279Z" fill="black"/>
</svg>
