<svg width="166" height="66" viewBox="0 0 166 66" fill="none" xmlns="http://www.w3.org/2000/svg">
<path d="M34.039 65.543L1.80403 37.277C0.585026 36.208 0.464027 34.355 1.53203 33.137L29.798 0.901978L34.21 4.76996L7.87802 34.8L37.907 61.131L34.039 65.543Z" fill="black"/>
<path d="M80.922 37.2639L77.021 37.2629L77.025 31.3949L80.922 31.3959L86.8 31.3949L86.804 37.2629L80.922 37.2639ZM71.156 37.2609L61.375 37.2509L61.383 31.3829L71.16 31.3929L71.156 37.2609ZM92.677 37.2599L92.669 31.3919L102.452 31.3819L102.46 37.2499L92.677 37.2599ZM108.332 37.2409L108.322 31.3729L118.104 31.3549L118.115 37.2229L108.332 37.2409ZM55.506 37.2409L45.723 37.2189L45.738 31.351L55.515 31.3729L55.506 37.2409ZM123.991 37.2099L123.976 31.3419L133.759 31.3149L133.776 37.183L123.991 37.2099ZM39.851 37.2019L30.065 37.1659L30.09 31.2979L39.87 31.334L39.851 37.2019ZM139.648 37.1649L139.629 31.2969L149.413 31.2629L149.436 37.131L139.648 37.1649ZM24.193 37.14C20.899 37.124 17.632 37.1059 14.406 37.0859L14.442 31.2179C17.666 31.2379 20.929 31.2559 24.221 31.2719L24.193 37.14ZM155.309 37.1069L155.284 31.239L165.079 31.1949L165.11 37.0629L155.309 37.1069Z" fill="black"/>
</svg>
