<svg width="150" height="144" viewBox="0 0 150 144" fill="none" xmlns="http://www.w3.org/2000/svg">
<path d="M128.607 63.1769L123.49 60.3039L143.047 25.4799L108.225 5.92389L111.098 0.806885L148.479 21.7999C149.892 22.5939 150.394 24.3819 149.601 25.7949L128.607 63.1769Z" fill="black"/>
<path d="M6.711 143.501L0.911011 142.608C0.935011 142.452 1.51599 138.745 3.55099 132.646L9.117 134.503C7.257 140.076 6.716 143.467 6.711 143.501ZM11.079 129.142L5.62601 126.974C6.83401 123.936 8.209 120.857 9.715 117.822L14.971 120.429C13.536 123.321 12.227 126.253 11.079 129.142ZM17.638 115.348L12.506 112.504C14.096 109.634 15.829 106.755 17.659 103.946L22.575 107.149C20.822 109.841 19.16 112.6 17.638 115.348ZM25.811 102.4L21.03 98.9978C22.938 96.3158 24.972 93.6488 27.076 91.0708L31.622 94.7798C29.601 97.2598 27.645 99.8228 25.811 102.4ZM35.344 90.3888L30.94 86.5118C33.105 84.0528 35.393 81.6088 37.741 79.2458L41.903 83.3828C39.637 85.6618 37.431 88.0188 35.344 90.3888ZM46.037 79.3708L42.022 75.0908C44.408 72.8538 46.91 70.6368 49.459 68.5008L53.227 72.9988C50.762 75.0648 48.342 77.2078 46.037 79.3708ZM57.709 69.3628L54.088 64.7468C56.653 62.7348 59.333 60.7428 62.051 58.8268L65.432 63.6228C62.795 65.4808 60.196 67.4118 57.709 69.3628ZM70.202 60.3648L66.965 55.4718C69.683 53.6738 72.507 51.8998 75.356 50.2018L78.36 55.2418C75.588 56.8938 72.843 58.6168 70.202 60.3648ZM83.369 52.3468L80.5 47.2278C83.343 45.6348 86.283 44.0708 89.237 42.5778L91.882 47.8148C89.004 49.2698 86.139 50.7948 83.369 52.3468ZM97.086 45.2638L94.567 39.9658C97.498 38.5718 100.529 37.2028 103.576 35.8968L105.889 41.2888C102.91 42.5648 99.949 43.9028 97.086 45.2638ZM111.242 39.0608L109.049 33.6188C112.065 32.4028 115.168 31.2158 118.271 30.0898L120.273 35.6058C117.233 36.7098 114.195 37.8718 111.242 39.0608ZM125.751 33.6798L123.86 28.1258C126.862 27.1038 129.957 26.1038 133.061 25.1538L134.778 30.7658C131.732 31.6978 128.695 32.6788 125.751 33.6798Z" fill="black"/>
</svg>
