<svg width="49" height="79" viewBox="0 0 49 79" fill="none" xmlns="http://www.w3.org/2000/svg">
<path fill-rule="evenodd" clip-rule="evenodd" d="M0.914109 5.49725C1.16788 5.99462 1.53517 6.40037 2.016 6.7145L0.513423 7.46055L1.65538 9.69872L8.54718 6.43963L7.5054 4.1622C6.54375 4.62031 5.86926 4.92135 5.48193 5.06532C5.10796 5.2093 4.79409 5.28128 4.54032 5.28128C4.07285 5.28128 3.6922 5.1504 3.39836 4.88862C3.10453 4.61376 2.95761 4.28 2.95761 3.88734C2.95761 3.48159 3.09785 3.14783 3.37833 2.88605C3.65881 2.61119 4.00607 2.47376 4.42011 2.47376C4.8208 2.47376 5.35505 2.57193 6.02286 2.76826L6.70402 0.64789C5.94272 0.215963 5.13467 0 4.27987 0C3.61206 0 2.991 0.170153 2.41668 0.510459C1.84237 0.850764 1.38158 1.32196 1.03432 1.92404C0.70041 2.51303 0.533458 3.17401 0.533458 3.90697C0.533458 4.46979 0.660342 4.99988 0.914109 5.49725ZM10.7142 13.2951V23.5511C15.1641 18.3062 22.6747 16.1301 29.5579 18.6637C38.2508 21.8633 42.6509 31.363 39.3859 39.8817C36.1208 48.4005 26.427 52.7125 17.7341 49.5129C14.8983 48.4691 12.5193 46.7548 10.7142 44.6228V54.8853C12.0226 55.6647 13.4235 56.3361 14.9093 56.883C20.5324 58.9527 26.442 58.8948 31.7106 57.1203L40.7742 76.6881C41.6912 78.6677 44.0721 79.5441 46.0922 78.6455C48.1123 77.747 49.0066 75.4137 48.0896 73.4341L38.8037 53.3862C42.3569 50.7108 45.2162 47.0604 46.9066 42.65C51.7318 30.0608 45.2292 16.022 32.3827 11.2935C24.9455 8.55607 17.0125 9.53915 10.7142 13.2951ZM0.5 40.9854C0.5 27.5454 0.672124 25.9145 2.45103 21.6407C4.22993 17.3669 8.53376 14.7801 8.53376 14.7801V74.9831C8.53376 77.2016 6.73534 79 4.51688 79C2.29842 79 0.5 77.2033 0.5 74.9848V40.9854Z" fill="#009688"/>
</svg>
