<svg width="22" height="22" viewBox="0 0 22 22" fill="none" xmlns="http://www.w3.org/2000/svg">
<path d="M11.216 19.9743C8.65624 19.9743 6.48012 19.0781 4.68761 17.2856C2.8951 15.4931 1.99923 13.3173 2 10.7583C2 8.86138 2.54259 7.11995 3.62777 5.53403C4.71372 3.94658 6.25356 2.80495 8.24728 2.10914C8.48229 2.02697 8.68812 2.00546 8.86475 2.04463C9.04139 2.0838 9.1877 2.16021 9.30367 2.27388C9.41963 2.38754 9.49336 2.53346 9.52485 2.71164C9.55557 2.89058 9.53138 3.07836 9.45227 3.27496C9.30328 3.6413 9.19499 4.01416 9.12741 4.39355C9.05983 4.77294 9.02642 5.16654 9.02719 5.57435C9.02719 7.62721 9.74258 9.36941 11.1734 10.801C12.6049 12.2317 14.3471 12.9471 16.4 12.9471C16.936 12.9471 17.4264 12.8903 17.8711 12.7766C18.3165 12.663 18.6959 12.5708 19.0092 12.5002C19.1767 12.4694 19.3299 12.4733 19.4689 12.5117C19.6079 12.5501 19.72 12.6177 19.8053 12.7144C19.8936 12.8104 19.9535 12.9287 19.985 13.0692C20.0165 13.2098 19.9984 13.3699 19.9308 13.5496C19.3817 15.4312 18.3054 16.9722 16.7018 18.1726C15.0982 19.373 13.2696 19.9736 11.216 19.9743Z" fill="#009688"/>
</svg>
