<svg width="20" height="21" viewBox="0 0 20 21" fill="none" xmlns="http://www.w3.org/2000/svg">
<path d="M0.999999 19.5L5.55615 14.9439M5.55615 14.9439C4.82486 14.2126 4.24478 13.3444 3.84901 12.3889C3.45325 11.4335 3.24955 10.4094 3.24955 9.37523C3.24955 8.34104 3.45325 7.31697 3.84901 6.36151C4.24478 5.40604 4.82486 4.53788 5.55615 3.8066C6.28743 3.07532 7.15559 2.49523 8.11106 2.09947C9.06652 1.7037 10.0906 1.5 11.1248 1.5C12.159 1.5 13.183 1.7037 14.1385 2.09947C15.094 2.49523 15.9621 3.07532 16.6934 3.8066C18.1703 5.28349 19 7.28659 19 9.37523C19 11.4639 18.1703 13.467 16.6934 14.9439C15.2165 16.4207 13.2134 17.2505 11.1248 17.2505C9.03613 17.2505 7.03304 16.4207 5.55615 14.9439Z" stroke="#009688" stroke-opacity="0.8" stroke-width="2" stroke-linecap="round" stroke-linejoin="round"/>
</svg>
