<svg width="22" height="22" viewBox="0 0 22 22" fill="none" xmlns="http://www.w3.org/2000/svg">
<path d="M2.25 20L6.80615 15.4439M6.80615 15.4439C6.07486 14.7126 5.49478 13.8444 5.09901 12.8889C4.70325 11.9335 4.49955 10.9094 4.49955 9.87523C4.49955 8.84104 4.70325 7.81697 5.09901 6.86151C5.49478 5.90604 6.07486 5.03788 6.80615 4.3066C7.53743 3.57532 8.40559 2.99523 9.36106 2.59947C10.3165 2.2037 11.3406 2 12.3748 2C13.409 2 14.433 2.2037 15.3885 2.59947C16.344 2.99523 17.2121 3.57532 17.9434 4.3066C19.4203 5.78349 20.25 7.78659 20.25 9.87523C20.25 11.9639 19.4203 13.967 17.9434 15.4439C16.4665 16.9207 14.4634 17.7505 12.3748 17.7505C10.2861 17.7505 8.28304 16.9207 6.80615 15.4439Z" stroke="#6F6F6F" stroke-width="3" stroke-linecap="round" stroke-linejoin="round"/>
</svg>
