<svg width="224" height="164" viewBox="0 0 224 164" fill="none" xmlns="http://www.w3.org/2000/svg">
<path d="M112 153C167.228 153 212 147.851 212 141.5C212 135.149 167.228 130 112 130C56.7715 130 12 135.149 12 141.5C12 147.851 56.7715 153 112 153Z" fill="#C4FFED"/>
<path d="M180.467 98.7711C214.85 74.6278 205.312 27.0637 147.236 13.2843C113.055 5.1743 56.6363 7.66901 33.9713 46.2156C-4.6919 111.97 96.7959 118.844 133.229 115.475C147.84 114.125 166.107 108.854 180.467 98.7711Z" fill="#009688"/>
<path d="M180.613 101.685C214.996 77.5414 205.458 29.9773 147.383 16.1979C113.202 8.08782 56.7828 10.5826 34.1177 49.1292C-4.54541 114.884 96.9423 121.757 133.375 118.389C147.986 117.038 166.254 111.768 180.613 101.685Z" fill="#F2FCFA"/>
<mask id="mask0_804_3850" style="mask-type:luminance" maskUnits="userSpaceOnUse" x="25" y="12" width="176" height="108">
<path d="M180.613 101.685C214.996 77.5414 205.458 29.9773 147.383 16.1979C113.202 8.08782 56.7828 10.5826 34.1177 49.1292C-4.54541 114.884 96.9423 121.757 133.375 118.389C147.986 117.038 166.254 111.768 180.613 101.685Z" fill="white"/>
</mask>
<g mask="url(#mask0_804_3850)">
<path d="M67.176 48.9967C67.4786 46.5256 65.9857 43.9353 63.802 43.1423C61.6182 42.3494 58.9838 43.4411 57.8479 45.6096C58.5681 42.9379 58.1814 39.6751 56.1472 37.9724C54.7735 36.8224 52.9162 36.5892 51.1853 36.7448C49.3376 36.9109 47.4708 37.5019 46.0426 38.7815C45.4328 39.3278 44.9167 40.0146 44.5484 40.776C44.4734 40.6435 44.3882 40.5186 44.2915 40.4051C43.3992 39.3572 41.971 39.0739 40.6546 39.1038C34.3519 39.2469 29.2694 45.9773 30.1588 52.7315H81.3265C77.3476 49.2728 72.245 48.356 67.176 48.9967Z" fill="white"/>
</g>
<mask id="mask1_804_3850" style="mask-type:luminance" maskUnits="userSpaceOnUse" x="25" y="12" width="176" height="108">
<path d="M180.613 101.685C214.996 77.5414 205.458 29.9773 147.383 16.1979C113.202 8.08782 56.7828 10.5826 34.1177 49.1292C-4.54541 114.884 96.9423 121.757 133.375 118.389C147.986 117.038 166.254 111.768 180.613 101.685Z" fill="white"/>
</mask>
<g mask="url(#mask1_804_3850)">
<path d="M195.267 53.0715H164.544C166.484 53.0715 168.023 51.6623 169.939 51.3397C169.482 50.4481 169.834 49.1826 170.671 48.7128C171.507 48.243 172.666 48.6595 173.076 49.5772C172.97 47.789 174.434 46.0085 176.087 46.1117C177.74 46.2148 179.009 48.4149 178.223 49.9916C178.655 48.8709 179.853 48.1623 180.958 48.3776C182.062 48.5929 182.958 49.7127 182.992 50.9265C183.136 49.9915 184.011 49.2604 184.883 49.3474C185.755 49.4344 186.492 50.3264 186.475 51.274C187.396 50.1198 189.104 50.5324 190.432 51.0416C192.234 51.7323 193.466 52.3809 195.267 53.0715Z" fill="white"/>
</g>
<mask id="mask2_804_3850" style="mask-type:luminance" maskUnits="userSpaceOnUse" x="25" y="12" width="176" height="108">
<path d="M180.613 101.685C214.996 77.5414 205.458 29.9773 147.383 16.1979C113.202 8.08782 56.7828 10.5826 34.1177 49.1292C-4.54541 114.884 96.9423 121.757 133.375 118.389C147.986 117.038 166.254 111.768 180.613 101.685Z" fill="white"/>
</mask>
<g mask="url(#mask2_804_3850)">
<path d="M56.6441 43.6904L41.4749 47.8329L42.1634 50.2817L46.3725 48.8955L58.4688 98.6992L64.5372 96.7007L70.6055 94.7023L55.016 46.0489L59.2251 44.6628L56.6441 43.6904Z" fill="#E3F9F2"/>
<path d="M46.3726 48.8958L48.2313 48.2837C48.2313 48.2837 49.7758 64.2704 60.8459 98.1656L58.5329 98.9273L46.3726 48.8958Z" fill="#A8EADE"/>
<path d="M54.4994 50.1611L54.9331 51.4301L55.3603 52.7015L56.2142 55.2446C56.7777 56.942 57.3393 58.6403 57.894 60.341C58.4532 62.0402 58.9996 63.744 59.552 65.4456L61.1903 70.5576L62.8095 75.6767C63.3425 77.3855 63.8822 79.092 64.4086 80.8033C64.9394 82.513 65.4636 84.2251 65.9858 85.9381L66.7602 88.5107L67.1471 89.7972L67.5275 91.086L67.0936 89.8171L66.6663 88.5457L65.8122 86.0028C65.2487 84.3053 64.6871 82.6071 64.1323 80.9063C63.5731 79.2072 63.027 77.5032 62.4743 75.8017L60.8364 70.6895L59.2177 65.5703C58.6844 63.8615 58.1452 62.1549 57.6186 60.4436C57.0877 58.734 56.5636 57.0218 56.0414 55.3089L55.2668 52.7364L54.8798 51.45L54.4994 50.1611Z" fill="#A8EADE"/>
<path d="M52.6562 50.7534L53.0512 52.0371L53.4397 53.323L54.216 55.895C54.7277 57.6116 55.2375 59.3289 55.7403 61.0484C56.2476 62.7665 56.7421 64.4888 57.2426 66.2091L58.7249 71.3765L60.188 76.5504C60.6688 78.2772 61.1565 80.0019 61.6306 81.731C62.1094 83.4586 62.5813 85.1885 63.0512 86.9191L63.7472 89.5178L64.0949 90.8173L64.436 92.119L64.0408 90.8354L63.6523 89.5495L62.8758 86.9776C62.3641 85.261 61.8543 83.5438 61.3514 81.8242C60.8439 80.1062 60.35 78.3837 59.8492 76.6634L58.3673 71.4958L56.9048 66.3218C56.4237 64.595 55.9365 62.8702 55.4621 61.1411C54.9834 59.4135 54.5115 57.6837 54.0416 55.9531L53.3453 53.3544L52.9975 52.055L52.6562 50.7534Z" fill="#A8EADE"/>
<path d="M49.938 51.6484L50.333 52.9322L50.7214 54.218L51.4977 56.7901C52.0094 58.5066 52.5192 60.2239 53.0221 61.9434C53.5294 63.6615 54.0238 65.3838 54.5243 67.1042L56.0066 72.2715L57.4697 77.4454C57.9506 79.1723 58.4382 80.8969 58.9123 82.6261C59.3911 84.3537 59.863 86.0835 60.3329 87.8141L61.0289 90.4129L61.3766 91.7124L61.7177 93.014L61.3225 91.7304L60.934 90.4445L60.1575 87.8726C59.6457 86.1561 59.1359 84.4388 58.6331 82.7192C58.1256 81.0012 57.6316 79.2788 57.1309 77.5585L55.649 72.391L54.1864 67.2169C53.7053 65.4901 53.2182 63.7653 52.7438 62.0363C52.265 60.3087 51.7931 58.5788 51.3232 56.8482L50.627 54.2495L50.2791 52.9501L49.938 51.6484Z" fill="#A8EADE"/>
</g>
<mask id="mask3_804_3850" style="mask-type:luminance" maskUnits="userSpaceOnUse" x="25" y="12" width="176" height="108">
<path d="M180.613 101.685C214.996 77.5414 205.458 29.9773 147.383 16.1979C113.202 8.08782 56.7828 10.5826 34.1177 49.1292C-4.54541 114.884 96.9423 121.757 133.375 118.389C147.986 117.038 166.254 111.768 180.613 101.685Z" fill="white"/>
</mask>
<g mask="url(#mask3_804_3850)">
<path d="M125.563 52.7792H167.295L147.789 36.9386C146.983 36.2841 145.875 36.2841 145.069 36.9386L125.563 52.7792Z" fill="#E3F9F2"/>
<path d="M132.837 52.7793H129.243V81.743H132.837V52.7793Z" fill="#E3F9F2"/>
<path d="M163.615 52.7793H160.021V81.743H163.615V52.7793Z" fill="#E3F9F2"/>
<path d="M138.326 52.7793H134.732V81.743H138.326V52.7793Z" fill="#E3F9F2"/>
<path d="M157.862 52.7793H154.268V81.743H157.862V52.7793Z" fill="#E3F9F2"/>
<path d="M149.619 45.1313C150.035 43.2268 148.945 41.3183 147.185 40.8686C145.426 40.4189 143.662 41.5982 143.247 43.5028C142.831 45.4073 143.921 47.3157 145.681 47.7654C147.44 48.2151 149.204 47.0358 149.619 45.1313Z" fill="white"/>
</g>
<mask id="mask4_804_3850" style="mask-type:luminance" maskUnits="userSpaceOnUse" x="25" y="12" width="176" height="108">
<path d="M180.613 101.685C214.996 77.5414 205.458 29.9773 147.383 16.1979C113.202 8.08782 56.7828 10.5826 34.1177 49.1292C-4.54541 114.884 96.9423 121.757 133.375 118.389C147.986 117.038 166.254 111.768 180.613 101.685Z" fill="white"/>
</mask>
<g mask="url(#mask4_804_3850)">
<path d="M75.3724 27.6235C91.7443 27.8681 108.116 28.1127 124.488 28.3572L124.04 27.8718C120.183 27.0703 116.304 26.4176 112.448 25.6161C111.633 23.1848 109.404 21.3876 107.018 21.2378C104.633 21.0879 102.227 22.5941 101.157 24.907C101.649 24.7798 101.798 24.0226 101.525 23.5628C101.251 23.103 100.724 22.9029 100.225 22.8201C98.2194 22.4876 96.0769 23.7001 95.185 25.6724C92.9493 24.0409 89.9708 22.39 87.7487 24.043C87.2639 24.4036 86.8548 24.9074 86.2991 25.1165C85.7903 25.3079 85.2338 25.2236 84.6975 25.1698C81.5376 24.8532 78.0322 25.7503 75.3724 27.6235Z" fill="white"/>
</g>
<mask id="mask5_804_3850" style="mask-type:luminance" maskUnits="userSpaceOnUse" x="25" y="12" width="176" height="108">
<path d="M180.613 101.685C214.996 77.5414 205.458 29.9773 147.383 16.1979C113.202 8.08782 56.7828 10.5826 34.1177 49.1292C-4.54541 114.884 96.9423 121.757 133.375 118.389C147.986 117.038 166.254 111.768 180.613 101.685Z" fill="white"/>
</mask>
<g mask="url(#mask5_804_3850)">
<path d="M14.5779 84.3731C34.6773 76.7734 56.7009 79.1867 77.8062 82.2226C98.9115 85.2584 120.602 88.7964 141.266 83.2449C152.586 80.2038 163.127 74.5409 173.949 69.8353C184.772 65.1297 196.283 61.3125 207.913 62.2642C207.317 83.3513 205.489 104.024 202.613 124.89C163.867 134.044 123.877 137.034 84.3433 133.634C64.3551 131.915 44.5197 128.577 24.7067 125.242C20.9998 111.623 18.2848 97.9925 14.5779 84.3731Z" fill="#C7F4E9"/>
<mask id="mask6_804_3850" style="mask-type:luminance" maskUnits="userSpaceOnUse" x="14" y="62" width="194" height="73">
<path d="M14.5779 84.3731C34.6773 76.7734 56.7009 79.1867 77.8062 82.2226C98.9115 85.2584 120.602 88.7964 141.266 83.2449C152.586 80.2038 163.127 74.5409 173.949 69.8353C184.772 65.1297 196.283 61.3125 207.913 62.2642C207.317 83.3513 205.489 104.024 202.613 124.89C163.867 134.044 123.877 137.034 84.3433 133.634C64.3551 131.915 44.5197 128.577 24.7067 125.242C20.9998 111.623 18.2848 97.9925 14.5779 84.3731Z" fill="white"/>
</mask>
<g mask="url(#mask6_804_3850)">
<path d="M77.6211 88.0043C84.5812 88.3936 91.5968 89.1105 98.2217 91.4523C106.909 94.5232 114.766 100.33 123.767 102.041C130.007 103.226 136.4 102.361 142.734 102.217C156.784 101.899 170.892 105.22 183.55 111.826C165.535 127.419 140.742 129.121 117.683 129.826C99.1259 130.393 79.6996 130.547 63.14 121.465C56.2902 117.708 50.2209 112.508 44.2038 107.344C40.3039 103.998 36.4041 100.651 32.5043 97.3044C31.5221 96.4616 30.5399 95.6188 29.5578 94.7759C28.868 94.1839 27.523 93.4471 27.2569 92.4808C26.6229 90.1782 30.1027 90.203 31.2841 90.0326C41.1017 88.617 50.9965 87.8286 60.8998 87.6708C66.4749 87.5818 72.0527 87.6928 77.6211 88.0043Z" fill="#A8EADE"/>
</g>
</g>
<mask id="mask7_804_3850" style="mask-type:luminance" maskUnits="userSpaceOnUse" x="25" y="12" width="176" height="108">
<path d="M180.613 101.685C214.996 77.5414 205.458 29.9773 147.383 16.1979C113.202 8.08782 56.7828 10.5826 34.1177 49.1292C-4.54541 114.884 96.9423 121.757 133.375 118.389C147.986 117.038 166.254 111.768 180.613 101.685Z" fill="white"/>
</mask>
<g mask="url(#mask7_804_3850)">
<path d="M179.925 42.141L163.453 38.9229L161.983 40.7163L166.291 41.6859L154.819 91.6626L161.03 93.0607L167.24 94.4587L175.136 43.6773L181.283 45.0611L179.925 42.141Z" fill="#E3F9F2"/>
<path d="M166.291 41.686L171.825 42.932C171.825 42.932 162.459 56.9421 157.142 92.4287L154.775 91.8958L166.291 41.686Z" fill="#A8EADE"/>
<path d="M172.86 47.0166L172.678 48.3552L172.489 49.6925L172.11 52.3671C171.852 54.149 171.591 55.9305 171.324 57.7108C171.061 59.4919 170.785 61.2705 170.515 63.0503L169.686 68.386L168.837 73.718C168.546 75.4941 168.263 77.2715 167.966 79.0462C167.674 80.8218 167.375 82.5962 167.073 84.3702L166.612 87.0295L166.381 88.3591L166.143 89.6874L166.325 88.3488L166.514 87.0115L166.892 84.3369C167.151 82.555 167.411 80.7734 167.678 78.9932C167.941 77.2121 168.218 75.4336 168.487 73.6537L169.317 68.3181L170.167 62.9862C170.457 61.2101 170.74 59.4328 171.037 57.658C171.329 55.8823 171.629 54.1079 171.93 52.334L172.391 49.6747L172.622 48.3451L172.86 47.0166Z" fill="#A8EADE"/>
<path d="M170.98 46.5791L170.758 47.9105L170.528 49.2404L170.069 51.9C169.757 53.6718 169.442 55.4431 169.121 57.2129C168.804 58.9837 168.474 60.7516 168.151 62.5208L167.16 67.8242L166.149 73.1232C165.805 74.888 165.469 76.6543 165.118 78.4176C164.772 80.182 164.419 81.9447 164.064 83.707L163.522 86.3485L163.251 87.6691L162.973 88.9883L163.195 87.6569L163.425 86.3269L163.884 83.6672C164.196 81.8954 164.51 80.1241 164.832 78.3543C165.148 76.5835 165.478 74.8156 165.802 73.0464L166.793 67.7431L167.804 62.4441C168.148 60.6793 168.485 58.9131 168.836 57.1497C169.182 55.3854 169.535 53.6227 169.89 51.8603L170.431 49.2188L170.702 47.8981L170.98 46.5791Z" fill="#A8EADE"/>
<path d="M168.198 45.9526L167.976 47.284L167.746 48.6139L167.287 51.2735C166.975 53.0453 166.66 54.8167 166.339 56.5865C166.022 58.3573 165.692 60.1251 165.369 61.8944L164.378 67.1978L163.367 72.4968C163.023 74.2615 162.686 76.0278 162.336 77.7912C161.99 79.5555 161.637 81.3182 161.282 83.0806L160.74 85.722L160.469 87.0426L160.191 88.3618L160.413 87.0304L160.643 85.7005L161.102 83.0408C161.414 81.269 161.728 79.4977 162.05 77.7279C162.366 75.9571 162.696 74.1893 163.02 72.42L164.011 67.1167L165.022 61.8178C165.366 60.0529 165.703 58.2867 166.054 56.5233C166.4 54.759 166.753 52.9963 167.108 51.234L167.649 48.5924L167.92 47.2717L168.198 45.9526Z" fill="#A8EADE"/>
</g>
<mask id="mask8_804_3850" style="mask-type:luminance" maskUnits="userSpaceOnUse" x="25" y="12" width="176" height="108">
<path d="M180.613 101.685C214.996 77.5414 205.458 29.9773 147.383 16.1979C113.202 8.08782 56.7828 10.5826 34.1177 49.1292C-4.54541 114.884 96.9423 121.757 133.375 118.389C147.986 117.038 166.254 111.768 180.613 101.685Z" fill="white"/>
</mask>
<g mask="url(#mask8_804_3850)">
<path d="M158.779 84.6004C157.135 85.7311 155.492 86.8617 153.849 87.9925C152.617 88.8401 151.295 89.812 150.874 91.3246C150.443 92.8721 151.135 94.5975 152.264 95.6558C153.393 96.7141 154.881 97.2103 156.351 97.4949C163.604 98.8985 171.475 95.3809 175.7 88.8473C176.857 87.0584 177.819 84.8724 177.585 82.6326C177.408 80.9402 176.238 79.0794 174.748 78.4092C173.565 77.8772 172.241 78.3183 171.064 78.6423C169.079 79.1884 167.146 79.6998 165.271 80.6201C163.003 81.7335 160.877 83.1563 158.779 84.6004Z" fill="#C7F4E9"/>
</g>
<path d="M176.71 87.195C172.194 86.6835 171.185 87.6653 171.185 87.6653C170.638 92.6466 174.234 101.132 174.234 101.132C174.234 101.132 180.27 94.8149 181.603 90.0106C181.603 90.0107 181.04 88.6748 176.71 87.195Z" fill="white"/>
<mask id="mask9_804_3850" style="mask-type:luminance" maskUnits="userSpaceOnUse" x="171" y="87" width="11" height="15">
<path d="M176.71 87.195C172.194 86.6835 171.185 87.6653 171.185 87.6653C170.638 92.6466 174.234 101.132 174.234 101.132C174.234 101.132 180.27 94.8149 181.603 90.0106C181.603 90.0107 181.04 88.6748 176.71 87.195Z" fill="white"/>
</mask>
<g mask="url(#mask9_804_3850)">
<path d="M177.479 94.494C176.877 94.6208 176.277 94.81 175.665 94.7845C174.782 94.7476 173.969 94.2702 173.101 94.0881C172.229 93.9049 171.302 94.0321 170.499 94.4455C170.322 94.5367 170.123 94.7079 170.175 94.9124C170.197 94.9959 170.258 95.0597 170.317 95.1176C172.001 96.759 174.444 97.0689 176.71 97.0692C177.657 97.0693 178.749 97.01 179.423 96.1848C179.882 95.6235 179.997 94.5679 179.155 94.3434C178.902 94.2761 178.626 94.3246 178.371 94.3521C178.072 94.3846 177.774 94.4318 177.479 94.494Z" fill="#E6E7E8"/>
</g>
<path d="M181.464 64.4316L181.515 64.1612L181.475 64.152L180.832 64.0072L180.791 63.998L180.739 64.2685C180.16 65.9379 177.018 75.4962 175.872 89.5912L175.801 89.9589L175.841 89.9681L176.485 90.1129L176.525 90.1221L176.596 89.7543C180.739 76.334 181.38 66.2126 181.464 64.4316Z" fill="#494554"/>
<mask id="mask10_804_3850" style="mask-type:luminance" maskUnits="userSpaceOnUse" x="175" y="63" width="7" height="28">
<path d="M181.464 64.4316L181.515 64.1612L181.475 64.152L180.832 64.0072L180.791 63.998L180.739 64.2685C180.16 65.9379 177.018 75.4962 175.872 89.5912L175.801 89.9589L175.841 89.9681L176.485 90.1129L176.525 90.1221L176.596 89.7543C180.739 76.334 181.38 66.2126 181.464 64.4316Z" fill="white"/>
</mask>
<g mask="url(#mask10_804_3850)">
<path d="M177.661 90.3775L174.464 89.6578L175.659 85.0317L178.856 85.7514L177.661 90.3775Z" fill="#89FEE2"/>
</g>
<path d="M181.475 64.3752C181.412 64.3752 181.349 64.3437 181.309 64.2841C181.242 64.1849 181.262 64.0456 181.353 63.9729L184.601 61.3977C184.643 61.364 184.641 61.3189 184.637 61.2949C184.632 61.2709 184.616 61.2291 184.564 61.2175L179.226 60.0158C179.175 60.0042 179.146 60.035 179.132 60.0545C179.119 60.0739 179.1 60.1137 179.125 60.1629L181.012 63.901C181.067 64.0089 181.03 64.1442 180.93 64.2032C180.831 64.2622 180.705 64.2226 180.651 64.1145L178.764 60.3765C178.669 60.1874 178.683 59.9623 178.802 59.7892C178.92 59.6161 179.115 59.5358 179.31 59.5797L184.648 60.7814C184.846 60.8261 184.996 60.9866 185.039 61.2005C185.082 61.4144 185.007 61.6277 184.844 61.7571L181.596 64.3323C181.56 64.3612 181.517 64.3752 181.475 64.3752Z" fill="#494554"/>
<path d="M172.667 94.8631C173.452 95.1867 174.149 95.7616 174.97 95.9541C176.539 96.3222 178.162 95.2158 179.736 95.5627C180.285 95.6836 180.84 96.0369 181.006 96.6158C181.098 96.9375 181.058 97.2839 181.015 97.6174C180.751 99.6511 180.231 101.922 178.584 102.943C177.698 103.492 176.634 103.569 175.612 103.598C174.477 103.632 173.287 103.61 172.287 103.028C170.909 102.226 170.2 100.565 169.222 99.2448C168.8 98.6746 168.315 98.1585 167.783 97.7087C167.368 97.3582 166.808 97.0331 167.07 96.3683C167.309 95.763 167.946 95.4544 168.466 95.2035C169.092 94.9007 169.757 94.6788 170.44 94.5915C171.19 94.4957 171.958 94.5711 172.667 94.8631Z" fill="#C7F4E9"/>
<path d="M166.361 94.8609C166.099 94.9323 165.819 95.0271 165.661 95.2646C165.296 95.8142 165.883 96.5524 166.479 96.7597C167.719 97.1917 169.054 96.6644 170.356 96.6303C171.694 96.5953 172.996 97.0848 174.331 97.1899C176.091 97.3284 177.891 96.7693 179.315 95.6416C178.414 94.9752 177.225 95.7365 176.136 95.8086C174.723 95.9021 173.444 94.9144 172.115 94.5424C171.116 94.2628 170.003 94.3913 168.985 94.4426C168.1 94.4873 167.22 94.627 166.361 94.8609Z" fill="#A8EADE"/>
<path d="M199.298 138.562H156.996C156.114 138.562 155.399 137.847 155.399 136.965V109.036C155.399 108.153 156.114 107.438 156.996 107.438H199.298C200.18 107.438 200.895 108.153 200.895 109.036V136.965C200.895 137.847 200.18 138.562 199.298 138.562Z" fill="#494554"/>
<mask id="mask11_804_3850" style="mask-type:luminance" maskUnits="userSpaceOnUse" x="155" y="107" width="46" height="32">
<path d="M199.298 138.562H156.996C156.114 138.562 155.399 137.847 155.399 136.965V109.036C155.399 108.153 156.114 107.438 156.996 107.438H199.298C200.18 107.438 200.895 108.153 200.895 109.036V136.965C200.895 137.847 200.18 138.562 199.298 138.562Z" fill="white"/>
</mask>
<g mask="url(#mask11_804_3850)">
<path d="M189.535 116.43C188.499 117.525 187.034 118.08 185.643 118.663C181.452 120.42 177.491 122.727 173.894 125.506C171.643 127.245 169.515 129.181 167.012 130.532C162.833 132.789 157.951 133.246 153.22 133.659C152.172 133.751 151.074 133.835 150.107 133.42C148.386 132.682 147.664 130.661 147.237 128.838C145.88 123.038 145.622 116.983 146.483 111.09C146.632 110.07 146.82 109.035 147.307 108.126C147.954 106.917 149.077 106.032 150.255 105.331C155.479 102.225 161.914 102.236 167.991 102.337C173.518 102.428 179.079 102.528 184.539 103.471C187.457 103.975 193.489 104.645 192.73 108.915C192.489 110.273 191.885 111.632 191.404 112.918C190.94 114.157 190.46 115.451 189.535 116.43Z" fill="#37343F"/>
</g>
<path d="M200.895 113.627L199.473 113.652L198.052 113.67L195.208 113.708L189.521 113.754C185.73 113.784 181.938 113.788 178.147 113.792L172.46 113.784C170.564 113.774 168.668 113.773 166.773 113.754L161.086 113.708L158.242 113.671L156.82 113.652L155.399 113.627L156.82 113.602L158.242 113.583L161.086 113.545L166.773 113.499C168.668 113.48 170.564 113.48 172.46 113.47L178.147 113.461C181.938 113.465 185.73 113.469 189.521 113.5L195.208 113.546L198.052 113.583L199.473 113.602L200.895 113.627Z" fill="#828993"/>
<path d="M178.147 116.601C177.334 116.601 176.674 115.942 176.674 115.129V112.124C176.674 111.311 177.334 110.652 178.147 110.652C178.96 110.652 179.619 111.311 179.619 112.124V115.129C179.619 115.942 178.96 116.601 178.147 116.601Z" fill="#009688"/>
<path d="M117.885 75.586C117.885 75.586 117.808 76.9436 117.885 83.2661C117.943 87.9688 124.581 129.131 124.581 129.131H131.747L129.242 82.8789L138.572 129.131H145.524C145.524 129.131 140.252 84.5323 139.71 79.0441C137 70.5 130.568 66.2988 130.568 66.2988L117.885 75.586Z" fill="#009688"/>
<path d="M139.102 108.023C139.095 107.944 138.366 99.9617 136.92 91.4624C135.008 80.2282 132.718 73.1985 130.298 71.1333L130.399 71.0151C131.768 72.1838 133.086 74.8593 134.314 78.9675C135.294 82.2452 136.223 86.4408 137.073 91.4374C138.52 99.9425 139.249 107.93 139.257 108.009L139.102 108.023Z" fill="#494554"/>
<path d="M126.219 110.007C124.805 102.391 121.974 76.413 121.945 76.1516L122.1 76.1348C122.128 76.3963 124.959 102.368 126.372 109.979L126.219 110.007Z" fill="#494554"/>
<path d="M115.585 72.7117L113.926 71.0742L108.292 72.7557L109.438 76.9474C109.438 76.9474 104.786 80.5178 99.6875 86.759L99.6797 86.7539L98.9127 87.7741L98.3688 89.0856C98.3688 89.0856 98.3688 90.226 98.9128 90.6622C99.2372 90.9222 99.7581 91.1823 101.06 90.9222C101.581 90.6622 101.842 90.4021 102.102 89.882L102.667 88.4531C102.667 88.4531 115.469 81.636 115.904 79.446C116.339 77.256 115.585 72.7117 115.585 72.7117Z" fill="#FFA184"/>
<path d="M102.668 88.4532L102.501 89.1115L99.8119 88.3373L100.575 87.3462L102.668 88.4532Z" fill="#DF8A5A"/>
<path d="M108.292 72.7559L113.832 71.1714L115.585 72.7118C115.585 72.7118 116.104 74.828 115.927 76.476C115.927 76.476 113.954 78.0665 109.438 76.9475L108.292 72.7559Z" fill="#DF8A5A"/>
<path d="M119.582 76.8478L104.223 61.6861C104.223 61.6861 104.74 55.6781 109.134 52.0916C113.528 48.5049 122.022 49.0615 122.022 49.0615L131.479 68.1363L119.582 76.8478Z" fill="#B5FFE9"/>
<path d="M104.223 61.686L105.573 73.6358L113.832 71.1712L104.223 61.686Z" fill="#89FEE2"/>
<path d="M122.022 49.0615L133.994 53.7904L128.61 62.3507L122.022 49.0615Z" fill="#89FEE2"/>
<path d="M99.5309 43.0415L101.743 49.8434C102.418 51.9205 104.345 53.3338 106.529 53.3541C106.999 54.2072 108.048 55.2938 108.884 55.7927L112.77 57.9524L113.247 54.5144C113.459 52.9852 113.216 51.4275 112.547 50.0362L107.648 39.8501L99.5309 43.0415Z" fill="#FFA184"/>
<path d="M103.988 48.0868C104.086 48.3362 104.295 48.4871 104.456 48.4242C104.616 48.3611 104.667 48.1079 104.568 47.8585C104.47 47.6091 104.261 47.4582 104.101 47.5211C103.94 47.5841 103.89 47.8374 103.988 48.0868Z" fill="#494554"/>
<path d="M102.014 48.9127C102.103 49.1381 102.292 49.2745 102.437 49.2176C102.582 49.1607 102.628 48.9318 102.539 48.7065C102.45 48.4811 102.261 48.3447 102.116 48.4016C101.971 48.4586 101.926 48.6874 102.014 48.9127Z" fill="#494554"/>
<path d="M103.18 47.5664C103.152 47.8827 103.161 48.1964 103.187 48.5086C103.211 48.8212 103.26 49.1311 103.329 49.4405C103.368 49.5943 103.409 49.7483 103.468 49.9026C103.5 49.9795 103.533 50.056 103.586 50.1363C103.611 50.1755 103.642 50.2193 103.7 50.2615C103.711 50.2712 103.738 50.2819 103.758 50.2893C103.777 50.2981 103.801 50.3025 103.83 50.3009C103.897 50.2977 103.897 50.2864 103.923 50.28C104.088 50.2185 104.221 50.1239 104.347 50.0245C104.47 49.9215 104.585 49.8116 104.683 49.6858C104.541 49.7569 104.404 49.8308 104.264 49.8929C104.127 49.9574 103.985 50.0147 103.853 50.043C103.841 50.046 103.805 50.052 103.833 50.0447C103.842 50.0457 103.847 50.0471 103.849 50.0451C103.852 50.0433 103.858 50.0508 103.856 50.046C103.853 50.0398 103.836 50.0207 103.823 49.9927C103.795 49.9397 103.771 49.871 103.751 49.8018C103.707 49.6633 103.669 49.5164 103.637 49.368L103.43 48.4699C103.358 48.1685 103.282 47.8669 103.18 47.5664Z" fill="#494554"/>
<path d="M102.359 46.8701C102.359 46.8701 101.626 48.0295 100.412 48.2298C100.412 48.2298 100.649 46.722 102.359 46.8701Z" fill="#494554"/>
<path d="M105.19 46.2499C105.19 46.2499 104.048 47.0095 102.858 46.6967C102.858 46.6967 103.69 45.417 105.19 46.2499Z" fill="#494554"/>
<path d="M102.434 49.9792C101.846 50.2103 101.179 49.9201 100.948 49.3321C100.717 48.7441 101.007 48.0777 101.595 47.8466C102.183 47.6154 102.85 47.9057 103.081 48.4937C103.312 49.0816 103.022 49.748 102.434 49.9792ZM101.632 47.9401C101.096 48.151 100.831 48.7589 101.042 49.2953C101.253 49.8317 101.861 50.0964 102.397 49.8855C102.933 49.6747 103.198 49.0667 102.987 48.5303C102.776 47.994 102.168 47.7293 101.632 47.9401Z" fill="#494554"/>
<path d="M105.005 48.968C104.417 49.1991 103.751 48.9088 103.519 48.3209C103.288 47.7329 103.579 47.0665 104.167 46.8353C104.754 46.6042 105.421 46.8945 105.652 47.4824C105.883 48.0704 105.593 48.7368 105.005 48.968ZM104.203 46.9289C103.667 47.1398 103.402 47.7478 103.613 48.2841C103.824 48.8205 104.432 49.0853 104.968 48.8744C105.505 48.6635 105.769 48.0555 105.558 47.5192C105.348 46.9828 104.74 46.718 104.203 46.9289Z" fill="#494554"/>
<path d="M103.841 51.2971C103.841 51.2971 105.007 51.0492 105.692 50.1128C105.692 50.1128 105.939 52.7509 103.841 51.2971Z" fill="#F2FCFA"/>
<path d="M108.302 41.2091C108.302 41.2091 105.879 44.1009 100.635 46.4372C100.635 46.4372 96.9855 42.3651 101.934 39.5042C104.707 37.8699 108.004 39.5041 108.004 39.5041L108.302 41.2091Z" fill="#494554"/>
<path d="M105.934 41.4109C105.934 41.4109 105.825 45.0304 109.477 44.2682L111.479 47.7522L110.958 45.9316C110.958 45.9316 110.698 40.7305 108.353 39.17C106.27 37.6098 102.623 39.17 102.623 39.17L105.934 41.4109Z" fill="#494554"/>
<path d="M111.721 45.2886C111.967 44.1077 111.579 43.0282 110.855 42.8775C110.131 42.7269 109.345 43.5621 109.099 44.7431C108.853 45.924 109.241 47.0035 109.965 47.1541C110.689 47.3048 111.475 46.4696 111.721 45.2886Z" fill="#FFA184"/>
<path d="M109.983 45.1767C110.083 44.7866 110.14 44.4081 110.247 44.0534C110.302 43.8785 110.365 43.7077 110.466 43.5732C110.518 43.5073 110.579 43.4492 110.657 43.4101C110.734 43.3679 110.827 43.3488 110.929 43.3367C110.838 43.2912 110.731 43.2716 110.62 43.2858C110.51 43.3018 110.403 43.355 110.319 43.4294C110.146 43.5783 110.056 43.7813 109.994 43.9771C109.936 44.1758 109.908 44.3784 109.908 44.5796C109.906 44.7805 109.924 44.9816 109.983 45.1767Z" fill="#494554"/>
<path d="M109.159 44.1925L105.448 47.0942L105.5 47.1596L109.211 44.2579L109.159 44.1925Z" fill="#494554"/>
<path d="M106.53 53.3539C106.53 53.3539 107.978 53.2868 108.88 52.0759C109.142 51.7249 109.694 51.9734 109.604 52.4017C109.458 53.0881 108.993 53.968 107.807 54.9417C107.807 54.9417 107.061 54.3941 106.53 53.3539Z" fill="#DF8A5A"/>
<path d="M131.623 79.5673L104.707 69.9629C104.691 69.9572 104.675 69.9531 104.659 69.9484C104.858 69.1454 104.964 68.3112 104.964 67.4548C104.964 61.1099 99.1927 55.9663 92.0729 55.9663C84.9531 55.9663 79.1814 61.1099 79.1814 67.4548C79.1814 73.7997 84.9531 78.9432 92.0729 78.9432C96.8164 78.9432 100.961 76.6598 103.199 73.2594C103.279 73.3261 103.371 73.3809 103.475 73.4179L130.39 83.0222C130.859 83.1894 131.374 82.945 131.541 82.4763L132.169 80.7189C132.336 80.2502 132.091 79.7345 131.623 79.5673Z" fill="#494554"/>
<path d="M92.0729 77.1368C98.0733 77.1368 102.938 72.802 102.938 67.4547C102.938 62.1073 98.0733 57.7725 92.0729 57.7725C86.0724 57.7725 81.2081 62.1073 81.2081 67.4547C81.2081 72.802 86.0724 77.1368 92.0729 77.1368Z" fill="white"/>
<mask id="mask12_804_3850" style="mask-type:luminance" maskUnits="userSpaceOnUse" x="81" y="57" width="22" height="21">
<path d="M92.0729 77.1368C98.0733 77.1368 102.938 72.802 102.938 67.4547C102.938 62.1073 98.0733 57.7725 92.0729 57.7725C86.0724 57.7725 81.2081 62.1073 81.2081 67.4547C81.2081 72.802 86.0724 77.1368 92.0729 77.1368Z" fill="white"/>
</mask>
<g mask="url(#mask12_804_3850)">
<path d="M96.4047 57.5931L90.3164 54.7681L80.4283 76.0785L86.5166 78.9035L96.4047 57.5931Z" fill="#F2FCFA"/>
</g>
<mask id="mask13_804_3850" style="mask-type:luminance" maskUnits="userSpaceOnUse" x="81" y="57" width="22" height="21">
<path d="M92.0729 77.1368C98.0733 77.1368 102.938 72.802 102.938 67.4547C102.938 62.1073 98.0733 57.7725 92.0729 57.7725C86.0724 57.7725 81.2081 62.1073 81.2081 67.4547C81.2081 72.802 86.0724 77.1368 92.0729 77.1368Z" fill="white"/>
</mask>
<g mask="url(#mask13_804_3850)">
<path d="M101.305 58.6194L98.7881 57.4517L88.8999 78.762L91.4165 79.9297L101.305 58.6194Z" fill="#F2FCFA"/>
</g>
<path d="M139.151 60.62C138.377 57.9696 133.062 55.272 133.062 55.272L129.029 61.6858L130.817 62.8837C127.829 63.7464 122.022 76.1431 122.022 76.1431L119.106 78.5391C118.9 78.7082 118.899 79.0243 119.105 79.1924C119.514 79.5249 119.699 80.2696 120.607 80.4792C122.057 80.8138 123.268 80.47 123.268 80.47C123.268 80.47 125.166 78.6959 125.328 77.3102C128.257 74.4445 139.827 62.9363 139.151 60.62Z" fill="#FFA184"/>
<path d="M112.77 57.9523L115.248 57.2051C115.248 57.2051 115.647 51.3893 112.739 50.4365C112.739 50.4365 113.558 54.0811 112.77 57.9523Z" fill="#89FEE2"/>
<path d="M107.103 54.2358C107.103 54.2358 106.53 57.6374 111.694 59.7138L112.77 57.9525C112.77 57.9525 109.35 56.1819 107.103 54.2358Z" fill="#89FEE2"/>
<path d="M133.062 55.272C133.062 55.272 131.787 61.1009 129.85 62.2365L129.028 61.6859L133.062 55.272Z" fill="#DF8A5A"/>
<path d="M31.4786 126.814L58.7951 113.626C58.7951 113.626 92.3734 104.558 110.88 124.788L105.923 136.776L31.4786 126.814Z" fill="#F2FCFA"/>
<path d="M177.321 126.262L160.926 113.626C160.926 113.626 135.491 104.778 113.677 120.946L105.923 131.491L177.321 126.262Z" fill="white"/>
<path d="M39.171 110.205C39.171 110.205 57.861 99.3024 72.3072 99.3606L93.0956 99.3604L110.88 124.788L105.724 133.117C105.724 133.117 94.5442 100.978 39.171 110.205Z" fill="white"/>
<path d="M105.724 133.118C105.724 133.118 97.0068 96.4858 49.9478 95.8183C49.9478 95.8183 82.9736 90.4783 104.508 98.822C104.508 98.822 115.607 106.857 116.82 122.71L105.724 133.118Z" fill="white"/>
<path d="M49.9478 95.8185C51.4642 95.678 52.9907 95.6497 54.5148 95.6736C56.0396 95.6982 57.5634 95.7889 59.0834 95.9283C62.1224 96.2158 65.1443 96.7206 68.114 97.452C68.4862 97.5393 68.8553 97.639 69.2254 97.7357C69.596 97.8298 69.9634 97.9361 70.3315 98.04C70.7007 98.1405 71.0656 98.2554 71.4311 98.3681C71.6137 98.4249 71.797 98.4796 71.9791 98.5383L72.524 98.7183C73.977 99.1992 75.412 99.7363 76.8239 100.33C78.2372 100.921 79.6188 101.588 80.9732 102.305C82.327 103.023 83.6513 103.798 84.9401 104.629C86.2216 105.471 87.4653 106.37 88.669 107.32L89.5634 108.043L90.4366 108.792C90.7308 109.038 91.0096 109.301 91.2934 109.558C91.5764 109.817 91.8619 110.073 92.1321 110.345C94.339 112.474 96.343 114.81 98.1121 117.309C99.8665 119.818 101.419 122.466 102.708 125.236C103.998 128.003 105.077 130.865 105.923 133.79C104.913 130.918 103.743 128.107 102.365 125.403C102.279 125.234 102.197 125.063 102.109 124.895L101.84 124.394L101.301 123.393L100.731 122.41L100.446 121.918C100.351 121.755 100.247 121.596 100.147 121.435L99.5467 120.471C99.3433 120.152 99.1291 119.84 98.9209 119.524L98.6065 119.051C98.5022 118.893 98.3883 118.742 98.2797 118.587L97.6208 117.664C97.3945 117.361 97.1626 117.062 96.934 116.761L96.5897 116.31L96.2311 115.871C95.9909 115.579 95.7578 115.281 95.5146 114.992L94.7734 114.134C94.5306 113.845 94.2676 113.573 94.0134 113.294C93.7563 113.017 93.5054 112.735 93.2368 112.469L92.443 111.66L91.6248 110.877C91.3552 110.612 91.071 110.364 90.7921 110.109C90.5115 109.857 90.236 109.598 89.9453 109.357L89.0825 108.624L88.1989 107.915C87.01 106.984 85.7812 106.105 84.5169 105.279C81.9842 103.633 79.3115 102.202 76.5353 101.004C75.1488 100.401 73.7378 99.8535 72.3072 99.3609L71.7706 99.1765C71.5913 99.1164 71.4106 99.0602 71.2307 99.0018L70.6903 98.8282C70.5104 98.7698 70.3284 98.718 70.1477 98.6618C69.7856 98.5518 69.4241 98.4394 69.0591 98.3391C68.6948 98.2361 68.3314 98.1302 67.9645 98.0365C66.5014 97.645 65.0222 97.3132 63.5346 97.0216C62.0467 96.731 60.5482 96.4908 59.0422 96.3051C58.2898 96.2061 57.5346 96.1287 56.7789 96.056C56.0228 95.9874 55.2653 95.9333 54.507 95.8874C53.7486 95.8426 52.9891 95.8134 52.2291 95.8007C51.469 95.7868 50.7081 95.7839 49.9478 95.8185Z" fill="#B5FFE9"/>
<path d="M105.923 131.491C105.923 131.491 90.7964 100.753 39.171 110.205C39.171 110.205 82.8178 101.043 105.923 131.491Z" fill="#B5FFE9"/>
<path d="M105.923 131.491C105.923 131.491 105.706 108.027 47.1512 123.599L31.4786 126.815L26.0367 136.776H105.923H182.98L177.321 126.262C177.321 126.262 158.818 121.757 139.445 119.798C120.072 117.839 108.318 126.205 105.923 131.491Z" fill="#C7F4E9"/>
<path d="M184.178 136.254H111.492C111.297 134.459 110.337 131.23 105.923 131.491C101.063 131.778 100.313 134.976 100.208 136.254H25.5816C24.944 136.254 24.4271 136.77 24.4271 137.408C24.4271 138.046 24.944 138.562 25.5816 138.562H184.178C184.816 138.562 185.333 138.046 185.333 137.408C185.333 136.77 184.816 136.254 184.178 136.254Z" fill="#009688"/>
<path d="M105.923 131.491C105.923 131.491 109.615 123.538 116.82 118.8C116.82 118.8 106.375 122.589 105.923 131.491Z" fill="#B5FFE9"/>
<path d="M47.9083 128.648C47.9083 128.648 82.3246 118.471 101.989 130.317C101.989 130.317 83.1123 121.808 47.9083 128.648Z" fill="#F2FCFA"/>
<path d="M113.827 130.179C113.827 130.179 131.467 123.552 149.955 127.962C149.955 127.962 130.279 120.523 113.827 130.179Z" fill="#F2FCFA"/>
</svg>
