<svg width="196" height="171" viewBox="0 0 196 171" fill="none" xmlns="http://www.w3.org/2000/svg">
<path d="M151.142 73.6498C151.142 74.878 150.147 75.8738 148.918 75.8738C147.69 75.8738 146.694 74.878 146.694 73.6498C146.694 72.4215 147.69 71.4258 148.918 71.4258C150.147 71.4255 151.142 72.4213 151.142 73.6498Z" fill="#BDBDBD"/>
<path d="M143.989 75.3251C144.914 74.3999 144.914 72.8999 143.989 71.9747C143.064 71.0495 141.564 71.0495 140.638 71.9747C139.713 72.8999 139.713 74.3999 140.638 75.3251C141.564 76.2503 143.064 76.2503 143.989 75.3251Z" fill="#BDBDBD"/>
<path d="M137.238 71.9728C138.627 71.9728 139.753 70.8469 139.753 69.4581C139.753 68.0692 138.627 66.9434 137.238 66.9434C135.85 66.9434 134.724 68.0692 134.724 69.4581C134.724 70.8469 135.85 71.9728 137.238 71.9728Z" fill="#BDBDBD"/>
<path d="M138.798 63.4771C139.054 62.0492 138.104 60.6839 136.677 60.4276C135.249 60.1712 133.883 61.121 133.627 62.5489C133.371 63.9767 134.32 65.3421 135.748 65.5984C137.176 65.8547 138.541 64.905 138.798 63.4771Z" fill="#BDBDBD"/>
<path d="M139.425 60.0868C140.924 60.0868 142.139 58.8715 142.139 57.3723C142.139 55.8731 140.924 54.6577 139.425 54.6577C137.925 54.6577 136.71 55.8731 136.71 57.3723C136.71 58.8715 137.925 60.0868 139.425 60.0868Z" fill="#BDBDBD"/>
<path d="M146.75 57.8773C148.258 57.2472 148.969 55.5144 148.339 54.0068C147.709 52.4992 145.977 51.7878 144.469 52.4178C142.961 53.0479 142.25 54.7807 142.88 56.2883C143.51 57.7959 145.243 58.5073 146.75 57.8773Z" fill="#BDBDBD"/>
<path d="M155.923 69.8956C156.194 68.7407 155.478 67.5843 154.323 67.3127C153.168 67.0412 152.012 67.7573 151.74 68.9122C151.469 70.0672 152.185 71.2236 153.34 71.4951C154.495 71.7667 155.651 71.0506 155.923 69.8956Z" fill="#BDBDBD"/>
<path d="M155.69 64.8089C156.718 64.4151 157.233 63.2622 156.839 62.2339C156.445 61.2055 155.292 60.6911 154.264 61.0849C153.236 61.4786 152.721 62.6315 153.115 63.6599C153.509 64.6882 154.661 65.2026 155.69 64.8089Z" fill="#BDBDBD"/>
<path d="M153.455 57.5934C153.616 56.6004 152.941 55.6652 151.948 55.5045C150.955 55.3437 150.02 56.0184 149.859 57.0113C149.699 58.0042 150.373 58.9394 151.366 59.1001C152.359 59.2609 153.294 58.5863 153.455 57.5934Z" fill="#BDBDBD"/>
<path fill-rule="evenodd" clip-rule="evenodd" d="M41.7671 55.9529C42.6793 56.9278 43.4449 58.0097 44.0544 59.1638L47.7094 59.1496L49.0677 65.043L45.7753 66.631C45.733 67.9352 45.5189 69.2433 45.125 70.52L47.7188 73.0939L44.5119 78.2212L41.0627 77.0166C40.0878 77.93 39.0051 78.6948 37.851 79.3035L37.8647 82.9593L31.9722 84.3176L30.3838 81.0252C29.0796 80.9825 27.7719 80.7681 26.4948 80.3737L23.9213 82.9676L18.7928 79.761L19.9978 76.3114C19.0844 75.3365 18.32 74.2546 17.7108 73.1001L14.0551 73.1139L12.6968 67.2205L15.99 65.6329C16.0327 64.3288 16.2471 63.021 16.6407 61.7443L14.0476 59.1704L17.2542 54.0427L20.7034 55.2477C21.6783 54.3343 22.761 53.5691 23.915 52.9604L23.9013 49.3046L29.7939 47.9463L31.3818 51.2391C32.686 51.2814 33.9937 51.4958 35.2709 51.8898L37.8444 49.2963L42.9717 52.5025L41.7671 55.9529ZM34.5551 60.7772C31.5175 58.8776 27.5144 59.8 25.6144 62.8384C23.7147 65.8764 24.6379 69.8795 27.6751 71.7787C30.7135 73.6783 34.7158 72.7556 36.6158 69.718C38.5159 66.6796 37.5935 62.6773 34.5551 60.7772Z" fill="#BDBDBD"/>
<path fill-rule="evenodd" clip-rule="evenodd" d="M45.3277 31.1665C45.8326 31.7063 46.2563 32.3053 46.5938 32.9442L48.6173 32.9364L49.3692 36.199L47.5464 37.0783C47.5229 37.8003 47.4045 38.5248 47.1861 39.2315L48.622 40.6565L46.8463 43.4953L44.9365 42.8285C44.3967 43.3342 43.7973 43.7576 43.1583 44.0947L43.1662 46.1186L39.904 46.8708L39.0247 45.048C38.3026 45.0245 37.5786 44.9057 36.8718 44.6874L35.4469 46.1237L32.6077 44.3483L33.2748 42.4385C32.7692 41.8987 32.3458 41.2997 32.0087 40.6604L29.9848 40.6678L29.2325 37.4048L31.0557 36.526C31.0793 35.8039 31.1984 35.0799 31.416 34.3731L29.9801 32.9482L31.7555 30.1089L33.6653 30.7761C34.2051 30.2704 34.8044 29.8467 35.4434 29.5095L35.4356 27.4856L38.6978 26.7334L39.577 28.5566C40.2991 28.5801 41.0231 28.6989 41.7303 28.9168L43.1552 27.4809L45.9941 29.2559L45.3277 31.1665ZM41.3348 33.8376C39.6531 32.7859 37.4367 33.2967 36.385 34.9787C35.3332 36.6608 35.8444 38.8768 37.5261 39.9285C39.2082 40.9802 41.4241 40.4695 42.4759 38.7874C43.5276 37.1053 43.0168 34.8893 41.3348 33.8376Z" fill="#BDBDBD"/>
<path d="M16.9402 37.1976C16.9433 37.1921 16.9993 37.2235 17.1032 37.2889C17.2083 37.3521 17.3541 37.4622 17.5203 37.6268C17.85 37.9479 18.2679 38.5433 18.3572 39.3928C18.3984 39.8115 18.3604 40.2877 18.1769 40.7534C17.9931 41.2144 17.6897 41.6778 17.2416 42.022C17.0233 42.1995 16.7696 42.3442 16.4956 42.452C16.2228 42.5637 15.9261 42.6343 15.6203 42.6546C15.0084 42.7091 14.3608 42.5515 13.8061 42.2113C13.2569 41.8616 12.8316 41.3481 12.6129 40.7738C12.4972 40.4896 12.431 40.1917 12.4118 39.8977C12.3886 39.6041 12.4079 39.3124 12.4717 39.0384C12.585 38.4845 12.8685 38.009 13.2028 37.6417C13.5415 37.2733 13.9527 37.0302 14.3475 36.884C15.1503 36.5928 15.8688 36.7072 16.3016 36.8632C16.5223 36.9405 16.6854 37.0236 16.7877 37.0902C16.8908 37.1557 16.9437 37.1925 16.9402 37.1976C16.9296 37.2168 16.7155 37.0675 16.2785 36.9322C15.8492 36.8005 15.1542 36.7123 14.3925 37.0067C14.0182 37.1545 13.6305 37.3916 13.3145 37.746C13.0025 38.0992 12.7391 38.5516 12.6372 39.0745C12.5788 39.3332 12.5631 39.608 12.5866 39.8844C12.6062 40.1611 12.6701 40.441 12.7803 40.7076C12.9884 41.2466 13.3879 41.7264 13.9033 42.0553C14.4247 42.3744 15.0307 42.5237 15.6062 42.4747C15.8939 42.4571 16.1734 42.392 16.4309 42.2885C16.6897 42.1889 16.9296 42.0545 17.1365 41.8887C17.5623 41.5684 17.8535 41.1333 18.0342 40.6982C18.2142 40.2591 18.2581 39.8068 18.2271 39.4054C18.1585 38.5916 17.7751 38.0051 17.4682 37.677C17.1554 37.3426 16.9272 37.2152 16.9402 37.1976Z" fill="#BDBDBD"/>
<path d="M20.1754 35.0333C20.173 35.0337 20.182 35.0007 20.2024 34.9349C20.2263 34.8616 20.2577 34.764 20.2977 34.6397C20.3886 34.3684 20.5188 33.9796 20.6873 33.4759L20.6995 33.5104C20.1076 33.1454 19.3302 32.666 18.3902 32.0866L18.4482 32.0799C18.0997 32.4339 17.7128 32.8275 17.2989 33.2485L17.2762 33.2716L17.2444 33.2622C16.7176 33.1019 16.1339 32.9972 15.5141 32.9792L15.4777 32.978L15.4616 32.9447C15.2381 32.4849 14.9963 31.9874 14.7446 31.4696L14.8183 31.5049C13.9865 31.6989 13.1033 31.9047 12.1766 32.1211L12.2331 32.0502C12.2362 32.5578 12.2393 33.1168 12.2429 33.6899L12.2433 33.7361L12.2025 33.7577C11.7219 34.0121 11.2256 34.3547 10.7807 34.7746L10.7458 34.8075L10.7 34.7918C10.2202 34.6252 9.69095 34.441 9.15195 34.254L9.24877 34.2199C8.79797 34.9431 8.3119 35.7228 7.81366 36.5221L7.80151 36.4159C8.16411 36.7749 8.56238 37.1697 8.96614 37.5691L9.00377 37.6064L8.9881 37.6569C8.82698 38.1799 8.72036 38.7733 8.70154 39.3786L8.69998 39.4323L8.65137 39.4558C8.18881 39.6793 7.6843 39.9231 7.1747 40.1693L7.22331 40.0677C7.41657 40.9047 7.62394 41.8015 7.83405 42.711L7.74428 42.64C8.26211 42.6381 8.8211 42.6357 9.38441 42.6334L9.44007 42.633L9.46594 42.6824C9.72427 43.1728 10.0669 43.6651 10.4769 44.1018L10.4773 44.1022L10.4777 44.1026C10.4867 44.1445 10.4581 44.0093 10.4977 44.1963L10.4973 44.1978L10.4961 44.201L10.4942 44.2073L10.4898 44.2194L10.4812 44.2437L10.464 44.2923L10.4299 44.3895L10.3621 44.584L10.2264 44.972C10.1363 45.2304 10.0465 45.4875 9.95673 45.7435L9.9187 45.6353C10.696 46.1218 11.4628 46.6016 12.219 47.0743L12.1057 47.0877C12.4945 46.6961 12.8795 46.3084 13.2605 45.9246L13.2993 45.8858L13.3514 45.9019C13.9155 46.0763 14.4961 46.172 15.0719 46.1912L15.126 46.1931L15.1496 46.2417C15.3902 46.7415 15.627 47.2335 15.8606 47.7192L15.7619 47.6717C16.6642 47.4648 17.5462 47.2625 18.4059 47.0653L18.34 47.1484C18.3389 46.5922 18.3373 46.0453 18.3361 45.5087V45.4585L18.3804 45.4354C18.9088 45.1575 19.3875 44.8141 19.8049 44.4244L19.8402 44.3915L19.8857 44.4076C20.4161 44.5938 20.93 44.7745 21.4321 44.9509L21.342 44.9826C21.85 44.1747 22.3294 43.4119 22.7857 42.6859L22.7959 42.7733C22.3878 42.366 22.0048 41.9842 21.6356 41.6157L21.607 41.5871L21.6187 41.5491C21.8045 40.9521 21.8927 40.3739 21.9131 39.8223L21.9147 39.7855L21.9476 39.7698C22.4854 39.5131 22.9696 39.2818 23.427 39.063L23.3972 39.1234C23.1663 38.0983 22.9696 37.2249 22.801 36.477L22.8414 36.5092C22.1867 36.5068 21.6497 36.5052 21.2016 36.5037H21.1836L21.1754 36.488C20.9002 35.9596 20.6336 35.6036 20.4525 35.3731C20.3632 35.2646 20.2946 35.1811 20.2436 35.1187C20.1946 35.0611 20.173 35.0337 20.1754 35.0333C20.1777 35.0329 20.2052 35.0588 20.255 35.1085C20.3051 35.1611 20.3808 35.241 20.476 35.3535C20.6654 35.5785 20.9417 35.9313 21.2275 36.4598L21.2012 36.4441C21.6493 36.4394 22.1863 36.4335 22.841 36.4261L22.8739 36.4257L22.8818 36.4582C23.0578 37.2046 23.2628 38.0764 23.5039 39.0987L23.5137 39.141L23.4741 39.1603C23.0182 39.3821 22.5356 39.6173 21.9998 39.878L22.0339 39.8255C22.017 40.3872 21.9308 40.9772 21.7446 41.5875L21.7281 41.5209C22.0993 41.8874 22.4843 42.2676 22.8947 42.6726L22.9347 42.7122L22.9049 42.7604C22.4517 43.4887 21.9754 44.2535 21.4713 45.0638L21.4392 45.1155L21.3812 45.0955C20.8786 44.9211 20.3635 44.7423 19.8328 44.5581L19.9135 44.5408C19.487 44.9419 18.9974 45.2954 18.4569 45.5816L18.5008 45.5083C18.5035 46.0453 18.5062 46.5918 18.509 47.148L18.5094 47.2159L18.4431 47.2311C17.5839 47.4303 16.7027 47.6345 15.8007 47.8434L15.7325 47.8591L15.7019 47.796C15.4671 47.3107 15.2295 46.8191 14.988 46.3197L15.0657 46.3703C14.4741 46.3515 13.8771 46.2539 13.2974 46.0751L13.3883 46.0524C13.0073 46.4366 12.6227 46.8246 12.2346 47.2166L12.1833 47.2684L12.1214 47.2296C11.3652 46.7572 10.598 46.2778 9.82031 45.7917L9.75798 45.7525L9.78229 45.6831C9.87166 45.4272 9.96143 45.17 10.0516 44.9117L10.1872 44.5236L10.255 44.3292L10.2891 44.2316L10.306 44.183L10.3146 44.1586L10.3189 44.1465L10.3209 44.1406L10.3221 44.1375L10.3225 44.1359C10.3621 44.3225 10.3334 44.1877 10.3421 44.2292L10.3417 44.2288L10.3409 44.228C9.91949 43.7792 9.56708 43.2727 9.30209 42.7686L9.38362 42.8176C8.82071 42.8196 8.26172 42.8215 7.74349 42.8235L7.67019 42.8239L7.65373 42.7525C7.4444 41.8431 7.23821 40.9458 7.04574 40.1085L7.02966 40.0379L7.09474 40.0066C7.60473 39.7612 8.10962 39.5181 8.57258 39.2955L8.52201 39.3727C8.542 38.751 8.65294 38.1418 8.81914 37.6056L8.8411 37.6934C8.43851 37.2928 8.04102 36.8976 7.67921 36.5378L7.6306 36.4892L7.66705 36.4311C8.16764 35.6334 8.65568 34.8545 9.10844 34.1329L9.14333 34.0772L9.20526 34.0987C9.74387 34.2877 10.2723 34.4735 10.7517 34.6417L10.6713 34.6589C11.1288 34.2309 11.638 33.8816 12.1308 33.6236L12.09 33.6911C12.0892 33.118 12.088 32.559 12.0872 32.0513V31.9929L12.1437 31.98C13.0716 31.7687 13.9555 31.5672 14.7885 31.3775L14.8399 31.3657L14.8626 31.4128C15.1111 31.9318 15.3499 32.4312 15.5706 32.8922L15.518 32.8581C16.1492 32.8808 16.7422 32.9917 17.2765 33.1587L17.2228 33.1728C17.6403 32.7558 18.0311 32.3657 18.3824 32.0145L18.409 31.9878L18.4404 32.0078C19.373 32.5993 20.144 33.0882 20.7312 33.461L20.7512 33.4739L20.7434 33.4959C20.5639 33.9902 20.4251 34.3716 20.3283 34.6381C20.2816 34.7624 20.2452 34.8596 20.2177 34.9329C20.1922 34.9988 20.1781 35.0329 20.1754 35.0333Z" fill="#BDBDBD"/>
<path d="M119.98 7.29899L110.001 7.25317C108.663 7.24706 107.573 8.3762 107.568 9.77481L107.56 11.5848C107.554 12.9837 106.464 14.1129 105.126 14.1067L85.6761 14.0168C84.3382 14.0107 83.2579 12.8717 83.2637 11.4728L83.2715 9.66281C83.2773 8.26386 82.197 7.12454 80.8592 7.11877L77.3499 7.10248L68.6164 7.06209C64.2791 7.04241 60.7471 10.5428 60.7288 14.8805L60.1966 140.82C60.1783 145.156 63.6767 148.685 68.0117 148.705L119.375 148.942C123.712 148.962 127.244 145.461 127.263 141.124L127.795 15.184C127.813 10.8486 124.315 7.31935 119.98 7.29899Z" fill="white"/>
<path d="M119.98 7.29905C119.98 7.29905 120.07 7.30109 120.248 7.30924C120.426 7.32722 120.696 7.30788 121.044 7.37542C121.739 7.46094 122.797 7.69172 123.983 8.40613C124.583 8.74756 125.192 9.23831 125.767 9.86482C126.34 10.4923 126.872 11.276 127.251 12.2137C127.635 13.1484 127.841 14.2385 127.825 15.4012C127.821 16.5606 127.817 17.7949 127.813 19.1026C127.775 29.5645 127.721 44.7005 127.654 63.4031C127.58 82.107 127.492 104.377 127.395 129.106C127.382 132.197 127.37 135.327 127.357 138.492C127.354 139.284 127.35 140.078 127.347 140.874C127.335 141.67 127.28 142.488 127.037 143.262C126.808 144.036 126.485 144.79 126.028 145.465C125.573 146.139 125.021 146.748 124.39 147.268C123.112 148.285 121.514 148.93 119.861 149.005C119.446 149.033 119.038 149.027 118.628 149.024L117.398 149.019C116.576 149.015 115.753 149.011 114.927 149.008C111.625 148.993 108.291 148.978 104.928 148.962C98.2002 148.932 91.3537 148.901 84.4055 148.869C80.9315 148.853 77.4321 148.837 73.9092 148.821C72.1478 148.813 70.3806 148.805 68.608 148.797C66.83 148.88 64.9932 148.404 63.5128 147.368C62.0263 146.339 60.9325 144.787 60.4261 143.068C60.1536 142.211 60.1064 141.299 60.1098 140.417C60.1135 139.533 60.1172 138.651 60.121 137.77C60.1359 134.246 60.1508 130.746 60.1658 127.271C60.1956 120.321 60.2248 113.472 60.254 106.743C60.3127 93.2851 60.3694 80.3035 60.4234 67.9373C60.4784 55.5711 60.531 43.8201 60.5798 32.8226C60.6049 27.3239 60.629 22.0135 60.6521 16.9091C60.6552 16.2711 60.6579 15.6361 60.6609 15.0045C60.6667 14.6882 60.6905 14.3695 60.7088 14.0539C60.7651 13.7423 60.7906 13.4253 60.8727 13.1206C61.1643 11.895 61.7365 10.7489 62.534 9.80712C63.3373 8.87041 64.343 8.12919 65.4487 7.64659C66.5537 7.15312 67.765 6.98241 68.9352 7.00141C71.2732 7.01329 73.5553 7.02483 75.7796 7.03603C76.8918 7.0418 77.9894 7.04723 79.0723 7.053C79.6137 7.05571 80.1516 7.05843 80.6854 7.06114C81.2237 7.03671 81.7807 7.18604 82.2212 7.49658C82.6614 7.80712 82.999 8.25307 83.1715 8.75468C83.3697 9.25698 83.3198 9.7983 83.3238 10.3013C83.3225 10.5568 83.3215 10.8117 83.3201 11.0656C83.3198 11.3201 83.3096 11.573 83.3418 11.816C83.4026 12.3047 83.6072 12.7737 83.9259 13.1396C84.2381 13.5112 84.6675 13.7773 85.1297 13.8937C85.3625 13.9527 85.5964 13.9704 85.8404 13.9666C86.0827 13.968 86.3237 13.969 86.564 13.9704C87.5244 13.9755 88.4693 13.9802 89.3978 13.9853C93.1124 14.005 96.5691 14.0237 99.7512 14.0406C101.342 14.0495 102.864 14.0576 104.316 14.0654C104.677 14.0607 105.042 14.0848 105.386 14.0559C105.733 14.0179 106.064 13.8994 106.353 13.7203C106.933 13.3622 107.328 12.7662 107.463 12.1367C107.536 11.8217 107.525 11.5003 107.528 11.1816C107.53 10.864 107.532 10.5507 107.533 10.2426C107.538 9.93609 107.521 9.62793 107.578 9.32825C107.63 9.03027 107.733 8.7462 107.876 8.49064C108.16 7.97647 108.62 7.58889 109.13 7.39069C109.645 7.16907 110.192 7.23898 110.687 7.2305C112.7 7.24305 114.403 7.25392 115.78 7.2624C117.156 7.27258 118.205 7.28039 118.912 7.28548C119.618 7.29125 119.98 7.29905 119.98 7.29905C119.98 7.29905 119.618 7.30347 118.913 7.30313C118.206 7.30177 117.156 7.30007 115.78 7.29736C114.403 7.29328 112.7 7.28819 110.687 7.28242C110.187 7.29193 109.65 7.22541 109.151 7.44261C108.654 7.63742 108.205 8.01652 107.929 8.51949C107.79 8.76928 107.69 9.0469 107.64 9.33809C107.585 9.62827 107.602 9.93304 107.598 10.2419C107.597 10.5504 107.596 10.8633 107.595 11.181C107.592 11.4963 107.605 11.8258 107.53 12.1502C107.392 12.7968 106.988 13.4107 106.391 13.7807C106.094 13.966 105.752 14.0888 105.394 14.1289C105.033 14.1591 104.68 14.135 104.315 14.1408C102.864 14.1353 101.342 14.1296 99.7505 14.1234C96.5684 14.1109 93.1114 14.0973 89.3968 14.0831C88.4683 14.0793 87.5234 14.0756 86.563 14.0715C86.3227 14.0705 86.0817 14.0695 85.8397 14.0685C85.5998 14.0729 85.3446 14.0552 85.1043 13.9935C84.6206 13.8723 84.172 13.5943 83.8458 13.2074C83.5132 12.826 83.2991 12.3376 83.2353 11.8285C83.2013 11.5716 83.2122 11.3164 83.2118 11.0642C83.2129 10.8104 83.2139 10.5558 83.2146 10.2999C83.2101 9.78846 83.2573 9.26919 83.0666 8.79066C82.901 8.31009 82.5769 7.88382 82.1563 7.58787C81.7318 7.29193 81.2139 7.15074 80.6844 7.17416C80.1502 7.17178 79.6126 7.16975 79.0713 7.16737C77.9883 7.16296 76.8908 7.15821 75.7786 7.1538C73.5543 7.14463 71.2722 7.13513 68.9342 7.12529C67.7721 7.10798 66.5877 7.27631 65.4989 7.763C64.4119 8.23882 63.4229 8.96884 62.6335 9.89061C61.8498 10.8178 61.2885 11.9449 61.0027 13.1497C60.9219 13.4491 60.8978 13.761 60.8422 14.0671C60.8249 14.3783 60.8011 14.6885 60.7957 15.0038C60.7933 15.6354 60.7909 16.2704 60.7882 16.9085C60.7682 22.0132 60.7475 27.3236 60.7261 32.822C60.682 43.8195 60.6352 55.5704 60.5859 67.9366C60.5354 80.3029 60.4821 93.2844 60.4271 106.742C60.3989 113.471 60.3704 120.32 60.3416 127.27C60.327 130.745 60.3124 134.246 60.2975 137.77C60.2937 138.651 60.29 139.533 60.2863 140.417C60.2832 141.297 60.3287 142.176 60.5954 143.018C61.0906 144.698 62.16 146.216 63.6136 147.222C65.0672 148.235 66.8429 148.7 68.6084 148.619C70.381 148.627 72.1482 148.635 73.9096 148.643C77.4324 148.659 80.9318 148.676 84.4058 148.692C91.3541 148.725 98.2002 148.757 104.928 148.788C108.292 148.804 111.626 148.82 114.928 148.835C115.753 148.839 116.577 148.843 117.398 148.847L118.629 148.853C119.039 148.856 119.449 148.861 119.851 148.835C121.47 148.762 123.032 148.131 124.283 147.136C124.902 146.627 125.442 146.031 125.888 145.371C126.335 144.711 126.652 143.973 126.876 143.215C127.115 142.456 127.168 141.663 127.18 140.872C127.183 140.076 127.187 139.283 127.191 138.491C127.205 135.325 127.218 132.196 127.232 129.105C127.344 104.376 127.444 82.1057 127.529 63.4021C127.62 44.6995 127.693 29.5635 127.744 19.1019C127.751 17.7943 127.758 16.5599 127.764 15.4006C127.782 14.2432 127.581 13.163 127.202 12.2331C126.828 11.3008 126.302 10.5202 125.734 9.89434C125.164 9.26953 124.56 8.77878 123.965 8.43668C122.786 7.72057 121.734 7.48436 121.041 7.3934C120.695 7.32315 120.425 7.33978 120.248 7.31874C120.07 7.3072 119.98 7.29905 119.98 7.29905Z" fill="#263238"/>
<path d="M110.758 46.9528L109.986 46.0372L112.282 44.8072L101.623 41.1992L105.231 51.5308L106.543 49.8088C106.543 49.8088 113.44 61.9459 106.543 69.3242C99.6928 76.6516 91.6191 75.0639 91.6191 75.0639L93.1769 80.1479C93.1769 80.1479 105.887 81.05 112.692 69.5703C119.498 58.0908 110.758 46.9528 110.758 46.9528Z" fill="#009688"/>
<path d="M78.7935 72.4181L79.565 73.3338L77.269 74.5637L87.9288 78.1717L84.3208 67.8401L83.0087 69.5622C83.0087 69.5622 76.1114 57.425 83.0087 50.0468C89.8586 42.7194 97.9322 44.3067 97.9322 44.3067L96.3741 39.2227C96.3741 39.2227 83.6644 38.3206 76.8587 49.8004C70.0533 61.2801 78.7935 72.4181 78.7935 72.4181Z" fill="#009688"/>
<path d="M110.758 46.9528L109.986 46.0372L112.282 44.8072L101.623 41.1992L105.231 51.5308L106.543 49.8088C106.543 49.8088 113.44 61.9459 106.543 69.3242C99.6928 76.6516 91.6191 75.0639 91.6191 75.0639L93.1769 80.1479C93.1769 80.1479 105.887 81.05 112.692 69.5703C119.498 58.0908 110.758 46.9528 110.758 46.9528Z" fill="#009688"/>
<path d="M78.7935 72.4181L79.565 73.3338L77.269 74.5637L87.9288 78.1717L84.3208 67.8401L83.0087 69.5622C83.0087 69.5622 76.1114 57.425 83.0087 50.0468C89.8586 42.7194 97.9322 44.3067 97.9322 44.3067L96.3741 39.2227C96.3741 39.2227 83.6644 38.3206 76.8587 49.8004C70.0533 61.2801 78.7935 72.4181 78.7935 72.4181Z" fill="#009688"/>
<g opacity="0.8">
<path d="M110.758 46.9528L109.986 46.0372L112.282 44.8072L101.623 41.1992L105.231 51.5308L106.543 49.8088C106.543 49.8088 113.44 61.9459 106.543 69.3242C99.6928 76.6516 91.6191 75.0639 91.6191 75.0639L93.1769 80.1479C93.1769 80.1479 105.887 81.05 112.692 69.5703C119.498 58.0908 110.758 46.9528 110.758 46.9528Z" fill="white"/>
</g>
<g opacity="0.8">
<path d="M78.7935 72.4181L79.565 73.3338L77.269 74.5637L87.9288 78.1717L84.3208 67.8401L83.0087 69.5622C83.0087 69.5622 76.1114 57.425 83.0087 50.0468C89.8586 42.7194 97.9322 44.3067 97.9322 44.3067L96.3741 39.2227C96.3741 39.2227 83.6644 38.3206 76.8587 49.8004C70.0533 61.2801 78.7935 72.4181 78.7935 72.4181Z" fill="white"/>
</g>
<path fill-rule="evenodd" clip-rule="evenodd" d="M100.854 53.6591C101.365 54.2055 101.794 54.812 102.136 55.4585L104.184 55.4507L104.945 58.7533L103.1 59.6431C103.077 60.3742 102.956 61.1072 102.736 61.8227L104.189 63.2651L102.392 66.1383L100.459 65.4633C99.9125 65.9751 99.306 66.4037 98.6592 66.7451L98.667 68.7937L95.3647 69.5549L94.4745 67.71C93.7435 67.6863 93.0108 67.5658 92.2953 67.3448L90.8533 68.7984L87.9794 67.0014L88.6547 65.0682C88.1429 64.5218 87.7146 63.9153 87.3729 63.2685L85.324 63.2763L84.5627 59.9737L86.4083 59.0838C86.4321 58.3528 86.5526 57.62 86.7728 56.9046L85.3196 55.4622L87.1166 52.5886L89.0494 53.264C89.5959 52.7522 90.2027 52.3236 90.8492 51.9821L90.8414 49.9336L94.1436 49.1724L95.0335 51.0176C95.7645 51.0414 96.4973 51.1615 97.2131 51.3825L98.6551 49.9289L101.529 51.7256L100.854 53.6591ZM96.8122 56.363C95.1099 55.2983 92.8665 55.8152 91.8019 57.5179C90.7372 59.2203 91.2544 61.4636 92.9568 62.5283C94.6595 63.5929 96.9025 63.0757 97.9672 61.3733C99.0318 59.6706 98.5149 57.4276 96.8122 56.363Z" fill="#009688"/>
<g opacity="0.6">
<path fill-rule="evenodd" clip-rule="evenodd" d="M96.8122 56.3627C95.1099 55.2981 92.8665 55.815 91.8019 57.5177C90.7372 59.22 91.2544 61.4634 92.9568 62.528C94.6595 63.5927 96.9025 63.0755 97.9672 61.3731C99.0318 59.6704 98.5149 57.4274 96.8122 56.3627Z" fill="white"/>
</g>
<path d="M122.957 19.5182C122.957 19.5539 121.582 19.5946 119.885 19.6085C118.188 19.6224 116.812 19.6051 116.812 19.5692C116.811 19.5335 118.187 19.4928 119.884 19.4789C121.58 19.465 122.956 19.4826 122.957 19.5182Z" fill="#263238"/>
<path d="M122.97 21.09C122.97 21.1257 121.594 21.166 119.898 21.1803C118.201 21.1946 116.825 21.1766 116.825 21.1409C116.824 21.1053 118.2 21.0649 119.897 21.0507C121.593 21.0367 122.969 21.0544 122.97 21.09Z" fill="#263238"/>
<path d="M122.983 22.6629C122.983 22.6986 121.607 22.7389 119.911 22.7532C118.214 22.7671 116.838 22.7495 116.838 22.7138C116.837 22.6782 118.213 22.6378 119.91 22.6235C121.606 22.6093 122.982 22.6273 122.983 22.6629Z" fill="#263238"/>
<path d="M67.0645 24.4575C67.0669 24.4551 67.1107 24.4524 67.1922 24.449C67.293 24.4456 67.4097 24.4419 67.5475 24.4371C67.8828 24.4293 68.3213 24.4188 68.8596 24.4059L68.8233 24.4429C68.8185 24.152 68.8134 23.8344 68.808 23.4916C68.8097 23.3148 68.7927 23.1481 68.81 22.9438C68.8453 22.7402 69.0269 22.5603 69.2502 22.5393C69.4616 22.5352 69.648 22.5257 69.877 22.5362C70.1136 22.5651 70.3145 22.7925 70.3074 23.0429C70.3125 23.4865 70.3176 23.9501 70.323 24.4307L70.2623 24.3709C70.7937 24.3655 71.3473 24.3601 71.9174 24.354L71.8547 24.4181C71.8489 23.7516 71.8428 23.0619 71.8363 22.3557C71.835 22.1795 71.8333 22.0044 71.8319 21.8303C71.8312 21.6684 71.7328 21.5601 71.5991 21.4393C71.3541 21.198 71.1128 20.9601 70.8755 20.7259C70.6386 20.4921 70.4058 20.2623 70.1774 20.037C70.0634 19.9243 69.9507 19.813 69.839 19.7027C69.7226 19.5907 69.6313 19.475 69.4966 19.4471C69.3659 19.4118 69.222 19.4397 69.1168 19.5198C69.0167 19.6046 68.9098 19.7244 68.8087 19.8228C68.6047 20.0285 68.4068 20.2284 68.2147 20.4218C67.8411 20.8098 67.4521 21.1644 67.1691 21.4994C67.05 21.6844 67.0944 21.9111 67.0859 22.1171C67.0856 22.3221 67.0853 22.5169 67.0846 22.7001C67.0825 23.0579 67.0805 23.3711 67.0788 23.6396C67.0761 23.8795 67.0741 24.0781 67.072 24.2403C67.0703 24.3794 67.0676 24.4541 67.0645 24.4575C67.0615 24.4605 67.0578 24.3923 67.053 24.2586C67.0486 24.0988 67.0432 23.9036 67.0364 23.6671C67.0303 23.3962 67.0231 23.0806 67.015 22.7198C67.0116 22.5328 67.0079 22.3343 67.0041 22.1252C67.0024 22.0193 67.0007 21.9107 66.999 21.7998C66.998 21.6823 67.0282 21.5608 67.0903 21.4532C67.3965 21.0779 67.762 20.746 68.1384 20.3465C68.3288 20.1514 68.5256 19.9498 68.7275 19.7427C68.8338 19.6385 68.9207 19.5347 69.0469 19.4261C69.1793 19.3243 69.3612 19.288 69.5268 19.3317C69.7029 19.3704 69.8177 19.515 69.9242 19.6161C70.0362 19.7258 70.1496 19.8367 70.2639 19.9487C70.493 20.1731 70.7265 20.4022 70.9641 20.6353C71.202 20.8688 71.4437 21.106 71.689 21.347C71.7474 21.4084 71.8173 21.4607 71.874 21.5473C71.9276 21.6297 71.9582 21.7275 71.9609 21.8262C71.9626 22.001 71.9639 22.1772 71.9656 22.354C71.9711 23.0602 71.9762 23.7499 71.9812 24.4164L71.9819 24.4799L71.9185 24.4802C71.3483 24.484 70.7947 24.4874 70.2633 24.4908L70.2025 24.4911L70.2022 24.4307C70.1998 23.9501 70.1974 23.4865 70.1951 23.0429C70.2022 22.843 70.0464 22.6665 69.8608 22.6411C69.6704 22.6309 69.4457 22.6377 69.2604 22.6394C69.0825 22.654 68.9339 22.7969 68.9033 22.9611C68.8874 23.1274 68.8996 23.3216 68.8962 23.4899C68.8962 23.8327 68.8966 24.1503 68.8966 24.4415V24.4789L68.8602 24.4785C68.3128 24.4748 67.8672 24.4714 67.5261 24.469C67.391 24.4667 67.277 24.4646 67.1786 24.4629C67.1012 24.4619 67.0622 24.4599 67.0645 24.4575Z" fill="#263238"/>
<path d="M107.74 23.1156C107.74 23.1645 102.568 23.2038 96.1903 23.2038C89.8102 23.2038 84.6396 23.1641 84.6396 23.1156C84.6396 23.0671 89.8102 23.0273 96.1903 23.0273C102.568 23.027 107.74 23.0667 107.74 23.1156Z" fill="#263238"/>
<path d="M107.141 130.379H82.8893C79.792 130.379 77.2812 127.868 77.2812 124.771C77.2812 121.674 79.792 119.163 82.8893 119.163H107.141C110.238 119.163 112.749 121.673 112.749 124.771C112.749 127.868 110.238 130.379 107.141 130.379Z" fill="#009688"/>
<path d="M90.3877 125.591L90.5903 125.142C90.8079 125.301 91.1316 125.411 91.4408 125.411C91.7945 125.411 91.938 125.293 91.938 125.135C91.938 124.652 90.4396 124.984 90.4396 124.026C90.4396 123.588 90.7929 123.224 91.5257 123.224C91.8494 123.224 92.181 123.301 92.4203 123.452L92.2363 123.905C91.9971 123.769 91.7503 123.702 91.5223 123.702C91.1686 123.702 91.0325 123.835 91.0325 123.997C91.0325 124.472 92.5313 124.144 92.5313 125.091C92.5313 125.521 92.1739 125.889 91.4374 125.889C91.0281 125.89 90.6161 125.768 90.3877 125.591Z" fill="white"/>
<path d="M94.1752 125.75C94.0571 125.834 93.8843 125.875 93.7075 125.875C93.2398 125.875 92.9673 125.636 92.9673 125.164V124.35H92.6619V123.908H92.9673V123.426H93.5416V123.908H94.035V124.35H93.5416V125.157C93.5416 125.326 93.6335 125.418 93.7883 125.418C93.8731 125.418 93.9576 125.393 94.0204 125.344L94.1752 125.75Z" fill="white"/>
<path d="M96.2507 124.715V125.846H95.7131V125.599C95.6065 125.779 95.4002 125.875 95.1093 125.875C94.6454 125.875 94.3691 125.617 94.3691 125.275C94.3691 124.926 94.6159 124.682 95.2196 124.682H95.6765C95.6765 124.435 95.5288 124.292 95.2196 124.292C95.0099 124.292 94.7927 124.362 94.6488 124.476L94.4428 124.075C94.6603 123.92 94.9804 123.835 95.2974 123.835C95.9011 123.835 96.2507 124.115 96.2507 124.715ZM95.6765 125.219V125.017H95.2824C95.0136 125.017 94.9291 125.116 94.9291 125.249C94.9291 125.393 95.0503 125.488 95.2529 125.488C95.4443 125.488 95.6099 125.4 95.6765 125.219Z" fill="white"/>
<path d="M97.9984 123.835V124.365C97.9505 124.362 97.9139 124.358 97.8698 124.358C97.5528 124.358 97.343 124.531 97.343 124.91V125.846H96.7688V123.865H97.3172V124.126C97.4571 123.934 97.6926 123.835 97.9984 123.835Z" fill="white"/>
<path d="M99.6876 125.75C99.5695 125.834 99.3968 125.875 99.22 125.875C98.7523 125.875 98.4798 125.636 98.4798 125.164V124.35H98.1743V123.908H98.4798V123.426H99.054V123.908H99.5475V124.35H99.054V125.157C99.054 125.326 99.1463 125.418 99.3007 125.418C99.3856 125.418 99.4701 125.393 99.5329 125.344L99.6876 125.75Z" fill="white"/>
<path d="M118.062 103.77C118.062 103.819 107.635 103.859 94.7762 103.859C81.9128 103.859 71.4885 103.819 71.4885 103.77C71.4885 103.722 81.9128 103.682 94.7762 103.682C107.635 103.682 118.062 103.722 118.062 103.77Z" fill="#263238"/>
<path d="M108.784 106.625C108.784 106.674 102.512 106.713 94.7765 106.713C87.0382 106.713 80.7673 106.673 80.7673 106.625C80.7673 106.576 87.0382 106.537 94.7765 106.537C102.512 106.537 108.784 106.576 108.784 106.625Z" fill="#263238"/>
<path d="M37.5867 154.877L35.2662 163.458L42.8082 164.146L44.393 155.978L37.5867 154.877Z" fill="#009688"/>
<path d="M43.0271 163.447C43.0249 163.475 42.6024 163.465 41.9225 163.409C41.2426 163.355 40.3068 163.251 39.2762 163.118C38.2835 162.985 37.3851 162.864 36.6402 162.765C35.9664 162.67 35.5497 162.606 35.5524 162.576C35.5551 162.549 35.9771 162.56 36.6567 162.617C37.3362 162.673 38.272 162.778 39.3029 162.91C40.2957 163.042 41.1937 163.162 41.9389 163.262C42.6131 163.355 43.0302 163.417 43.0271 163.447Z" fill="#263238"/>
<g opacity="0.6">
<path d="M35.2662 163.458L42.8082 164.146L42.9301 163.517L35.484 162.57L35.2739 163.372" fill="white"/>
</g>
<path d="M39.0129 163.076C38.9656 163.064 39.2864 161.592 39.7299 159.789C40.1737 157.984 40.5718 156.532 40.6191 156.544C40.6665 156.555 40.3456 158.027 39.9018 159.831C39.4587 161.634 39.0607 163.087 39.0129 163.076Z" fill="#263238"/>
<path d="M42.6103 163.391C42.5641 163.389 42.851 162.775 42.6275 161.796C42.5125 161.318 42.262 160.763 41.8021 160.303C41.3494 159.84 40.6703 159.517 39.9251 159.44C39.1783 159.369 38.4507 159.548 37.9052 159.899C37.3529 160.246 36.9728 160.718 36.7307 161.147C36.2509 162.027 36.2975 162.689 36.2543 162.678C36.2482 162.678 36.2444 162.638 36.2433 162.564C36.2394 162.489 36.2459 162.379 36.2608 162.237C36.2925 161.955 36.3876 161.546 36.6199 161.088C36.8559 160.637 37.2406 160.134 37.8174 159.762C38.388 159.384 39.1565 159.188 39.9423 159.264C40.7268 159.344 41.4442 159.691 41.9178 160.188C42.3972 160.682 42.6455 161.269 42.7493 161.769C42.8487 162.275 42.8139 162.696 42.752 162.974C42.7196 163.113 42.689 163.219 42.6592 163.288C42.6328 163.358 42.616 163.393 42.6103 163.391Z" fill="#263238"/>
<path d="M68.7275 152.574L68.2225 160.197C68.2225 160.197 75.81 162.715 75.8535 164.133L61.0293 164.24L61.3288 152.33L68.7275 152.574Z" fill="#009688"/>
<g opacity="0.6">
<path d="M63.6608 159.417C63.3717 159.487 63.1639 159.803 63.2216 160.095C63.2792 160.387 63.5993 160.601 63.8896 160.536C64.1799 160.472 64.4412 160.099 64.351 159.816C64.2609 159.533 63.8717 159.302 63.6054 159.434" fill="white"/>
</g>
<g opacity="0.6">
<path d="M61.0298 164.241L61.06 163.04L75.3777 163.435C75.3777 163.435 75.854 163.641 75.9293 164.241H61.0298Z" fill="white"/>
</g>
<path d="M68.465 160.129C68.4604 160.202 68.0975 160.223 67.7346 160.445C67.3657 160.658 67.1728 160.966 67.1071 160.935C67.0406 160.919 67.1617 160.49 67.6059 160.229C68.0479 159.964 68.4825 160.064 68.465 160.129Z" fill="#263238"/>
<path d="M69.9997 160.819C70.0142 160.89 69.6972 161.004 69.442 161.302C69.1785 161.593 69.1063 161.922 69.0345 161.917C68.9661 161.926 68.9287 161.501 69.253 161.136C69.5738 160.768 70.0005 160.75 69.9997 160.819Z" fill="#263238"/>
<path d="M70.8264 162.706C70.7603 162.719 70.6705 162.355 70.868 161.964C71.0628 161.572 71.4089 161.426 71.4375 161.488C71.4765 161.548 71.2504 161.754 71.093 162.077C70.9284 162.397 70.8982 162.701 70.8264 162.706Z" fill="#263238"/>
<path d="M68.3878 158.379C68.3553 158.444 68.0264 158.334 67.6166 158.35C67.2067 158.357 66.8843 158.484 66.8484 158.421C66.8079 158.368 67.1269 158.109 67.6097 158.098C68.0925 158.083 68.4248 158.323 68.3878 158.379Z" fill="#263238"/>
<path d="M68.461 156.84C68.461 156.87 68.1738 156.906 67.7193 156.813C67.4931 156.767 67.2273 156.684 66.9504 156.551C66.8117 156.484 66.6708 156.405 66.531 156.312C66.4641 156.266 66.3843 156.219 66.3121 156.131C66.2342 156.053 66.1944 155.86 66.2907 155.745C66.3702 155.634 66.5058 155.589 66.6127 155.589C66.7219 155.589 66.8098 155.614 66.89 155.636C67.0539 155.681 67.2067 155.741 67.3465 155.809C67.6257 155.946 67.8507 156.116 68.0172 156.278C68.3514 156.607 68.4603 156.881 68.4355 156.894C68.4018 156.917 68.2414 156.686 67.8996 156.412C67.7292 156.276 67.5103 156.134 67.2491 156.019C67.118 155.962 66.9767 155.913 66.827 155.875C66.6711 155.829 66.5378 155.824 66.4954 155.892C66.4802 155.919 66.4779 155.929 66.5092 155.976C66.5417 156.019 66.6043 156.063 66.67 156.108C66.7983 156.198 66.9282 156.276 67.0554 156.345C67.3102 156.48 67.5546 156.576 67.7643 156.641C68.1849 156.772 68.4633 156.801 68.461 156.84Z" fill="#263238"/>
<path d="M68.3636 156.94C68.3376 156.951 68.202 156.687 68.1898 156.218C68.1844 155.985 68.2169 155.704 68.3154 155.408C68.3655 155.261 68.4319 155.11 68.5183 154.963C68.6096 154.82 68.7215 154.627 69.003 154.603C69.1497 154.602 69.2681 154.72 69.3066 154.819C69.3525 154.921 69.3597 155.007 69.3746 155.093C69.3968 155.267 69.3884 155.437 69.3601 155.593C69.304 155.907 69.1668 156.166 69.0202 156.35C68.7188 156.725 68.4144 156.803 68.409 156.778C68.3861 156.741 68.6424 156.609 68.875 156.247C68.9896 156.068 69.0943 155.831 69.1309 155.556C69.1497 155.42 69.1519 155.274 69.1302 155.127C69.1118 154.969 69.0565 154.84 68.9972 154.854C68.9235 154.851 68.7948 154.966 68.7303 155.09C68.65 155.22 68.5855 155.354 68.5343 155.486C68.4335 155.751 68.385 156.006 68.3681 156.222C68.3341 156.657 68.4033 156.93 68.3636 156.94Z" fill="#263238"/>
<path d="M68.728 86.3477L46.1406 86.1777L35.2258 157.865L44.6001 159.055L56.6142 100.111L60.2097 159.265L60.2192 159.441L70.3571 159.264L68.728 86.3477Z" fill="#263238"/>
<path d="M58.4545 92.1567C58.4472 92.1498 58.6099 92.1399 58.9213 92.1265C59.2597 92.1139 59.7146 92.0975 60.2799 92.0765C61.4904 92.0421 63.1695 91.9947 65.1615 91.9382L65.2543 91.9355L65.2547 92.0295C65.2581 93.4459 65.2619 95.0303 65.2661 96.7117V96.7568L65.2329 96.7877C64.9617 97.0368 64.6737 97.3018 64.3827 97.5696C63.5129 98.3668 62.6718 99.1376 61.8765 99.8664L61.8101 99.9271L61.7432 99.8675C60.5011 98.7606 59.3678 97.7503 58.4018 96.8893L58.3743 96.8649L58.3747 96.8293C58.3922 95.4054 58.4064 94.2358 58.417 93.3939C58.4255 93.0112 58.4323 92.7033 58.4373 92.4684C58.443 92.2583 58.4488 92.151 58.4545 92.1567C58.4602 92.1624 58.4659 92.2808 58.4721 92.4993C58.477 92.7388 58.4839 93.0524 58.4923 93.4428C58.5026 94.2728 58.5171 95.4256 58.5347 96.8293L58.5076 96.7694C59.4808 97.6219 60.6229 98.6223 61.8746 99.7186L61.7413 99.7197C62.5351 98.989 63.3746 98.2159 64.2425 97.4172C64.5339 97.1498 64.8223 96.8851 65.0935 96.6361L65.0603 96.7117C65.0645 95.0303 65.0683 93.4462 65.0717 92.0295L65.1649 92.1208C63.1959 92.1391 61.5362 92.1552 60.3399 92.1663C59.7658 92.167 59.3036 92.1678 58.9598 92.1682C58.8124 92.1666 58.6905 92.1655 58.5889 92.1643C58.5038 92.1628 58.4579 92.1601 58.4545 92.1567Z" fill="#455A64"/>
<path d="M47.8242 91.8471C47.8181 91.8394 47.9628 91.8475 48.2409 91.8685C48.5461 91.8933 48.9525 91.9265 49.4563 91.9678C50.5446 92.0663 52.0518 92.2031 53.849 92.3658L53.9399 92.3742L53.9288 92.4662C53.7634 93.8517 53.5747 95.4307 53.3734 97.1152L53.3685 97.1568L53.3356 97.1832C53.0247 97.4315 52.6954 97.6943 52.362 97.9605C51.5308 98.6221 50.7252 99.263 49.9598 99.8723L49.8811 99.9349L49.8192 99.8566C48.849 98.6297 47.9586 97.5044 47.1932 96.5365L47.1714 96.509L47.176 96.4754C47.3658 95.0698 47.522 93.9109 47.6351 93.074C47.6901 92.695 47.7344 92.3895 47.7684 92.1557C47.8001 91.9472 47.8192 91.8406 47.8242 91.8471C47.8295 91.8536 47.8207 91.9727 47.8001 92.1912C47.776 92.4311 47.7447 92.7443 47.7058 93.1328C47.6152 93.9601 47.49 95.1057 47.3379 96.4949L47.3207 96.4341C48.0946 97.3956 48.9945 98.5132 49.9754 99.7317L49.8352 99.716C50.5996 99.1049 51.4036 98.462 52.2332 97.7989C52.5671 97.5331 52.8967 97.2703 53.2077 97.0224L53.1698 97.0904C53.3803 95.407 53.5782 93.8291 53.7512 92.4445L53.8314 92.5445C52.061 92.3471 50.5763 92.1813 49.5041 92.0617C48.9938 92.0002 48.5828 91.951 48.2738 91.9139C47.9869 91.8773 47.8303 91.8547 47.8242 91.8471Z" fill="#455A64"/>
<path d="M61.6433 102.728C61.6284 102.754 61.2411 102.555 60.6192 102.23C59.9974 101.905 59.1387 101.457 58.1819 100.979C57.2243 100.502 56.3496 100.086 55.7155 99.7843C55.0818 99.4829 54.6907 99.2927 54.7021 99.2656C54.7128 99.2403 55.1242 99.3828 55.7747 99.6506C56.4252 99.9183 57.3129 100.315 58.2739 100.794C59.2342 101.273 60.0852 101.744 60.6903 102.102C61.2957 102.461 61.6574 102.704 61.6433 102.728Z" fill="#455A64"/>
<path d="M61.3528 104.469C61.3444 104.491 61.0388 104.408 60.5823 104.179C60.1266 103.952 59.5289 103.561 58.9712 103.013C58.4146 102.464 58.0151 101.872 57.7813 101.42C57.5457 100.967 57.4574 100.663 57.48 100.654C57.5396 100.622 58.0197 101.799 59.1167 102.866C60.1992 103.946 61.3841 104.408 61.3528 104.469Z" fill="#455A64"/>
<path d="M67.729 125.182C67.7408 125.186 67.7111 125.321 67.6266 125.557C67.543 125.792 67.3929 126.124 67.1557 126.505C66.6908 127.264 65.7985 128.214 64.5197 128.755C63.2393 129.294 61.9364 129.27 61.0682 129.074C60.6297 128.978 60.2871 128.854 60.0602 128.75C59.8325 128.646 59.7153 128.573 59.7206 128.562C59.7359 128.524 60.2309 128.779 61.0957 128.93C61.9506 129.086 63.2069 129.083 64.4391 128.564C65.6702 128.043 66.5483 127.145 67.0334 126.425C67.5285 125.7 67.6916 125.167 67.729 125.182Z" fill="#455A64"/>
<path d="M66.2441 124.572C66.2544 124.593 65.9382 124.774 65.3809 124.953C64.8259 125.135 64.0252 125.292 63.1341 125.324C62.243 125.361 61.4382 125.278 60.8641 125.19C60.2896 125.099 59.942 125.004 59.9466 124.978C59.9565 124.908 61.3717 125.182 63.1257 125.117C64.0008 125.086 64.7854 124.955 65.3404 124.812C65.8973 124.672 66.2311 124.541 66.2441 124.572Z" fill="#455A64"/>
<path d="M49.4502 124.998C49.4659 125.015 49.1893 125.314 48.6645 125.71C48.1416 126.106 47.3559 126.579 46.4135 126.931C45.4701 127.281 44.5659 127.437 43.9116 127.48C43.2558 127.524 42.8509 127.478 42.8521 127.455C42.8524 127.421 43.2558 127.414 43.8975 127.334C44.5388 127.255 45.4181 127.08 46.3417 126.737C47.2642 126.392 48.0438 125.95 48.5804 125.59C49.1183 125.232 49.428 124.973 49.4502 124.998Z" fill="#455A64"/>
<path d="M47.4702 124.911C47.4828 124.961 46.5565 125.177 45.3988 125.081C44.2403 124.993 43.3602 124.633 43.3805 124.585C43.3988 124.525 44.2869 124.789 45.4152 124.875C46.5428 124.969 47.4614 124.849 47.4702 124.911Z" fill="#455A64"/>
<path d="M56.4798 100.605C56.4898 100.628 56.1109 100.825 55.4642 101.065C54.8183 101.306 53.8993 101.574 52.8584 101.742C51.8168 101.908 50.8595 101.94 50.1712 101.913C49.4818 101.887 49.0605 101.818 49.0628 101.793C49.0654 101.761 49.4894 101.778 50.1724 101.767C50.8553 101.756 51.7977 101.701 52.8259 101.538C53.853 101.372 54.7656 101.13 55.4176 100.927C56.0696 100.724 56.4672 100.576 56.4798 100.605Z" fill="#455A64"/>
<path d="M55.8633 98.2915C55.9202 98.2911 55.9691 98.4683 55.9722 98.6872C55.9752 98.9061 55.9313 99.0845 55.874 99.0856C55.8171 99.0868 55.7682 98.9095 55.7655 98.6899C55.7625 98.4703 55.8064 98.2919 55.8633 98.2915Z" fill="#455A64"/>
<path d="M55.8654 96.7031C55.9223 96.7039 55.9677 96.8819 55.9662 97.1008C55.9651 97.3196 55.9177 97.4972 55.8604 97.4972C55.8035 97.4972 55.758 97.3193 55.7596 97.0996C55.7611 96.88 55.8084 96.7024 55.8654 96.7031Z" fill="#455A64"/>
<path d="M55.8974 95.1152C55.9543 95.1172 55.9963 95.2959 55.9906 95.5148C55.9849 95.7336 55.9341 95.9101 55.8772 95.909C55.8203 95.9078 55.7782 95.7291 55.784 95.5094C55.7897 95.2902 55.8405 95.1137 55.8974 95.1152Z" fill="#455A64"/>
<path d="M55.9614 93.5284C56.0183 93.5314 56.0565 93.7109 56.047 93.9298C56.037 94.1487 55.9828 94.324 55.9259 94.3217C55.869 94.3194 55.8308 94.1399 55.8403 93.9203C55.8499 93.701 55.9041 93.5253 55.9614 93.5284Z" fill="#455A64"/>
<path d="M56.0556 91.9429C56.1125 91.9468 56.1472 92.1274 56.1335 92.3459C56.1194 92.5644 56.0617 92.739 56.0048 92.7355C55.9478 92.7321 55.9131 92.5518 55.9272 92.3325C55.941 92.1137 55.9986 91.9391 56.0556 91.9429Z" fill="#455A64"/>
<path d="M56.1802 90.3605C56.2371 90.3654 56.2684 90.5465 56.2501 90.7646C56.2317 90.9827 56.1706 91.1561 56.1137 91.1515C56.0568 91.1469 56.0255 90.9663 56.0438 90.7474C56.0625 90.5285 56.1233 90.3555 56.1802 90.3605Z" fill="#455A64"/>
<path d="M56.3055 89.0632C56.3624 89.0693 56.3968 89.1873 56.3826 89.3268C56.3685 89.4662 56.3108 89.575 56.2539 89.5693C56.197 89.564 56.1626 89.4459 56.1768 89.3057C56.1913 89.1659 56.2489 89.0575 56.3055 89.0632Z" fill="#455A64"/>
<path d="M43.5364 157.483C43.5925 157.495 43.6028 157.678 43.56 157.893C43.5169 158.108 43.4367 158.273 43.3809 158.262C43.3251 158.251 43.3144 158.067 43.3576 157.852C43.4004 157.637 43.4806 157.472 43.5364 157.483Z" fill="#455A64"/>
<path d="M43.8482 155.926C43.904 155.937 43.9147 156.12 43.8715 156.335C43.8283 156.55 43.7481 156.715 43.6924 156.704C43.6362 156.693 43.6259 156.51 43.6687 156.295C43.7118 156.08 43.7921 155.914 43.8482 155.926Z" fill="#455A64"/>
<path d="M44.1596 154.369C44.2158 154.38 44.2261 154.563 44.1833 154.778C44.1402 154.993 44.06 155.158 44.0042 155.147C43.9484 155.136 43.9377 154.953 43.9809 154.738C44.0237 154.523 44.1039 154.358 44.1596 154.369Z" fill="#455A64"/>
<path d="M44.4712 152.812C44.527 152.823 44.5377 153.006 44.4949 153.221C44.4518 153.436 44.3716 153.602 44.3158 153.59C44.26 153.579 44.2493 153.396 44.2921 153.181C44.3349 152.966 44.4151 152.8 44.4712 152.812Z" fill="#455A64"/>
<path d="M44.7824 151.255C44.8386 151.266 44.8489 151.45 44.8061 151.664C44.763 151.879 44.6828 152.044 44.627 152.033C44.5712 152.022 44.5605 151.839 44.6037 151.624C44.6465 151.409 44.7267 151.244 44.7824 151.255Z" fill="#455A64"/>
<path d="M45.0939 149.697C45.1501 149.708 45.1604 149.892 45.1176 150.107C45.0748 150.322 44.9942 150.487 44.9385 150.476C44.8823 150.465 44.872 150.281 44.9148 150.066C44.9576 149.851 45.0378 149.686 45.0939 149.697Z" fill="#455A64"/>
<path d="M45.4055 148.14C45.4616 148.151 45.472 148.335 45.4292 148.55C45.386 148.765 45.3058 148.93 45.25 148.919C45.1943 148.908 45.1836 148.724 45.2267 148.509C45.2695 148.294 45.3497 148.129 45.4055 148.14Z" fill="#455A64"/>
<path d="M45.7172 146.584C45.7734 146.595 45.7837 146.778 45.7409 146.993C45.6977 147.208 45.6175 147.373 45.5617 147.362C45.5056 147.351 45.4953 147.168 45.5381 146.953C45.5808 146.738 45.6611 146.572 45.7172 146.584Z" fill="#455A64"/>
<path d="M46.0283 145.026C46.0841 145.037 46.0948 145.22 46.052 145.435C46.0088 145.65 45.9286 145.815 45.8728 145.804C45.8171 145.793 45.8064 145.61 45.8495 145.395C45.8923 145.18 45.9725 145.015 46.0283 145.026Z" fill="#455A64"/>
<path d="M46.3402 143.469C46.3963 143.48 46.4066 143.664 46.3639 143.879C46.3207 144.094 46.2405 144.259 46.1847 144.248C46.1286 144.237 46.1183 144.053 46.1614 143.838C46.2038 143.623 46.284 143.458 46.3402 143.469Z" fill="#455A64"/>
<path d="M46.6513 141.912C46.7075 141.923 46.7178 142.107 46.675 142.322C46.6319 142.537 46.5517 142.702 46.4959 142.691C46.4401 142.68 46.4294 142.496 46.4726 142.281C46.5154 142.066 46.5956 141.901 46.6513 141.912Z" fill="#455A64"/>
<path d="M46.9631 140.355C47.0192 140.366 47.0295 140.549 46.9867 140.765C46.9436 140.98 46.8634 141.145 46.8076 141.134C46.7514 141.122 46.7411 140.939 46.7839 140.724C46.8267 140.509 46.9069 140.344 46.9631 140.355Z" fill="#455A64"/>
<path d="M47.2743 138.797C47.3304 138.808 47.3407 138.992 47.2976 139.207C47.2544 139.422 47.1742 139.587 47.1184 139.576C47.0627 139.565 47.052 139.381 47.0951 139.166C47.1383 138.951 47.2185 138.786 47.2743 138.797Z" fill="#455A64"/>
<path d="M47.5861 137.24C47.6422 137.251 47.6525 137.435 47.6094 137.65C47.5662 137.865 47.486 138.03 47.4302 138.019C47.3744 138.008 47.3637 137.824 47.4069 137.609C47.4497 137.395 47.5299 137.229 47.5861 137.24Z" fill="#455A64"/>
<path d="M47.8974 135.684C47.9536 135.695 47.9639 135.878 47.9211 136.093C47.878 136.308 47.7977 136.473 47.742 136.462C47.6862 136.451 47.6755 136.268 47.7187 136.053C47.7615 135.838 47.8417 135.673 47.8974 135.684Z" fill="#455A64"/>
<path d="M48.209 134.127C48.2651 134.138 48.2754 134.321 48.2326 134.536C48.1895 134.751 48.1093 134.916 48.0535 134.905C47.9977 134.894 47.987 134.711 48.0302 134.495C48.0726 134.281 48.1528 134.115 48.209 134.127Z" fill="#455A64"/>
<path d="M48.5206 132.569C48.5763 132.58 48.587 132.764 48.5442 132.979C48.5011 133.194 48.4209 133.359 48.3651 133.348C48.3093 133.337 48.2986 133.153 48.3414 132.938C48.3846 132.723 48.4648 132.558 48.5206 132.569Z" fill="#455A64"/>
<path d="M48.832 131.012C48.8882 131.023 48.8985 131.207 48.8557 131.422C48.8125 131.637 48.7323 131.802 48.6765 131.791C48.6208 131.78 48.6101 131.596 48.6532 131.381C48.6956 131.167 48.7759 131.001 48.832 131.012Z" fill="#455A64"/>
<path d="M49.1432 129.455C49.199 129.466 49.2096 129.65 49.1665 129.865C49.1233 130.08 49.0431 130.245 48.9873 130.234C48.9316 130.222 48.9209 130.039 48.964 129.824C49.0068 129.609 49.0874 129.444 49.1432 129.455Z" fill="#455A64"/>
<path d="M49.4551 127.897C49.5112 127.909 49.5215 128.092 49.4787 128.307C49.4356 128.522 49.3554 128.687 49.2996 128.676C49.2438 128.665 49.2331 128.482 49.2763 128.266C49.3187 128.052 49.3989 127.886 49.4551 127.897Z" fill="#455A64"/>
<path d="M49.7663 126.341C49.8225 126.352 49.8328 126.536 49.79 126.751C49.7469 126.966 49.6666 127.131 49.6109 127.12C49.5551 127.109 49.5444 126.925 49.5876 126.71C49.63 126.495 49.7106 126.33 49.7663 126.341Z" fill="#455A64"/>
<path d="M50.0779 124.784C50.1341 124.795 50.1444 124.978 50.1016 125.193C50.0585 125.408 49.9782 125.573 49.9225 125.562C49.8667 125.551 49.856 125.368 49.8988 125.153C49.9416 124.938 50.0218 124.773 50.0779 124.784Z" fill="#455A64"/>
<path d="M50.3893 123.227C50.4454 123.238 50.4557 123.422 50.4129 123.637C50.3698 123.852 50.2896 124.017 50.2338 124.006C50.1776 123.994 50.1673 123.811 50.2105 123.596C50.2529 123.381 50.3335 123.216 50.3893 123.227Z" fill="#455A64"/>
<path d="M50.7012 121.669C50.7573 121.68 50.7676 121.864 50.7248 122.078C50.6817 122.294 50.6015 122.459 50.5457 122.447C50.4899 122.436 50.4792 122.253 50.5224 122.038C50.5648 121.823 50.645 121.658 50.7012 121.669Z" fill="#455A64"/>
<path d="M51.0123 120.113C51.0684 120.124 51.0787 120.307 51.0356 120.522C50.9924 120.737 50.9122 120.902 50.8564 120.891C50.8003 120.88 50.79 120.697 50.8327 120.482C50.8759 120.267 50.9565 120.101 51.0123 120.113Z" fill="#455A64"/>
<path d="M51.324 118.555C51.3801 118.566 51.3904 118.75 51.3476 118.965C51.3045 119.18 51.2243 119.345 51.1685 119.334C51.1127 119.323 51.102 119.139 51.1452 118.924C51.1876 118.71 51.2678 118.544 51.324 118.555Z" fill="#455A64"/>
<path d="M51.6356 116.998C51.6913 117.009 51.702 117.193 51.6589 117.408C51.6157 117.623 51.5355 117.788 51.4797 117.777C51.4236 117.765 51.4133 117.582 51.456 117.367C51.4992 117.152 51.5798 116.987 51.6356 116.998Z" fill="#455A64"/>
<path d="M51.9468 115.441C52.0029 115.453 52.0132 115.636 51.9704 115.851C51.9273 116.066 51.8471 116.231 51.7913 116.22C51.7355 116.209 51.7248 116.025 51.768 115.81C51.8108 115.596 51.891 115.43 51.9468 115.441Z" fill="#455A64"/>
<path d="M52.2583 113.884C52.314 113.895 52.3247 114.078 52.282 114.293C52.2388 114.508 52.1586 114.674 52.1028 114.662C52.0471 114.651 52.0364 114.468 52.0795 114.253C52.1219 114.038 52.2025 113.872 52.2583 113.884Z" fill="#455A64"/>
<path d="M52.5699 112.327C52.6261 112.338 52.6364 112.521 52.5932 112.736C52.5501 112.951 52.4699 113.117 52.4141 113.105C52.3583 113.094 52.3476 112.911 52.3908 112.696C52.4336 112.481 52.5138 112.316 52.5699 112.327Z" fill="#455A64"/>
<path d="M52.8813 110.77C52.9371 110.781 52.9478 110.964 52.905 111.179C52.8618 111.394 52.7816 111.559 52.7259 111.548C52.6701 111.537 52.6594 111.354 52.7026 111.139C52.745 110.924 52.8256 110.758 52.8813 110.77Z" fill="#455A64"/>
<path d="M53.193 109.213C53.2488 109.224 53.2594 109.407 53.2163 109.622C53.1731 109.837 53.0929 110.002 53.0371 109.991C52.9814 109.98 52.9707 109.797 53.0138 109.582C53.0566 109.367 53.1368 109.202 53.193 109.213Z" fill="#455A64"/>
<path d="M53.5041 107.656C53.5603 107.667 53.5706 107.85 53.5274 108.065C53.4847 108.28 53.4041 108.445 53.3483 108.434C53.2921 108.423 53.2818 108.24 53.325 108.025C53.3678 107.81 53.4484 107.644 53.5041 107.656Z" fill="#455A64"/>
<path d="M53.8161 106.099C53.8719 106.11 53.8826 106.293 53.8398 106.508C53.7967 106.723 53.7164 106.889 53.6607 106.877C53.6049 106.866 53.5942 106.683 53.6374 106.468C53.6798 106.253 53.76 106.088 53.8161 106.099Z" fill="#455A64"/>
<path d="M54.1273 104.542C54.1834 104.553 54.1938 104.736 54.151 104.951C54.1078 105.166 54.0276 105.331 53.9718 105.32C53.9157 105.309 53.9054 105.126 53.9485 104.911C53.9909 104.696 54.0715 104.53 54.1273 104.542Z" fill="#455A64"/>
<path d="M54.4389 102.984C54.4947 102.995 54.5054 103.178 54.4626 103.393C54.4195 103.608 54.3392 103.773 54.2835 103.762C54.2277 103.751 54.217 103.568 54.2602 103.353C54.3026 103.138 54.3828 102.973 54.4389 102.984Z" fill="#455A64"/>
<path d="M54.7502 101.427C54.8064 101.438 54.8167 101.622 54.7735 101.837C54.7304 102.052 54.6502 102.217 54.5944 102.206C54.5382 102.195 54.5279 102.011 54.5711 101.796C54.6139 101.581 54.6941 101.416 54.7502 101.427Z" fill="#455A64"/>
<path d="M85.886 53.4073C85.886 53.4073 88.5288 49.4452 88.5991 49.4104C88.5991 49.4104 90.9849 45.3929 91.7779 45.3921C92.5758 45.3913 92.2847 46.2061 91.4658 47.6457C90.7477 48.9074 90.6751 49.6954 90.6751 49.6954L92.6346 50.8787C92.6346 50.8787 93.9433 50.3722 93.9979 51.5922C94.0162 52.0002 93.9085 52.5051 93.7725 53.2488C93.6931 53.6831 93.4963 54.1465 93.0865 53.983C92.8986 53.9081 92.745 53.7633 92.7358 53.4925C92.7106 52.7706 92.8455 52.5059 92.7534 52.5055C92.6358 52.5051 91.3432 56.2916 91.3432 56.2916L85.886 53.4073Z" fill="#FFBE9D"/>
<path d="M91.2224 50.2969C91.4241 50.1586 91.6269 50.0196 91.8511 49.9222C92.075 49.8248 92.324 49.7709 92.5647 49.8114C92.7159 49.8366 92.8656 49.9031 92.9619 50.0227C93.0937 50.1865 93.1025 50.4241 93.0371 50.6243C92.9718 50.8244 92.8427 50.9963 92.7159 51.164" fill="#FFBE9D"/>
<path d="M90.3286 49.4971C90.5196 49.3668 90.7121 49.2358 90.9245 49.1441C91.1369 49.0525 91.3725 49.0017 91.6006 49.0395C91.7438 49.0631 91.8855 49.1254 91.9768 49.2385C92.1017 49.3928 92.1097 49.6166 92.0479 49.8049C91.9856 49.9936 91.5589 50.4306 91.439 50.5887" fill="#FFBE9D"/>
<path d="M86.807 51.1709L82.988 59.3386L87.1981 63.6414L89.3921 57.5544C89.3921 57.5544 90.5678 57.7885 91.0472 57.0089C91.5824 56.1384 92.2848 53.6228 92.2848 53.6228L86.807 51.1709Z" fill="#FFBE9D"/>
<path d="M89.5357 50.9456C89.4944 50.933 89.5899 50.386 89.9876 49.8161C90.19 49.5342 90.4474 49.3421 90.6422 49.2366C90.8382 49.1297 90.9719 49.0942 90.9841 49.1178C91.0204 49.1786 90.5269 49.423 90.1541 49.9387C89.7882 50.4582 89.5995 50.9727 89.5357 50.9456Z" fill="#EB996E"/>
<path d="M93.7726 50.9794C93.7554 51.0066 93.6248 50.9355 93.4025 50.8969C93.1844 50.8576 92.8604 50.8633 92.5682 51.0245C92.2764 51.1865 92.0862 51.4531 91.9479 51.6395C91.8112 51.8305 91.721 51.9508 91.6951 51.9363C91.6714 51.9229 91.7141 51.7804 91.823 51.5631C91.9338 51.3526 92.1175 51.0405 92.4682 50.8431C92.8207 50.649 93.2034 50.6723 93.4384 50.7552C93.6805 50.8389 93.7875 50.9607 93.7726 50.9794Z" fill="#EB996E"/>
<path d="M92.3508 49.8276C92.3619 49.8895 91.8791 49.9712 91.4536 50.3551C91.0265 50.7325 90.8168 51.176 90.7584 51.1469C90.7118 51.1351 90.8417 50.6248 91.3172 50.1997C91.5533 49.9919 91.8218 49.8742 92.0204 49.8311C92.2206 49.7871 92.3474 49.8024 92.3508 49.8276Z" fill="#EB996E"/>
<path d="M93.2893 51.5913C93.3432 51.5703 93.4432 51.8873 93.2427 52.204C93.0448 52.5226 92.716 52.5699 92.7114 52.5126C92.6942 52.4565 92.9173 52.343 93.0678 52.0944C93.2259 51.8507 93.2312 51.6001 93.2893 51.5913Z" fill="#EB996E"/>
<path d="M85.895 53.2482C85.895 53.2482 85.7617 50.8109 86.3507 50.2589C86.9397 49.707 88.628 50.2803 88.628 50.2803" fill="#FFBE9D"/>
<path d="M88.867 49.1183C88.9117 49.1538 88.5206 49.7757 87.9934 50.5075C87.4659 51.2394 86.9999 51.807 86.9522 51.7756C86.9044 51.7443 87.2956 51.1225 87.8258 50.3864C88.3559 49.6507 88.8223 49.0828 88.867 49.1183Z" fill="#EB996E"/>
<path d="M55.0561 30.6394L54.998 49.66L63.1584 50.0492L63.3945 45.4228C63.3945 45.4228 66.2929 45.9984 67.0408 43.3063C67.5186 41.5867 67.3991 28.2983 67.3991 28.2983L55.0561 30.6394Z" fill="#FFBE9D"/>
<path d="M68.4722 29.6377C67.1869 30.0056 66.9077 32.1064 66.9077 32.1064L64.8916 36.5594C63.8645 35.7553 62.4856 35.8016 62.2243 37.606C62.0356 38.91 63.6571 39.174 63.6571 39.174C62.7133 40.7802 62.0727 42.0796 60.6984 43.6075C59.211 45.261 58.3775 45.428 56.7645 45.4547H54.9856C54.9856 45.4547 54.1147 42.6281 52.5024 35.5594C50.7133 27.7172 59.9868 28.7275 61.706 26.7256C64.5062 23.4655 72.5241 28.4777 68.4722 29.6377Z" fill="#263238"/>
<path d="M52.6724 36.2985C51.1693 35.2889 51.0337 32.4635 51.9104 30.7694C52.7874 29.0754 54.633 27.9276 56.5402 27.8905C56.7954 27.8856 57.0585 27.8978 57.2965 27.8057C57.6494 27.6694 57.8779 27.3352 58.1086 27.0353C59.452 25.2886 60.772 23.5724 63.2759 23.5728C63.6826 23.5728 64.1326 23.5728 64.8499 23.9631C65.2071 24.1576 65.7109 24.8168 65.7953 25.2145C66.2659 24.9914 66.7449 24.7656 67.2598 24.6877C67.7747 24.6098 68.34 24.6999 68.7288 25.046C69.1177 25.3925 69.2621 26.0296 68.9599 26.4536C69.8037 26.4001 70.6036 27.0987 70.7365 27.9337C70.8694 28.7687 69.6727 29.3558 69.5482 29.4207C69.5482 29.4207 70.2052 30.7958 68.6387 31.6201C68.0081 31.952 67.188 31.5521 67.0948 31.504" fill="#263238"/>
<path d="M58.6302 38.127C58.683 38.1216 58.7639 38.7813 58.5836 39.5712C58.4079 40.3623 58.0523 40.9238 58.0069 40.8963C57.9523 40.8688 58.2139 40.2863 58.382 39.5258C58.5558 38.7672 58.5691 38.1285 58.6302 38.127Z" fill="#455A64"/>
<path d="M59.6171 37.1944C59.6721 37.1966 59.684 37.8257 59.5411 38.5847C59.4005 39.3445 59.1626 39.927 59.1102 39.909C59.0541 39.8911 59.2 39.2917 59.3379 38.5469C59.4785 37.8024 59.5583 37.1905 59.6171 37.1944Z" fill="#455A64"/>
<path d="M62.4434 34.0552C62.4628 34.0823 62.2317 34.2508 61.9384 34.5949C61.6424 34.9353 61.3055 35.4673 61.0591 36.1129C60.812 36.7588 60.6764 37.3772 60.5713 37.8233C60.4689 38.2706 60.3983 38.5479 60.3693 38.5426C60.3421 38.538 60.3616 38.2531 60.4277 37.7962C60.4965 37.3409 60.611 36.7061 60.8662 36.0384C61.121 35.3703 61.4949 34.8233 61.8311 34.496C62.1653 34.1633 62.4315 34.0353 62.4434 34.0552Z" fill="#455A64"/>
<path d="M63.5859 31.9176C63.61 31.9111 63.6933 32.1018 63.7445 32.4322C63.796 32.7614 63.7975 33.2328 63.6734 33.7308C63.5477 34.2289 63.3239 34.6438 63.123 34.9096C62.9221 35.1774 62.7586 35.3057 62.7406 35.2885C62.6895 35.2496 63.2418 34.6354 63.4729 33.6804C63.7196 32.7301 63.5225 31.928 63.5859 31.9176Z" fill="#455A64"/>
<path d="M53.8467 36.6682C53.8188 36.7182 53.569 36.6315 53.2886 36.4749C53.0083 36.3183 52.8035 36.151 52.8314 36.1009C52.8593 36.0513 53.1091 36.1376 53.3895 36.2946C53.6698 36.4508 53.8746 36.6185 53.8467 36.6682Z" fill="#455A64"/>
<path d="M57.7898 34.6371C57.8437 34.6451 57.81 35.0481 57.5568 35.4644C57.3058 35.8827 56.9647 36.0996 56.9327 36.0557C56.8937 36.0102 57.1504 35.7417 57.3796 35.3575C57.6133 34.9759 57.7314 34.6241 57.7898 34.6371Z" fill="#455A64"/>
<path d="M59.0021 33.9868C59.0548 33.9987 58.9693 34.4815 58.6389 34.9754C58.3119 35.4719 57.9001 35.7382 57.8688 35.6943C57.8302 35.648 58.1602 35.3276 58.4666 34.8612C58.7771 34.3982 58.9444 33.9693 59.0021 33.9868Z" fill="#455A64"/>
<path d="M65.0273 26.0205C65.0132 26.037 64.8741 25.904 64.58 25.7367C64.2855 25.5752 63.8157 25.3983 63.2129 25.3834C62.6159 25.3647 61.8829 25.5068 61.2068 25.9224C60.5308 26.3372 59.9326 27.0129 59.4983 27.8253C59.182 28.4159 58.9631 29.0308 58.805 29.6088L58.7722 29.7283L58.6625 29.6706C58.0567 29.3525 57.415 29.2127 56.8421 29.205C56.2668 29.1894 55.7607 29.2948 55.36 29.4288C54.5537 29.7042 54.171 30.0667 54.1499 30.0343C54.1438 30.027 54.2344 29.9361 54.4231 29.7925C54.6129 29.6515 54.9105 29.4682 55.3184 29.312C55.7252 29.1573 56.2458 29.0324 56.8444 29.0358C57.4402 29.0312 58.1144 29.1661 58.7561 29.4961L58.614 29.558C58.7699 28.9671 58.9907 28.336 59.3169 27.7272C59.7649 26.8891 60.3917 26.1863 61.109 25.7589C61.8279 25.3303 62.5972 25.1985 63.2198 25.2367C63.8485 25.2715 64.3313 25.4789 64.622 25.6672C64.7653 25.7673 64.873 25.8483 64.9356 25.9159C65.0006 25.98 65.0323 26.0156 65.0273 26.0205Z" fill="#455A64"/>
<path d="M69.3185 27.0555C69.304 27.0517 69.5454 26.9944 69.7868 27.2675C69.8968 27.3989 69.9984 27.6067 69.9747 27.8634C69.9499 28.1193 69.7731 28.3833 69.5003 28.541C69.2318 28.7056 68.8644 28.7603 68.5091 28.6774C68.1516 28.5995 67.8082 28.41 67.4862 28.1816C67.1619 27.9547 66.8502 27.6911 66.4858 27.496C66.1222 27.2985 65.7127 27.1545 65.2803 27.0723C64.4117 26.9104 63.5489 27.0082 62.8201 27.2408C62.0871 27.4757 61.4786 27.8286 61.0015 28.1652C60.0489 28.85 59.5787 29.4234 59.5497 29.3936C59.5401 29.3852 59.649 29.2374 59.8724 28.9914C60.0978 28.7484 60.4385 28.4058 60.9152 28.0467C61.3904 27.6888 62.0065 27.3126 62.7609 27.0594C63.513 26.808 64.4094 26.6995 65.3185 26.8688C65.7712 26.9547 66.2013 27.1075 66.5832 27.318C66.969 27.5284 67.2841 27.8019 67.5966 28.0257C67.9068 28.2526 68.2242 28.4322 68.5469 28.5097C68.8682 28.5911 69.1848 28.5502 69.4274 28.4134C69.6711 28.2828 69.8292 28.0601 69.8598 27.8485C69.8907 27.6335 69.8136 27.4413 69.7234 27.3168C69.5294 27.0578 69.3078 27.0785 69.3185 27.0555Z" fill="#455A64"/>
<path d="M46.3682 51.6519L39.0803 63.8913C38.2647 65.3187 37.51 66.8413 36.79 68.4188C36.209 69.9302 36.5447 71.9031 37.5593 73.1575L37.3534 72.8611C38.1616 73.8607 39.3782 74.4417 40.6639 74.4417H40.8522C42.5466 74.4417 44.0795 73.4371 44.7556 71.8833L47.097 68.3302L46.3682 51.6519Z" fill="#009688"/>
<path d="M68.3585 49.3133C66.4021 48.3141 64.4705 48.0883 62.3627 48.0268C59.9086 47.9554 56.4487 47.612 53.804 47.8931C53.804 47.8931 46.2685 48.4508 45.7452 53.615L46.7742 77.8701L45.0488 88.147L69.1985 88.8765L69.0254 76.7525C69.3238 70.4442 68.687 61.5119 68.687 61.5119C69.0587 58.1207 70.9143 56.594 71.1778 54.3889C71.4105 52.4393 70.1072 50.2063 68.3585 49.3133Z" fill="#009688"/>
<path d="M61.5523 78.2189C61.5603 78.228 61.4389 78.3533 61.1971 78.5554C60.9557 78.7578 60.5859 79.0283 60.0962 79.3102C59.1257 79.8766 57.6142 80.4446 55.8747 80.4752C54.1348 80.5061 52.6039 79.9916 51.6138 79.4599C51.1146 79.1952 50.7353 78.9385 50.487 78.7445C50.238 78.5512 50.1123 78.4305 50.12 78.4209C50.144 78.3877 50.6784 78.8407 51.6795 79.3293C52.6711 79.8193 54.1727 80.2983 55.8709 80.2681C57.5684 80.238 59.0519 79.7066 60.0256 79.1818C61.0088 78.6578 61.5275 78.1864 61.5523 78.2189Z" fill="#263238"/>
<path d="M45.7084 53.8921C45.7157 53.8917 45.7248 53.9731 45.7367 54.1281C45.7474 54.3054 45.7607 54.53 45.7775 54.8058C45.8062 55.4223 45.8455 56.2672 45.8937 57.2996C45.9827 59.4303 46.1041 62.3271 46.2382 65.528C46.3833 68.7289 46.5144 71.6254 46.611 73.7557C46.6637 74.7874 46.7065 75.6323 46.7378 76.2484C46.7497 76.5246 46.7592 76.7492 46.7668 76.9268C46.771 77.0818 46.7699 77.164 46.763 77.1644C46.7558 77.1651 46.7432 77.0841 46.7256 76.9298C46.708 76.753 46.6855 76.5291 46.658 76.2541C46.6014 75.667 46.5388 74.8164 46.4655 73.7644C46.3222 71.6606 46.1679 68.7519 46.0323 65.5368C45.8963 62.3233 45.8024 59.4123 45.7485 57.305C45.7275 56.2718 45.7107 55.4257 45.6981 54.8088C45.6973 54.5323 45.6966 54.3073 45.6958 54.1297C45.6966 53.9742 45.7011 53.8925 45.7084 53.8921Z" fill="#263238"/>
<path d="M44.1963 55.1764C44.2024 55.1799 44.1738 55.2448 44.1131 55.3651C44.0393 55.5053 43.9492 55.6779 43.8392 55.8873C43.5955 56.3372 43.233 56.9835 42.7681 57.7719C41.8514 59.3563 40.4729 61.4781 39.0798 63.8907C38.3839 65.0958 37.7934 66.2887 37.2819 67.3784C36.7747 68.467 36.513 69.535 36.5799 70.4392C36.631 71.3425 36.8992 72.0446 37.1391 72.4873C37.3782 72.9353 37.576 73.1431 37.5588 73.1569C37.5535 73.1615 37.5035 73.1114 37.4125 73.0106C37.3247 72.9074 37.2009 72.7493 37.0692 72.527C36.8029 72.0881 36.5058 71.3769 36.4339 70.4487C36.3453 69.519 36.6035 68.4056 37.1081 67.3009C37.6142 66.1974 38.2002 65.0011 38.9007 63.7883C40.2995 61.3662 41.6956 59.2601 42.6436 57.6967C43.107 56.9358 43.4878 56.3105 43.7701 55.8472C43.8934 55.6455 43.9947 55.4797 44.0772 55.3445C44.1493 55.231 44.1902 55.173 44.1963 55.1764Z" fill="#263238"/>
<path d="M88.6176 61.8351L83.0294 58.18L79.5026 64.2896C79.5026 64.2896 74.6127 57.4932 72.3915 53.5112C70.3472 49.8462 67.7024 48.8592 66.4263 48.5937C66.0493 48.515 65.7074 48.829 65.7491 49.2117L67.6765 62.4271C67.919 63.115 71.9526 68.9626 74.207 71.9049C77.969 76.8159 83.5118 73.6731 85.0339 70.2357C86.2421 67.5081 88.1225 63.3633 88.6176 61.8351Z" fill="#009688"/>
<path d="M81.1088 69.8038C81.0794 69.8049 81.0457 69.4703 81.0018 68.9317C80.9552 68.3939 80.9002 67.6495 80.7321 66.8504C80.5645 66.0513 80.2849 65.3622 80.0186 64.9001C79.7558 64.4348 79.5331 64.1831 79.5583 64.1606C79.574 64.1438 79.8395 64.3638 80.1435 64.824C80.4502 65.2801 80.7627 65.9871 80.9346 66.8072C81.1069 67.6266 81.1389 68.3825 81.1481 68.9245C81.1542 69.4676 81.1363 69.8026 81.1088 69.8038Z" fill="#263238"/>
<path d="M82.7447 67.074C82.7118 67.0766 82.6851 66.7905 82.5461 66.3585C82.407 65.93 82.1305 65.354 81.6523 64.8601C81.1813 64.3601 80.6091 64.056 80.1664 64.0472C79.7202 64.0243 79.4727 64.2031 79.4578 64.1721C79.4368 64.1603 79.6714 63.9181 80.1679 63.9013C80.6641 63.8715 81.3085 64.1909 81.8012 64.7172C82.3085 65.2413 82.5789 65.8631 82.6866 66.3192C82.7947 66.7799 82.7684 67.074 82.7447 67.074Z" fill="#263238"/>
<path d="M66.062 50.226C66.0666 50.2314 66.02 50.2849 65.9279 50.3811C65.8763 50.4338 65.8198 50.4919 65.756 50.5568C65.6911 50.6347 65.62 50.7207 65.5421 50.8146C65.232 51.2073 64.8244 51.828 64.5746 52.6932C64.3083 53.5488 64.2029 54.6374 64.3626 55.8131C64.4443 56.4002 64.5883 57.0106 64.8427 57.6003C65.0899 58.1974 65.4172 58.789 65.7461 59.3945C67.1143 61.7963 68.5226 63.8753 69.5409 65.3749C70.0455 66.1003 70.4603 66.6966 70.7678 67.1385C71.0597 67.5533 71.2243 67.781 71.2117 67.7909C71.206 67.7951 71.1578 67.7439 71.0711 67.6419C70.9844 67.5399 70.8584 67.3879 70.7033 67.1866C70.3885 66.7875 69.95 66.1973 69.421 65.4586C68.3698 63.9773 66.9409 61.9101 65.5654 59.4953C65.2339 58.8845 64.9065 58.2898 64.6556 57.6783C64.3954 57.0667 64.2518 56.4388 64.1735 55.8379C64.0207 54.6332 64.1445 53.5201 64.4348 52.6492C64.709 51.7688 65.146 51.1451 65.4802 50.7623C65.5646 50.6714 65.6414 50.5885 65.7113 50.5133C65.7808 50.4529 65.8427 50.3987 65.8989 50.3498C66.002 50.2635 66.0574 50.2207 66.062 50.226Z" fill="#263238"/>
<path d="M66.0769 85.3393C66.0792 85.3462 66.0204 85.3714 65.9065 85.413C65.7687 85.4607 65.6033 85.518 65.4046 85.5868C65.1865 85.662 64.9176 85.7487 64.601 85.8332C64.2847 85.9195 63.9272 86.0287 63.5234 86.1154C62.7217 86.3129 61.7534 86.4932 60.6709 86.6391C59.5869 86.7728 58.3875 86.8649 57.1262 86.8729C55.8646 86.8721 54.6644 86.7866 53.5792 86.659C52.4956 86.5192 51.5265 86.3446 50.7236 86.1513C50.3195 86.0669 49.9612 85.9596 49.6446 85.8752C49.3272 85.7927 49.0583 85.7075 48.8394 85.6334C48.6404 85.5658 48.4746 85.5096 48.3363 85.4627C48.2221 85.4214 48.1633 85.3966 48.1656 85.3897C48.1679 85.3828 48.2309 85.3947 48.3489 85.4229C48.4895 85.4596 48.6591 85.5035 48.8619 85.5562C49.0835 85.6185 49.3547 85.6918 49.6736 85.7633C49.9918 85.837 50.3508 85.9336 50.755 86.0085C51.5579 86.1823 52.5239 86.3412 53.6014 86.4695C54.6805 86.5856 55.8722 86.6647 57.1251 86.6659C58.3775 86.6578 59.5685 86.5723 60.6468 86.4497C61.7236 86.3152 62.6885 86.151 63.4906 85.9726C63.8943 85.8954 64.2526 85.7965 64.5704 85.7212C64.889 85.6479 65.1598 85.5727 65.381 85.5092C65.5838 85.4554 65.753 85.4103 65.8936 85.3729C66.0112 85.3446 66.0746 85.3324 66.0769 85.3393Z" fill="#263238"/>
<g opacity="0.3">
<path d="M45.2722 71.0995L46.3631 69.407L45.794 56.0781L45.2722 71.0995Z" fill="black"/>
</g>
<g opacity="0.3">
<path d="M64.1079 55.1758C64.1079 55.1758 64.1431 60.0333 65.266 61.9573C66.3886 63.8812 69.0155 68.0394 69.0063 67.7911C68.9975 67.5428 68.8566 64.3629 68.8566 64.3629C68.8566 64.3629 64.1308 57.8946 64.1079 55.1758Z" fill="black"/>
</g>
<path d="M44.3077 71.5042C44.3107 71.5118 44.1931 71.5722 43.9589 71.605C43.7267 71.639 43.3741 71.623 42.9753 71.4782C42.5773 71.3346 42.1423 71.0599 41.7538 70.6596C41.3642 70.257 41.0426 69.7368 40.7351 69.1871C40.4284 68.6371 40.1511 68.1085 39.8348 67.6761C39.5197 67.2433 39.1709 66.903 38.8386 66.6757C38.1663 66.2097 37.619 66.2399 37.6293 66.199C37.6289 66.1902 37.7588 66.1692 37.9918 66.2013C38.224 66.2322 38.5571 66.3346 38.9158 66.558C39.2737 66.7807 39.6476 67.1249 39.9818 67.5668C40.3176 68.0095 40.6033 68.5428 40.9085 69.0897C41.2133 69.6352 41.5235 70.1443 41.8863 70.5332C42.2492 70.9217 42.6552 71.1948 43.0258 71.3472C43.7828 71.6634 44.3088 71.4602 44.3077 71.5042Z" fill="white"/>
<path d="M45.7854 63.1339C45.7514 63.1434 45.6685 62.8455 45.4352 62.4158C45.2048 61.9864 44.7935 61.4391 44.201 60.9891C43.6059 60.5418 42.9673 60.2958 42.4909 60.1915C42.0142 60.0846 41.7048 60.0861 41.7048 60.051C41.7029 60.0315 42.0154 59.9788 42.5177 60.0533C43.0173 60.1251 43.6983 60.3619 44.321 60.8302C44.9413 61.3008 45.3553 61.8913 45.5608 62.3523C45.7698 62.8153 45.8045 63.1308 45.7854 63.1339Z" fill="white"/>
<path d="M64.1965 55.9807C64.1919 56.0002 63.9345 55.9307 63.4597 55.8921C62.9861 55.8543 62.2905 55.8703 61.4635 56.0739C60.6358 56.2706 59.6881 56.6476 58.6935 57.1816C57.6927 57.7045 56.6335 58.3691 55.4341 58.9177C54.2378 59.4772 52.9865 59.7607 51.8463 59.8309C50.7023 59.8951 49.6706 59.7614 48.8341 59.5506C47.9949 59.3439 47.3494 59.0651 46.9212 58.847C46.7035 58.7442 46.5453 58.6434 46.4361 58.5796C46.3276 58.5143 46.2726 58.4772 46.276 58.4711C46.2852 58.4543 46.5174 58.5838 46.9544 58.7767C47.3895 58.9715 48.0354 59.2274 48.8669 59.4134C49.6962 59.6041 50.7122 59.7206 51.8348 59.648C52.9555 59.5678 54.1736 59.2874 55.3524 58.7362C56.535 58.1957 57.5965 57.5368 58.6091 57.0185C59.6163 56.4891 60.5865 56.1182 61.4326 55.936C62.2786 55.7465 62.9899 55.7519 63.4681 55.8142C63.7076 55.8459 63.8917 55.8825 64.0136 55.9188C64.1354 55.9532 64.1984 55.9742 64.1965 55.9807Z" fill="white"/>
<path d="M68.8918 69.1957C68.8937 69.2022 68.8181 69.2274 68.6714 69.2694C68.524 69.3053 68.3104 69.3833 68.0247 69.4302C67.459 69.5551 66.6191 69.6495 65.582 69.6243C64.5442 69.6033 63.317 69.4234 61.9835 69.1182C60.6493 68.8126 59.2112 68.3752 57.7024 67.9318C56.1944 67.4914 54.7353 67.148 53.3884 66.973C52.0424 66.8046 50.8109 66.7916 49.7971 66.9448C48.783 67.0918 47.9855 67.3493 47.4633 67.5868C46.9385 67.8183 46.6619 67.9803 46.6512 67.9619C46.6478 67.9562 46.7143 67.9123 46.8453 67.8344C46.9794 67.7633 47.1639 67.6289 47.4312 67.5162C47.9484 67.2549 48.7506 66.9726 49.7761 66.8057C50.8021 66.6327 52.05 66.6308 53.411 66.7912C54.7727 66.9574 56.2437 67.2985 57.7582 67.7408C59.2692 68.185 60.7016 68.6262 62.0251 68.9398C63.3483 69.2526 64.561 69.4451 65.587 69.4837C66.6122 69.5265 67.4449 69.4547 68.0106 69.3542C68.5771 69.2576 68.8868 69.1766 68.8918 69.1957Z" fill="white"/>
<path d="M69.0256 76.7524C69.0073 76.8162 67.8935 76.0966 65.848 75.896C64.8335 75.7853 63.6116 75.8452 62.2724 76.0198C60.9321 76.202 59.4733 76.5091 57.9329 76.7983C56.3931 77.0859 54.9172 77.3395 53.5597 77.4579C52.2033 77.5798 50.968 77.571 49.9447 77.4339C48.921 77.3009 48.1109 77.0756 47.5746 76.8655C47.3015 76.7742 47.104 76.6649 46.9646 76.6065C46.8275 76.5423 46.7568 76.506 46.7599 76.4999C46.7675 76.482 47.0593 76.6096 47.6006 76.7929C48.1407 76.9789 48.947 77.181 49.9615 77.2944C50.976 77.4121 52.1976 77.4063 53.5433 77.2753C54.8901 77.1478 56.358 76.8903 57.8969 76.6027C59.4336 76.3139 60.8981 76.0114 62.2491 75.838C63.5998 75.6722 64.837 75.6264 65.8637 75.7562C66.89 75.8792 67.6994 76.121 68.2273 76.3525C68.4981 76.4514 68.6895 76.5729 68.8266 76.6363C68.9599 76.7066 69.0287 76.7463 69.0256 76.7524Z" fill="white"/>
<path d="M56.61 86.4913C56.6015 86.502 56.466 86.4157 56.2288 86.251C55.9927 86.0845 55.6478 85.8484 55.2173 85.5639C54.3575 84.994 53.1375 84.2545 51.7234 83.5654C50.3078 82.8782 48.9729 82.3748 47.9935 82.0501C47.5042 81.8874 47.1054 81.7617 46.8285 81.6788C46.5523 81.5941 46.4007 81.5406 46.4041 81.5272C46.4075 81.5138 46.5653 81.5417 46.8483 81.604C47.1321 81.6639 47.5382 81.7694 48.0355 81.9161C49.0305 82.2075 50.3839 82.6941 51.8101 83.3866C53.2345 84.081 54.453 84.8454 55.2964 85.4481C55.7188 85.7491 56.0523 86.0035 56.275 86.1895C56.4988 86.3736 56.6184 86.4806 56.61 86.4913Z" fill="white"/>
<path d="M68.3679 86.3613C68.3782 86.3797 68.0895 86.5718 67.5654 86.7639C67.0436 86.9568 66.2766 87.1222 65.4218 87.097C64.5666 87.0691 63.8114 86.8568 63.3026 86.6322C62.7916 86.4079 62.515 86.1982 62.5265 86.1807C62.5433 86.1513 62.8424 86.3159 63.3542 86.5011C63.8645 86.6875 64.5994 86.8709 65.4279 86.8984C66.256 86.9221 67.0009 86.7849 67.5219 86.6302C68.0444 86.4771 68.353 86.3312 68.3679 86.3613Z" fill="white"/>
<path d="M76.7271 61.1453C76.7363 61.1461 76.7408 61.2702 76.6828 61.4845C76.6259 61.698 76.4891 61.9971 76.2363 62.305C75.9838 62.6125 75.6159 62.9192 75.1625 63.1782C74.708 63.4383 74.1759 63.6415 73.6308 63.8646C73.0869 64.0876 72.5774 64.3233 72.1786 64.6243C71.7802 64.9257 71.4884 65.2817 71.315 65.6159C70.9555 66.2981 71.1137 66.8073 71.0705 66.8034C71.0625 66.8057 71.0121 66.6915 70.9964 66.4692C70.9796 66.2484 71.0205 65.9173 71.1889 65.5536C71.3562 65.1911 71.653 64.8054 72.0671 64.4791C72.4834 64.1522 73.0063 63.9062 73.5556 63.6808C74.1049 63.4562 74.6316 63.2603 75.0735 63.0181C75.5159 62.7771 75.8764 62.4944 76.1301 62.2129C76.6484 61.6449 76.6889 61.1308 76.7271 61.1453Z" fill="white"/>
<path d="M72.0341 53.0382C72.0475 53.0417 72.0238 53.1643 71.9696 53.3847C71.9443 53.4955 71.9081 53.6295 71.8515 53.7808C71.7965 53.9324 71.743 54.1093 71.6548 54.2926C71.4986 54.6685 71.2656 55.0955 70.9669 55.544C70.6594 55.9863 70.2812 56.4458 69.8305 56.8751C69.3741 57.2991 68.8924 57.6486 68.4321 57.9282C67.9661 58.199 67.5253 58.4053 67.1411 58.5382C66.9528 58.615 66.7729 58.6578 66.6185 58.7032C66.4642 58.7506 66.3282 58.7785 66.2159 58.7968C65.9925 58.8373 65.8687 58.8534 65.8661 58.84C65.858 58.8029 66.35 58.7078 67.0903 58.4072C67.4616 58.2602 67.8867 58.0447 68.337 57.7716C68.782 57.4893 69.2488 57.144 69.6942 56.7304C70.1346 56.311 70.5074 55.8663 70.8164 55.4397C71.1166 55.0069 71.3573 54.5959 71.5269 54.2342C71.8725 53.5134 71.9978 53.0279 72.0341 53.0382Z" fill="white"/>
<path d="M64.6817 48.027C64.6867 48.0396 64.4896 48.1278 64.1275 48.2764C63.7669 48.4288 63.2333 48.6198 62.5652 48.8283C61.8979 49.0403 61.0889 49.2474 60.1813 49.433C59.2719 49.6087 58.2627 49.7565 57.1962 49.8386C56.129 49.9131 55.1088 49.9143 54.1833 49.8734C53.2581 49.8222 52.4277 49.7351 51.7367 49.6232C51.0454 49.5143 50.4896 49.4032 50.1107 49.305C49.731 49.2111 49.5229 49.1526 49.5259 49.1393C49.529 49.1259 49.7429 49.1587 50.1264 49.229C50.5087 49.3035 51.066 49.3933 51.7562 49.4838C52.4461 49.5774 53.2723 49.6496 54.1913 49.6901C55.1107 49.7206 56.1225 49.7141 57.1817 49.64C58.2398 49.5587 59.2417 49.4173 60.1466 49.2531C61.0496 49.0789 61.8563 48.8872 62.5251 48.6935C63.1943 48.5033 63.7329 48.3333 64.1003 48.2034C64.4697 48.0781 64.6767 48.0144 64.6817 48.027Z" fill="white"/>
<path d="M79.6904 64.6534C79.7011 64.6499 79.7584 64.7848 79.8252 65.0403C79.8932 65.2951 79.965 65.6736 79.9895 66.1461C80.0559 67.0942 79.8749 68.3944 79.614 69.7981C79.4872 70.5033 79.3329 71.1782 79.0945 71.7615C78.8607 72.3463 78.5399 72.8294 78.2072 73.1713C77.8768 73.5181 77.5406 73.7229 77.2989 73.8317C77.0555 73.9406 76.9096 73.965 76.9066 73.9551C76.8848 73.9184 77.4849 73.7721 78.1037 73.0758C78.4112 72.7336 78.7064 72.2641 78.9238 71.6939C79.1453 71.1247 79.292 70.4635 79.418 69.7622C79.6789 68.3577 79.8783 67.0819 79.8489 66.1511C79.8351 65.2206 79.6522 64.6626 79.6904 64.6534Z" fill="white"/>
<path d="M87.3478 65.6323C87.3145 65.6476 87.135 65.2423 86.7343 64.661C86.3367 64.0792 85.6839 63.3405 84.8027 62.7221C83.9185 62.1075 83.0002 61.7488 82.3169 61.5758C81.6327 61.3997 81.1908 61.3707 81.1939 61.3344C81.1946 61.3207 81.3054 61.3184 81.5059 61.3264C81.7068 61.3302 81.9968 61.3669 82.3489 61.4387C82.7026 61.5078 83.1148 61.6339 83.5571 61.813C83.9956 62.0006 84.4624 62.2458 84.9165 62.559C85.3669 62.8776 85.7576 63.2313 86.0846 63.5785C86.4051 63.9322 86.6652 64.2756 86.852 64.5838C87.0411 64.8898 87.1751 65.1495 87.2477 65.3367C87.3245 65.5219 87.3604 65.6266 87.3478 65.6323Z" fill="white"/>
<g opacity="0.3">
<path d="M64.9021 85.6402C65.3013 85.4602 65.4197 84.9152 65.1695 84.6004C64.9193 84.2857 64.4712 84.2154 64.069 84.2234C62.0962 84.2624 60.3739 85.5829 58.4327 85.9373C56.956 86.2074 55.4342 85.9029 53.9976 85.4671C52.5611 85.0313 51.1596 84.4625 49.6844 84.1841C49.3762 84.126 49.0546 84.0809 48.7517 84.1627C48.4488 84.2444 48.168 84.4835 48.1298 84.7952C48.0916 85.1065 48.165 85.3372 48.6294 85.4961C48.6294 85.4961 53.5144 86.854 57.0515 86.8013C60.804 86.7452 64.9021 85.6402 64.9021 85.6402Z" fill="black"/>
</g>
<path d="M173.144 141.118H145.798V144.875H173.144V141.118Z" fill="#263238"/>
<path d="M173.191 144.922H145.751V141.071H173.191V144.922ZM145.845 144.829H173.097V141.165H145.845V144.829Z" fill="#263238"/>
<path d="M148.333 143.625L152.27 163.044H166.834L170.639 144.875L148.333 143.625Z" fill="#263238"/>
<path d="M148.333 161.207L150.433 164.093H168.136L170.639 161.207H148.333Z" fill="#455A64"/>
<path d="M158.444 144.192C158.39 144.192 158.321 135.196 158.29 124.101C158.259 113.002 158.277 104.007 158.331 104.007C158.384 104.007 158.453 113.001 158.485 124.1C158.516 135.196 158.498 144.192 158.444 144.192Z" fill="#263238"/>
<path d="M164.535 121.679C164.541 121.682 164.516 121.754 164.462 121.888C164.398 122.041 164.317 122.234 164.218 122.47C164.163 122.598 164.104 122.738 164.04 122.889C163.983 123.048 163.922 123.218 163.857 123.4C163.791 123.584 163.721 123.78 163.646 123.986C163.573 124.194 163.516 124.42 163.444 124.654C163.145 125.586 162.908 126.729 162.679 128.002C162.48 129.28 162.331 130.696 162.256 132.189C162.123 135.177 162.292 137.886 162.472 139.837C162.56 140.814 162.648 141.603 162.713 142.147C162.742 142.403 162.764 142.61 162.782 142.775C162.796 142.919 162.8 142.995 162.793 142.997C162.787 142.998 162.77 142.923 162.744 142.781C162.716 142.617 162.681 142.411 162.638 142.157C162.55 141.615 162.441 140.828 162.335 139.851C162.119 137.899 161.927 135.181 162.061 132.18C162.136 130.68 162.292 129.257 162.502 127.972C162.742 126.694 162.995 125.546 163.312 124.613C163.389 124.379 163.451 124.153 163.529 123.946C163.609 123.74 163.684 123.545 163.755 123.362C163.826 123.181 163.892 123.012 163.953 122.854C164.021 122.701 164.09 122.564 164.148 122.44C164.261 122.209 164.354 122.02 164.426 121.871C164.492 121.742 164.53 121.676 164.535 121.679Z" fill="#263238"/>
<path d="M163.837 114.403C163.843 114.405 163.813 114.508 163.75 114.7C163.679 114.908 163.584 115.186 163.465 115.536C163.401 115.719 163.332 115.92 163.256 116.139C163.188 116.364 163.115 116.606 163.036 116.865C162.876 117.386 162.691 117.978 162.526 118.643C162.439 118.975 162.347 119.322 162.252 119.683C162.169 120.048 162.084 120.428 161.995 120.821C161.804 121.604 161.666 122.455 161.49 123.343C161.189 125.13 160.923 127.105 160.74 129.188C160.567 131.273 160.492 133.266 160.466 135.079C160.46 136.891 160.483 138.525 160.558 139.894C160.582 140.579 160.626 141.198 160.661 141.742C160.693 142.286 160.727 142.754 160.762 143.136C160.79 143.504 160.812 143.798 160.829 144.017C160.842 144.219 160.846 144.325 160.839 144.326C160.832 144.327 160.815 144.222 160.79 144.021C160.764 143.803 160.73 143.51 160.686 143.143C160.64 142.762 160.595 142.294 160.553 141.75C160.507 141.207 160.454 140.588 160.421 139.901C160.329 138.53 160.291 136.894 160.287 135.077C160.303 133.26 160.373 131.263 160.547 129.172C160.73 127.083 161.002 125.102 161.314 123.311C161.495 122.421 161.639 121.569 161.838 120.785C161.931 120.392 162.02 120.012 162.106 119.647C162.206 119.285 162.302 118.938 162.394 118.607C162.567 117.941 162.762 117.351 162.933 116.832C163.017 116.574 163.096 116.332 163.169 116.109C163.251 115.892 163.326 115.692 163.394 115.51C163.528 115.165 163.634 114.891 163.714 114.685C163.788 114.498 163.83 114.4 163.837 114.403Z" fill="#263238"/>
<path d="M156.714 145.784C156.711 145.784 156.706 145.748 156.699 145.679C156.692 145.598 156.684 145.496 156.673 145.369C156.654 145.082 156.627 144.684 156.593 144.178C156.527 143.128 156.434 141.635 156.318 139.795C156.081 136.096 155.738 130.985 155.115 125.365C154.797 122.555 154.429 119.886 154.045 117.467C153.841 116.259 153.656 115.11 153.446 114.041C153.254 112.968 153.046 111.975 152.856 111.068C152.676 110.159 152.476 109.346 152.315 108.627C152.156 107.909 152.003 107.293 151.875 106.791C151.754 106.299 151.659 105.911 151.59 105.632C151.562 105.508 151.54 105.408 151.521 105.329C151.507 105.261 151.501 105.225 151.504 105.224C151.507 105.223 151.52 105.257 151.541 105.324C151.563 105.401 151.592 105.5 151.629 105.622C151.705 105.898 151.812 106.283 151.948 106.772C152.088 107.272 152.252 107.885 152.42 108.602C152.592 109.319 152.802 110.131 152.99 111.039C153.19 111.945 153.405 112.938 153.605 114.01C153.822 115.079 154.013 116.229 154.222 117.438C154.615 119.859 154.99 122.53 155.309 125.344C155.931 130.97 156.253 136.085 156.456 139.788C156.556 141.639 156.626 143.138 156.668 144.174C156.687 144.681 156.701 145.08 156.712 145.367C156.715 145.494 156.717 145.597 156.719 145.677C156.719 145.748 156.718 145.784 156.714 145.784Z" fill="#263238"/>
<path d="M158.221 108.332C158.102 107.058 156.814 106.096 155.534 106.083C154.255 106.069 153.061 106.837 152.278 107.85C151.496 108.863 151.064 110.099 150.711 111.329C149.849 114.332 149.378 117.486 149.746 120.589C150.115 123.691 151.373 126.745 153.599 128.937C153.961 129.293 154.43 129.649 154.926 129.543C155.198 129.485 155.421 129.297 155.627 129.111C159.999 125.161 162.525 119.244 162.351 113.354C162.317 112.174 162.162 110.946 161.508 109.964C160.856 108.981 159.333 107.937 158.221 108.332Z" fill="#009688"/>
<path d="M148.663 98.1238C148.062 99.212 147.461 100.3 146.86 101.389C146.818 101.465 146.763 101.55 146.676 101.557C146.581 101.565 146.511 101.476 146.459 101.396C144.87 98.9576 143.281 96.5193 141.693 94.0811L142.791 93.459L148.663 98.1238Z" fill="#009688"/>
<g opacity="0.2">
<path d="M148.663 98.1238C148.062 99.212 147.461 100.3 146.86 101.389C146.818 101.465 146.763 101.55 146.676 101.557C146.581 101.565 146.511 101.476 146.459 101.396C144.87 98.9576 143.281 96.5193 141.693 94.0811L142.791 93.459L148.663 98.1238Z" fill="black"/>
</g>
<path d="M158.331 104.007C152.911 100.809 147.492 97.6109 142.073 94.413C141.907 94.315 141.727 94.1994 141.677 94.0136C141.612 93.7729 141.792 93.5408 141.966 93.3621C144.202 91.0551 147.45 89.718 150.655 89.9485C153.859 90.179 156.941 92.03 158.51 94.8336C160.078 97.638 160.13 101.346 158.331 104.007Z" fill="#009688"/>
<path d="M144.416 91.3505C144.416 91.3438 144.489 91.3348 144.629 91.3238C144.769 91.3168 144.976 91.2913 145.243 91.2945C145.777 91.2815 146.554 91.3164 147.499 91.4736C148.443 91.6288 149.553 91.9326 150.712 92.4497C151.87 92.964 153.069 93.7088 154.16 94.6872C155.243 95.6762 156.104 96.795 156.731 97.8961C157.361 98.998 157.774 100.071 158.022 100.996C158.273 101.92 158.385 102.689 158.425 103.222C158.455 103.488 158.45 103.696 158.457 103.836C158.46 103.977 158.459 104.051 158.452 104.051C158.435 104.052 158.414 103.757 158.35 103.23C158.287 102.703 158.155 101.944 157.89 101.033C157.376 99.2227 156.182 96.7817 154.029 94.8315C151.875 92.8844 149.327 91.9401 147.475 91.6092C146.543 91.4364 145.774 91.3807 145.243 91.3705C144.712 91.3587 144.417 91.3678 144.416 91.3505Z" fill="#263238"/>
<path d="M156.13 97.3849C156.14 97.4096 155.827 97.5543 155.308 97.7585C154.791 97.9627 154.067 98.2234 153.257 98.481C152.447 98.7381 151.705 98.9427 151.164 99.0748C150.623 99.207 150.284 99.2693 150.277 99.2438C150.27 99.2171 150.597 99.1078 151.127 98.942C151.727 98.7546 152.426 98.5362 153.198 98.2952C153.968 98.0466 154.664 97.8216 155.262 97.6288C155.791 97.4582 156.121 97.3591 156.13 97.3849Z" fill="#263238"/>
<path d="M153.57 90.5083C153.623 90.5036 153.738 91.3143 153.763 92.3221C153.789 93.3303 153.715 94.1457 153.662 94.1433C153.608 94.1414 153.594 93.3284 153.568 92.3272C153.543 91.326 153.515 90.513 153.57 90.5083Z" fill="#263238"/>
<path d="M141.931 94.2309C141.923 94.2062 142.373 94.0428 143.112 93.8154C143.85 93.5877 144.879 93.2995 146.026 93.0228C147.173 92.7468 148.22 92.5348 148.982 92.4011C149.743 92.2674 150.218 92.2078 150.222 92.2333C150.227 92.2607 149.762 92.3682 149.009 92.5363C148.256 92.7041 147.216 92.9369 146.072 93.2121C144.928 93.4881 143.897 93.7543 143.15 93.9479C142.402 94.1412 141.939 94.2576 141.931 94.2309Z" fill="#263238"/>
<path d="M150.834 105.315C149.436 104.255 147.957 104.046 146.204 104.116C144.451 104.185 142.744 104.719 141.136 105.423C138.394 106.624 135.817 108.394 134.18 110.899C132.542 113.404 131.972 116.72 133.198 119.45C133.32 119.722 133.479 120.006 133.753 120.124C134.042 120.247 134.372 120.151 134.671 120.054C137.789 119.036 140.929 118.01 143.796 116.417C146.663 114.824 149.273 112.61 150.811 109.713C151.181 109.018 151.49 108.273 151.55 107.488C151.61 106.703 151.393 105.869 150.834 105.315Z" fill="#009688"/>
<path d="M150.862 104.986C150.864 104.993 150.786 105.024 150.637 105.077C150.469 105.135 150.252 105.21 149.984 105.302C149.84 105.35 149.682 105.403 149.511 105.46C149.339 105.521 149.156 105.598 148.958 105.675C148.564 105.834 148.105 105.994 147.623 106.228C147.379 106.339 147.124 106.455 146.859 106.576C146.594 106.698 146.329 106.849 146.049 106.992C145.484 107.269 144.912 107.624 144.303 107.983C143.108 108.739 141.843 109.649 140.611 110.721C139.39 111.806 138.327 112.946 137.425 114.035C136.99 114.594 136.566 115.116 136.218 115.641C136.041 115.901 135.858 116.144 135.703 116.392C135.549 116.639 135.402 116.878 135.26 117.106C134.966 117.554 134.75 117.988 134.541 118.359C134.44 118.546 134.341 118.717 134.258 118.88C134.179 119.042 134.107 119.192 134.041 119.329C133.915 119.583 133.814 119.788 133.735 119.948C133.663 120.089 133.622 120.162 133.616 120.159C133.609 120.156 133.638 120.078 133.699 119.933C133.769 119.768 133.86 119.558 133.972 119.297C134.033 119.157 134.101 119.004 134.174 118.839C134.253 118.674 134.348 118.499 134.445 118.309C134.645 117.932 134.854 117.491 135.141 117.035C135.28 116.804 135.425 116.562 135.576 116.311C135.728 116.06 135.909 115.813 136.085 115.549C136.429 115.017 136.851 114.488 137.284 113.923C138.184 112.82 139.252 111.668 140.482 110.576C141.722 109.495 143 108.583 144.208 107.831C144.824 107.473 145.402 107.122 145.974 106.848C146.258 106.708 146.526 106.56 146.794 106.44C147.062 106.323 147.321 106.21 147.568 106.102C148.056 105.875 148.52 105.723 148.92 105.572C149.121 105.5 149.306 105.428 149.48 105.372C149.653 105.32 149.813 105.273 149.96 105.229C150.233 105.151 150.454 105.088 150.626 105.039C150.779 104.998 150.86 104.98 150.862 104.986Z" fill="#263238"/>
<path d="M139.938 110.901C139.953 110.953 138.43 111.444 136.536 111.997C134.642 112.551 133.095 112.958 133.08 112.906C133.065 112.855 134.588 112.364 136.482 111.81C138.375 111.257 139.923 110.85 139.938 110.901Z" fill="#263238"/>
<path d="M139.798 118.407C139.772 118.408 139.741 118.003 139.723 117.347C139.705 116.692 139.703 115.786 139.73 114.787C139.759 113.787 139.812 112.883 139.867 112.229C139.921 111.576 139.974 111.174 140 111.176C140.028 111.178 140.023 111.583 140.004 112.237C139.982 112.955 139.955 113.828 139.925 114.792C139.901 115.757 139.879 116.63 139.861 117.347C139.844 118.002 139.826 118.407 139.798 118.407Z" fill="#263238"/>
<path d="M146.228 115.132C146.174 115.135 146.003 113.295 145.846 111.022C145.689 108.747 145.605 106.901 145.659 106.897C145.712 106.894 145.883 108.734 146.04 111.008C146.198 113.282 146.281 115.128 146.228 115.132Z" fill="#263238"/>
<path d="M138.224 106.719C138.226 106.692 138.642 106.681 139.315 106.686C139.987 106.69 140.915 106.71 141.939 106.744C142.964 106.777 143.891 106.819 144.562 106.859C145.233 106.899 145.648 106.937 145.648 106.964C145.648 106.991 145.232 107.001 144.559 106.997C143.887 106.992 142.959 106.972 141.933 106.938C140.907 106.904 139.979 106.862 139.308 106.823C138.637 106.784 138.223 106.746 138.224 106.719Z" fill="#263238"/>
<path d="M154.296 129.812C154.29 129.812 154.282 129.736 154.273 129.59C154.266 129.423 154.256 129.211 154.245 128.952C154.22 128.397 154.214 127.593 154.236 126.6C154.253 125.607 154.319 124.425 154.436 123.117C154.563 121.809 154.746 120.376 155.009 118.882C155.278 117.39 155.601 115.981 155.934 114.709C156.276 113.441 156.622 112.309 156.948 111.371C157.272 110.432 157.554 109.679 157.769 109.167C157.869 108.927 157.951 108.732 158.016 108.577C158.074 108.443 158.108 108.374 158.114 108.377C158.121 108.379 158.099 108.453 158.052 108.592C157.997 108.749 157.926 108.949 157.839 109.194C157.647 109.714 157.384 110.472 157.078 111.414C156.769 112.355 156.438 113.488 156.107 114.754C155.785 116.024 155.468 117.429 155.2 118.916C154.938 120.404 154.75 121.832 154.615 123.133C154.488 124.436 154.408 125.614 154.373 126.604C154.335 127.594 154.319 128.396 154.321 128.95C154.317 129.21 154.315 129.422 154.313 129.589C154.308 129.735 154.303 129.812 154.296 129.812Z" fill="#263238"/>
<path d="M155.154 118.72C155.172 118.739 154.926 119.012 154.506 119.432C154.085 119.851 153.488 120.414 152.806 121.012C152.125 121.609 151.488 122.128 151.017 122.49C150.546 122.852 150.243 123.061 150.227 123.04C150.209 123.018 150.482 122.772 150.93 122.384C151.43 121.95 152.022 121.435 152.678 120.866C153.328 120.291 153.916 119.77 154.411 119.332C154.855 118.938 155.135 118.7 155.154 118.72Z" fill="#263238"/>
<path d="M160.3 122.865C160.277 122.88 160.019 122.51 159.609 121.908C159.165 121.26 158.613 120.454 158.003 119.563C157.38 118.681 156.816 117.884 156.363 117.242C155.941 116.649 155.684 116.279 155.706 116.261C155.727 116.245 156.022 116.586 156.473 117.159C156.924 117.732 157.527 118.539 158.163 119.452C158.798 120.365 159.345 121.211 159.725 121.833C160.106 122.455 160.322 122.851 160.3 122.865Z" fill="#263238"/>
<path d="M157.604 109.828C157.633 109.874 155.924 111.024 153.787 112.398C151.649 113.773 149.893 114.85 149.863 114.805C149.834 114.76 151.543 113.609 153.681 112.235C155.819 110.86 157.575 109.783 157.604 109.828Z" fill="#263238"/>
<path d="M162.424 115.031C162.387 115.069 161.229 114 159.839 112.642C158.448 111.283 157.351 110.151 157.389 110.113C157.427 110.074 158.584 111.144 159.975 112.502C161.365 113.86 162.462 114.992 162.424 115.031Z" fill="#263238"/>
<path d="M163.637 114.926L165.105 114.804C166.146 114.718 167.158 114.41 168.068 113.897C168.518 113.644 168.971 113.396 169.449 113.203C171.263 112.475 173.288 112.605 175.24 112.507C178.427 112.347 181.58 111.541 184.453 110.152C184.619 110.071 184.766 109.949 184.854 109.788C185.156 109.238 184.596 108.749 184.114 108.453C181.642 106.929 179.125 105.387 176.321 104.63C173.518 103.874 170.335 104.002 167.943 105.648C165.135 107.581 164.111 111.55 163.637 114.926Z" fill="#009688"/>
<path d="M184.887 109.607C184.884 109.613 184.798 109.573 184.638 109.491C184.462 109.399 184.231 109.278 183.943 109.127C183.34 108.81 182.471 108.342 181.374 107.816C180.276 107.295 178.945 106.707 177.397 106.283C175.855 105.854 174.077 105.63 172.242 105.865C170.416 106.106 168.734 106.817 167.544 107.883C166.346 108.946 165.614 110.229 165.097 111.32C164.582 112.42 164.264 113.355 164.033 113.996C163.925 114.302 163.838 114.548 163.772 114.736C163.711 114.905 163.675 114.992 163.669 114.99C163.663 114.988 163.685 114.896 163.734 114.723C163.792 114.533 163.867 114.283 163.961 113.971C164.171 113.322 164.469 112.378 164.972 111.262C165.478 110.155 166.206 108.845 167.425 107.749C168.638 106.648 170.359 105.916 172.217 105.672C174.082 105.433 175.89 105.667 177.445 106.11C179.006 106.549 180.339 107.154 181.434 107.692C182.527 108.236 183.387 108.723 183.979 109.061C184.26 109.225 184.485 109.357 184.657 109.457C184.811 109.55 184.891 109.602 184.887 109.607Z" fill="#263238"/>
<path d="M181.363 111.501C181.333 111.545 179.414 110.304 177.077 108.728C174.739 107.152 172.869 105.838 172.899 105.794C172.929 105.749 174.848 106.99 177.186 108.567C179.523 110.142 181.393 111.456 181.363 111.501Z" fill="#263238"/>
<path d="M179.52 105.609C179.53 105.66 178.864 105.834 178.022 105.91C177.179 105.989 176.493 105.94 176.494 105.888C176.494 105.833 177.172 105.794 178.004 105.716C178.835 105.641 179.509 105.555 179.52 105.609Z" fill="#263238"/>
<path d="M170.914 104.068C170.96 104.095 170.678 104.659 170.284 105.327C169.891 105.995 169.533 106.514 169.487 106.487C169.441 106.46 169.723 105.896 170.117 105.228C170.511 104.56 170.868 104.04 170.914 104.068Z" fill="#263238"/>
<path d="M172.634 112.631C172.62 112.653 172.264 112.467 171.71 112.13C171.156 111.794 170.406 111.301 169.606 110.72C168.805 110.138 168.099 109.588 167.592 109.186C167.085 108.783 166.779 108.524 166.795 108.503C166.811 108.481 167.147 108.701 167.675 109.076C168.251 109.494 168.949 110.002 169.72 110.562C170.518 111.141 171.252 111.65 171.785 112.015C172.319 112.38 172.649 112.607 172.634 112.631Z" fill="#263238"/>
<path d="M165.798 121.161C164.398 120.791 162.729 122.152 162.441 123.571C162.152 124.99 162.684 126.44 163.307 127.747C164.686 130.64 166.589 133.324 169.096 135.321C171.602 137.318 174.741 138.595 177.946 138.579C177.354 135.831 178.103 132.959 177.772 130.167C177.484 127.73 176.348 125.402 174.604 123.675C172.861 121.949 170.521 120.836 168.081 120.572C167.188 120.476 166.154 120.335 165.798 121.161Z" fill="#009688"/>
<path d="M177.946 138.579C177.943 138.585 177.875 138.553 177.747 138.486C177.621 138.417 177.438 138.306 177.223 138.135C176.784 137.801 176.281 137.158 175.841 136.286C175.618 135.853 175.368 135.382 175.125 134.862C174.889 134.339 174.636 133.782 174.372 133.197C174.105 132.614 173.811 132.009 173.446 131.418C173.083 130.827 172.651 130.248 172.173 129.686C171.214 128.561 170.186 127.587 169.295 126.657C168.399 125.73 167.646 124.837 167.101 124.024C166.551 123.214 166.217 122.488 166.029 121.976C165.938 121.718 165.873 121.516 165.842 121.376C165.806 121.236 165.791 121.162 165.797 121.161C165.815 121.156 165.895 121.446 166.099 121.948C166.308 122.447 166.656 123.154 167.214 123.946C167.767 124.74 168.524 125.615 169.424 126.532C170.319 127.452 171.353 128.423 172.321 129.56C172.805 130.128 173.242 130.716 173.609 131.319C173.978 131.922 174.271 132.536 174.535 133.124C174.794 133.711 175.04 134.27 175.271 134.795C175.506 135.313 175.749 135.789 175.963 136.224C176.385 137.098 176.856 137.731 177.272 138.077C177.681 138.429 177.958 138.56 177.946 138.579Z" fill="#263238"/>
<path d="M170.708 136.295C170.682 136.29 170.727 135.929 170.837 135.353C170.946 134.776 171.126 133.985 171.368 133.123C171.611 132.261 171.871 131.492 172.079 130.943C172.286 130.394 172.437 130.063 172.461 130.072C172.487 130.082 172.382 130.429 172.209 130.988C172.036 131.546 171.798 132.318 171.556 133.176C171.314 134.034 171.114 134.816 170.971 135.383C170.827 135.95 170.735 136.301 170.708 136.295Z" fill="#263238"/>
<path d="M177.681 129.549C177.672 129.575 177.298 129.48 176.695 129.322C176.092 129.165 175.259 128.949 174.332 128.74C173.405 128.532 172.56 128.369 171.948 128.253C171.336 128.137 170.956 128.063 170.96 128.035C170.964 128.01 171.35 128.036 171.97 128.117C172.59 128.199 173.443 128.341 174.375 128.55C175.307 128.76 176.139 128.998 176.734 129.19C177.328 129.382 177.689 129.524 177.681 129.549Z" fill="#263238"/>
<path d="M165.514 131.508C165.488 131.503 165.542 131.086 165.665 130.418C165.788 129.75 165.984 128.831 166.246 127.828C166.508 126.824 166.786 125.926 167.005 125.284C167.225 124.64 167.382 124.25 167.406 124.258C167.433 124.267 167.322 124.672 167.137 125.325C166.952 125.977 166.696 126.877 166.435 127.877C166.174 128.877 165.957 129.787 165.8 130.447C165.643 131.106 165.541 131.514 165.514 131.508Z" fill="#263238"/>
<path d="M174.47 123.669C174.464 123.723 172.717 123.582 170.567 123.353C168.417 123.125 166.679 122.897 166.685 122.844C166.69 122.79 168.437 122.932 170.588 123.16C172.737 123.387 174.475 123.616 174.47 123.669Z" fill="#263238"/>
<path d="M173.189 144.86C173.189 144.914 167.047 144.957 159.472 144.957C151.894 144.957 145.752 144.914 145.752 144.86C145.752 144.806 151.894 144.762 159.472 144.762C167.047 144.762 173.189 144.806 173.189 144.86Z" fill="#455A64"/>
<path d="M168.916 152.764C168.916 152.818 164.777 152.862 159.674 152.862C154.568 152.862 150.43 152.818 150.43 152.764C150.43 152.711 154.568 152.667 159.674 152.667C164.777 152.667 168.916 152.711 168.916 152.764Z" fill="#455A64"/>
<path d="M169.077 153.894C169.077 153.948 164.939 153.991 159.835 153.991C154.729 153.991 150.592 153.948 150.592 153.894C150.592 153.84 154.729 153.797 159.835 153.797C164.939 153.797 169.077 153.84 169.077 153.894Z" fill="#455A64"/>
<path d="M169.077 151.833C169.077 151.887 164.796 151.931 159.517 151.931C154.236 151.931 149.956 151.887 149.956 151.833C149.956 151.779 154.236 151.735 159.517 151.735C164.796 151.735 169.077 151.779 169.077 151.833Z" fill="#455A64"/>
<path d="M180.803 164.093C180.803 164.15 143.728 164.195 98.004 164.195C52.2642 164.195 15.1975 164.149 15.1975 164.093C15.1975 164.037 52.2646 163.991 98.004 163.991C143.728 163.991 180.803 164.037 180.803 164.093Z" fill="#263238"/>
</svg>
